<?xml version="1.0" encoding="utf-8"?>
<!-- Generator: Adobe Illustrator 23.1.1, SVG Export Plug-In . SVG Version: 6.00 Build 0)  -->
<svg version="1.1" id="Layer_1" xmlns="http://www.w3.org/2000/svg" xmlns:xlink="http://www.w3.org/1999/xlink" x="0px" y="0px"
	 viewBox="0 0 1816.4 1775.4" style="enable-background:new 0 0 1816.4 1775.4;" xml:space="preserve">
<style type="text/css">
	.st0{opacity:0.2;}
	.st1{fill:url(#SVGID_1_);}
	.st2{fill:url(#SVGID_2_);}
	.st3{fill:url(#SVGID_3_);}
	.st4{fill:url(#SVGID_4_);}
	.st5{fill:url(#SVGID_5_);}
	.st6{fill:url(#SVGID_6_);}
	.st7{fill:url(#SVGID_7_);}
	.st8{fill:url(#SVGID_8_);}
	.st9{fill:url(#SVGID_9_);}
	.st10{fill:url(#SVGID_10_);}
	.st11{fill:url(#SVGID_11_);}
	.st12{fill:url(#SVGID_12_);}
	.st13{fill:url(#SVGID_13_);}
	.st14{fill:url(#SVGID_14_);}
	.st15{fill:url(#SVGID_15_);}
	.st16{fill:url(#SVGID_16_);}
	.st17{fill:url(#SVGID_17_);}
	.st18{fill:url(#SVGID_18_);}
	.st19{fill:url(#SVGID_19_);}
	.st20{fill:url(#SVGID_20_);}
	.st21{fill:url(#SVGID_21_);}
	.st22{fill:url(#SVGID_22_);}
	.st23{fill:url(#SVGID_23_);}
	.st24{fill:url(#SVGID_24_);}
	.st25{fill:url(#SVGID_25_);}
	.st26{fill:url(#SVGID_26_);}
	.st27{fill:url(#SVGID_27_);}
	.st28{fill:url(#SVGID_28_);}
	.st29{fill:url(#SVGID_29_);}
	.st30{fill:url(#SVGID_30_);}
	.st31{fill:url(#SVGID_31_);}
	.st32{fill:url(#SVGID_32_);}
	.st33{fill:url(#SVGID_33_);}
	.st34{fill:url(#SVGID_34_);}
	.st35{fill:url(#SVGID_35_);}
	.st36{fill:url(#SVGID_36_);}
	.st37{fill:url(#SVGID_37_);}
	.st38{fill:url(#SVGID_38_);}
	.st39{fill:url(#SVGID_39_);}
	.st40{fill:url(#SVGID_40_);}
	.st41{fill:url(#SVGID_41_);}
	.st42{opacity:0.75;fill:#757575;}
	.st43{fill:url(#SVGID_42_);}
	.st44{fill:url(#SVGID_43_);}
	.st45{fill:url(#SVGID_44_);}
	.st46{fill:url(#SVGID_45_);}
	.st47{fill:#FCFCFE;}
</style>
<g class="st0">
	<linearGradient id="SVGID_1_" gradientUnits="userSpaceOnUse" x1="325.6619" y1="968.0439" x2="1802.5504" y2="968.0439">
		<stop  offset="0" style="stop-color:#DFC3FD"/>
		<stop  offset="0.2473" style="stop-color:#DCC3FD"/>
		<stop  offset="0.4592" style="stop-color:#D1C3FD"/>
		<stop  offset="0.658" style="stop-color:#BFC3FD"/>
		<stop  offset="0.8477" style="stop-color:#A7C4FC"/>
		<stop  offset="1" style="stop-color:#8DC4FC"/>
	</linearGradient>
	<path class="st1" d="M787.7,292.4c207.2-43.3,232.4,183.5,403.4,224c174.6,41.3,349.3-58.7,497.9,84.9
		c156.3,151,130.6,389.9,46.5,570.4c-189.6,407-469.7,572.8-904.3,422.9c-423.3-145.9-623.7-514.6-433.4-942.6
		C461.4,509.2,607.1,330.2,787.7,292.4z"/>
</g>
<g>
	
		<linearGradient id="SVGID_2_" gradientUnits="userSpaceOnUse" x1="-7846.9829" y1="106.6434" x2="-6911.5747" y2="977.0079" gradientTransform="matrix(-0.99 -0.1409 -0.1409 0.99 -6057.7188 -694.6822)">
		<stop  offset="0" style="stop-color:#DFC3FD"/>
		<stop  offset="1" style="stop-color:#8DC4FC"/>
	</linearGradient>
	<path class="st2" d="M1643,1189.5c-4.7,5.7-9.4,11.4-14.4,16.9L437.5,776.2c-1.3-7.9-2.8-15.8-4.4-23.7L1643,1189.5z"/>
	
		<linearGradient id="SVGID_3_" gradientUnits="userSpaceOnUse" x1="-7827.0332" y1="85.2031" x2="-6891.6294" y2="955.5637" gradientTransform="matrix(-0.99 -0.1409 -0.1409 0.99 -6057.7188 -694.6822)">
		<stop  offset="0" style="stop-color:#DFC3FD"/>
		<stop  offset="1" style="stop-color:#8DC4FC"/>
	</linearGradient>
	<path class="st3" d="M1668.8,1154.7c-4,6-8.2,11.8-12.5,17.6L427.7,728.5c-2-8.1-4.1-16.3-6.4-24.4L1668.8,1154.7z"/>
	
		<linearGradient id="SVGID_4_" gradientUnits="userSpaceOnUse" x1="-7676.2642" y1="-76.8322" x2="-6740.8579" y2="793.5303" gradientTransform="matrix(-0.99 -0.1409 -0.1409 0.99 -6057.7188 -694.6822)">
		<stop  offset="0" style="stop-color:#DFC3FD"/>
		<stop  offset="1" style="stop-color:#8DC4FC"/>
	</linearGradient>
	<path class="st4" d="M1743.5,916.9c-0.2,7.3-0.5,14.5-1,21.7L331.4,428.9c-1.9-8-3.7-16-5.4-24L1743.5,916.9z"/>
	
		<linearGradient id="SVGID_5_" gradientUnits="userSpaceOnUse" x1="-7879.1943" y1="141.263" x2="-6943.7861" y2="1011.6275" gradientTransform="matrix(-0.99 -0.1409 -0.1409 0.99 -6057.7188 -694.6822)">
		<stop  offset="0" style="stop-color:#DFC3FD"/>
		<stop  offset="1" style="stop-color:#8DC4FC"/>
	</linearGradient>
	<path class="st5" d="M1578.8,1254.6c-6.2,5.2-12.5,10.3-18.9,15.2L443.6,866.6c0.2-7.3,0.3-14.7,0.2-22L1578.8,1254.6z"/>
	
		<linearGradient id="SVGID_6_" gradientUnits="userSpaceOnUse" x1="-7864.4229" y1="125.3867" x2="-6929.0171" y2="995.7487" gradientTransform="matrix(-0.99 -0.1409 -0.1409 0.99 -6057.7188 -694.6822)">
		<stop  offset="0" style="stop-color:#DFC3FD"/>
		<stop  offset="1" style="stop-color:#8DC4FC"/>
	</linearGradient>
	<path class="st6" d="M1613.1,1222.9c-5.4,5.5-10.9,10.8-16.6,16.1L442.9,822.2c-0.5-7.6-1.3-15.3-2.2-22.9L1613.1,1222.9z"/>
	
		<linearGradient id="SVGID_7_" gradientUnits="userSpaceOnUse" x1="-7804.9082" y1="61.4259" x2="-6869.502" y2="931.7888" gradientTransform="matrix(-0.99 -0.1409 -0.1409 0.99 -6057.7188 -694.6822)">
		<stop  offset="0" style="stop-color:#DFC3FD"/>
		<stop  offset="1" style="stop-color:#8DC4FC"/>
	</linearGradient>
	<path class="st7" d="M1690.7,1118.5c-3.3,6.2-6.8,12.3-10.4,18.3L414.1,679.4c-2.6-8.3-5.2-16.7-8-24.9L1690.7,1118.5z"/>
	
		<linearGradient id="SVGID_8_" gradientUnits="userSpaceOnUse" x1="-7702.9551" y1="-48.1481" x2="-6767.5464" y2="822.2164" gradientTransform="matrix(-0.99 -0.1409 -0.1409 0.99 -6057.7188 -694.6822)">
		<stop  offset="0" style="stop-color:#DFC3FD"/>
		<stop  offset="1" style="stop-color:#8DC4FC"/>
	</linearGradient>
	<path class="st8" d="M1740.6,960c-0.8,7.1-1.8,14.1-2.9,21L344.9,477.9c-2.5-8.2-4.9-16.4-7.2-24.7L1740.6,960z"/>
	
		<linearGradient id="SVGID_9_" gradientUnits="userSpaceOnUse" x1="-7729.5078" y1="-19.6103" x2="-6794.1016" y2="850.7523" gradientTransform="matrix(-0.99 -0.1409 -0.1409 0.99 -6057.7188 -694.6822)">
		<stop  offset="0" style="stop-color:#DFC3FD"/>
		<stop  offset="1" style="stop-color:#8DC4FC"/>
	</linearGradient>
	<path class="st9" d="M1733.7,1001.6c-1.5,6.8-3.1,13.6-4.8,20.3L361.4,528c-2.9-8.4-5.7-16.7-8.5-25.1L1733.7,1001.6z"/>
	
		<linearGradient id="SVGID_10_" gradientUnits="userSpaceOnUse" x1="-7780.9561" y1="35.6831" x2="-6845.5483" y2="906.0469" gradientTransform="matrix(-0.99 -0.1409 -0.1409 0.99 -6057.7188 -694.6822)">
		<stop  offset="0" style="stop-color:#DFC3FD"/>
		<stop  offset="1" style="stop-color:#8DC4FC"/>
	</linearGradient>
	<path class="st10" d="M1708.8,1080.9c-2.7,6.4-5.6,12.7-8.6,19L397.5,629.3c-2.9-8.5-5.9-16.9-9-25.3L1708.8,1080.9z"/>
	
		<linearGradient id="SVGID_11_" gradientUnits="userSpaceOnUse" x1="-7755.6704" y1="8.5079" x2="-6820.2651" y2="878.8699" gradientTransform="matrix(-0.99 -0.1409 -0.1409 0.99 -6057.7188 -694.6822)">
		<stop  offset="0" style="stop-color:#DFC3FD"/>
		<stop  offset="1" style="stop-color:#8DC4FC"/>
	</linearGradient>
	<path class="st11" d="M1723.1,1041.9c-2.1,6.6-4.3,13.2-6.7,19.7l-1337-483c-3.1-8.4-6.1-16.9-9.2-25.4L1723.1,1041.9z"/>
	
		<linearGradient id="SVGID_12_" gradientUnits="userSpaceOnUse" x1="-7891.3213" y1="154.2957" x2="-6955.9146" y2="1024.6586" gradientTransform="matrix(-0.99 -0.1409 -0.1409 0.99 -6057.7188 -694.6822)">
		<stop  offset="0" style="stop-color:#DFC3FD"/>
		<stop  offset="1" style="stop-color:#8DC4FC"/>
	</linearGradient>
	<path class="st12" d="M440.3,909.6c0.8-7.1,1.5-14.2,2.1-21.3l1097.3,396.4c-7,4.9-14.1,9.7-21.4,14.3L440.3,909.6z"/>
	
		<linearGradient id="SVGID_13_" gradientUnits="userSpaceOnUse" x1="-7250.625" y1="-534.2839" x2="-6315.2192" y2="336.0782" gradientTransform="matrix(-0.99 -0.1409 -0.1409 0.99 -6057.7188 -694.6822)">
		<stop  offset="0" style="stop-color:#DFC3FD"/>
		<stop  offset="1" style="stop-color:#8DC4FC"/>
	</linearGradient>
	<path class="st13" d="M395.2,98.8c5.7-5.5,11.7-10.7,18-15.6l452.3,163.4c6,9.4,11.9,18.9,17.8,28.5L395.2,98.8z"/>
	
		<linearGradient id="SVGID_14_" gradientUnits="userSpaceOnUse" x1="-7788.2637" y1="43.536" x2="-6852.8579" y2="913.8981" gradientTransform="matrix(-0.99 -0.1409 -0.1409 0.99 -6057.7188 -694.6822)">
		<stop  offset="0" style="stop-color:#DFC3FD"/>
		<stop  offset="1" style="stop-color:#8DC4FC"/>
	</linearGradient>
	<path class="st14" d="M1659,621.5c7,9.4,13.5,19.1,19.5,29.1l-429.3-155.1c14-2.2,28.1-4.6,42.1-6.9L1659,621.5z"/>
	
		<linearGradient id="SVGID_15_" gradientUnits="userSpaceOnUse" x1="-7305.2124" y1="-475.6133" x2="-6369.8071" y2="394.7487" gradientTransform="matrix(-0.99 -0.1409 -0.1409 0.99 -6057.7188 -694.6822)">
		<stop  offset="0" style="stop-color:#DFC3FD"/>
		<stop  offset="1" style="stop-color:#8DC4FC"/>
	</linearGradient>
	<path class="st15" d="M355.3,150.6l581.6,210.1c4.3,6.3,8.8,12.6,13.3,18.8c2.8,3.8,5.6,7.5,8.5,11.2L345.6,169.1
		C348.6,162.8,351.8,156.6,355.3,150.6z"/>
	
		<linearGradient id="SVGID_16_" gradientUnits="userSpaceOnUse" x1="-7205.0283" y1="-583.2861" x2="-6269.623" y2="287.0758" gradientTransform="matrix(-0.99 -0.1409 -0.1409 0.99 -6057.7188 -694.6822)">
		<stop  offset="0" style="stop-color:#DFC3FD"/>
		<stop  offset="1" style="stop-color:#8DC4FC"/>
	</linearGradient>
	<path class="st16" d="M492.2,45.5c13.8-3.5,27.9-5.8,42.2-6.8L759,119.8c13,11.1,25.3,22.9,37.1,35.5L492.2,45.5z"/>
	
		<linearGradient id="SVGID_17_" gradientUnits="userSpaceOnUse" x1="-7571.3369" y1="-189.6025" x2="-6635.9312" y2="680.7595" gradientTransform="matrix(-0.99 -0.1409 -0.1409 0.99 -6057.7188 -694.6822)">
		<stop  offset="0" style="stop-color:#DFC3FD"/>
		<stop  offset="1" style="stop-color:#8DC4FC"/>
	</linearGradient>
	<path class="st17" d="M1714.7,729.9c2.8,8.2,5.4,16.5,7.7,24.9L320.8,248.5c1.2-6.9,2.6-13.7,4.3-20.5L1714.7,729.9z"/>
	
		<linearGradient id="SVGID_18_" gradientUnits="userSpaceOnUse" x1="-7791.1035" y1="46.5883" x2="-6855.6987" y2="916.9496" gradientTransform="matrix(-0.99 -0.1409 -0.1409 0.99 -6057.7188 -694.6822)">
		<stop  offset="0" style="stop-color:#DFC3FD"/>
		<stop  offset="1" style="stop-color:#8DC4FC"/>
	</linearGradient>
	<path class="st18" d="M1148.5,503.3c18.6,1.1,37.4,0.2,56.2-1.8l488.7,176.5c4.2,8.6,8.2,17.4,11.8,26.3L1148.5,503.3z"/>
	
		<linearGradient id="SVGID_19_" gradientUnits="userSpaceOnUse" x1="-7597.1255" y1="-161.8866" x2="-6661.7207" y2="708.4743" gradientTransform="matrix(-0.99 -0.1409 -0.1409 0.99 -6057.7188 -694.6822)">
		<stop  offset="0" style="stop-color:#DFC3FD"/>
		<stop  offset="1" style="stop-color:#8DC4FC"/>
	</linearGradient>
	<path class="st19" d="M316.1,290.9c0.4-7.1,1-14.3,1.8-21.4l1410.7,509.6c1.8,7.9,3.4,15.9,4.9,23.8L316.1,290.9z"/>
	
		<linearGradient id="SVGID_20_" gradientUnits="userSpaceOnUse" x1="-7775.5435" y1="29.8649" x2="-6840.1372" y2="900.2275" gradientTransform="matrix(-0.99 -0.1409 -0.1409 0.99 -6057.7188 -694.6822)">
		<stop  offset="0" style="stop-color:#DFC3FD"/>
		<stop  offset="1" style="stop-color:#8DC4FC"/>
	</linearGradient>
	<path class="st20" d="M1335.9,482.7c8.7-0.9,17.4-1.5,26.1-1.8c10.3-0.4,20.5-0.2,30.8,0.3l197.3,71.3c8,5.9,15.7,12.1,23.1,18.7
		c6.7,6,13,12.2,19,18.5L1335.9,482.7z"/>
	
		<linearGradient id="SVGID_21_" gradientUnits="userSpaceOnUse" x1="-7275.7241" y1="-507.3047" x2="-6340.3169" y2="363.0588" gradientTransform="matrix(-0.99 -0.1409 -0.1409 0.99 -6057.7188 -694.6822)">
		<stop  offset="0" style="stop-color:#DFC3FD"/>
		<stop  offset="1" style="stop-color:#8DC4FC"/>
	</linearGradient>
	<path class="st21" d="M900.4,303.4c5.8,9.5,11.6,19,17.6,28.4L366.6,132.6c4.1-6,8.6-11.7,13.2-17.3L900.4,303.4z"/>
	
		<linearGradient id="SVGID_22_" gradientUnits="userSpaceOnUse" x1="-7915.8633" y1="180.6717" x2="-6980.4565" y2="1051.0348" gradientTransform="matrix(-0.99 -0.1409 -0.1409 0.99 -6057.7188 -694.6822)">
		<stop  offset="0" style="stop-color:#DFC3FD"/>
		<stop  offset="1" style="stop-color:#8DC4FC"/>
	</linearGradient>
	<path class="st22" d="M1393.5,1364.3c-8.8,4.2-17.7,8.3-26.6,12.5l-950.7-343.4c1.7-6.8,3.3-13.5,4.9-20.3L1393.5,1364.3z"/>
	
		<linearGradient id="SVGID_23_" gradientUnits="userSpaceOnUse" x1="-8039.7759" y1="313.8456" x2="-7104.3691" y2="1184.2085" gradientTransform="matrix(-0.99 -0.1409 -0.1409 0.99 -6057.7188 -694.6822)">
		<stop  offset="0" style="stop-color:#DFC3FD"/>
		<stop  offset="1" style="stop-color:#8DC4FC"/>
	</linearGradient>
	<path class="st23" d="M469.2,1538c-8.4-9.8-16.4-20.1-23.8-30.7l424.5,153.3c-1.5,0.4-3,0.9-4.6,1.3c-11.1,2.9-22.3,5.2-33.6,7
		L469.2,1538z"/>
	
		<linearGradient id="SVGID_24_" gradientUnits="userSpaceOnUse" x1="-7909.3071" y1="173.6231" x2="-6973.8989" y2="1043.9874" gradientTransform="matrix(-0.99 -0.1409 -0.1409 0.99 -6057.7188 -694.6822)">
		<stop  offset="0" style="stop-color:#DFC3FD"/>
		<stop  offset="1" style="stop-color:#8DC4FC"/>
	</linearGradient>
	<path class="st24" d="M1445.7,1339c-8.6,4.3-17.2,8.5-25.9,12.7l-994-359.1c1.5-6.8,3-13.7,4.4-20.5L1445.7,1339z"/>
	
		<linearGradient id="SVGID_25_" gradientUnits="userSpaceOnUse" x1="-7928.3687" y1="194.1168" x2="-6992.9624" y2="1064.4792" gradientTransform="matrix(-0.99 -0.1409 -0.1409 0.99 -6057.7188 -694.6822)">
		<stop  offset="0" style="stop-color:#DFC3FD"/>
		<stop  offset="1" style="stop-color:#8DC4FC"/>
	</linearGradient>
	<path class="st25" d="M1288.9,1414.8c-8.3,4.3-16.5,8.7-24.6,13.2l-868.1-313.6c1.6-6.8,3.3-13.5,4.9-20.3L1288.9,1414.8z"/>
	
		<linearGradient id="SVGID_26_" gradientUnits="userSpaceOnUse" x1="-7921.936" y1="187.1995" x2="-6986.5288" y2="1057.5627" gradientTransform="matrix(-0.99 -0.1409 -0.1409 0.99 -6057.7188 -694.6822)">
		<stop  offset="0" style="stop-color:#DFC3FD"/>
		<stop  offset="1" style="stop-color:#8DC4FC"/>
	</linearGradient>
	<path class="st26" d="M1340.5,1389.3c-8.7,4.2-17.4,8.4-26.1,12.6l-908.3-328.1c1.7-6.7,3.4-13.5,5.1-20.2L1340.5,1389.3z"/>
	
		<linearGradient id="SVGID_27_" gradientUnits="userSpaceOnUse" x1="-7649.6655" y1="-105.42" x2="-6714.2588" y2="764.9428" gradientTransform="matrix(-0.99 -0.1409 -0.1409 0.99 -6057.7188 -694.6822)">
		<stop  offset="0" style="stop-color:#DFC3FD"/>
		<stop  offset="1" style="stop-color:#8DC4FC"/>
	</linearGradient>
	<path class="st27" d="M1742.5,872.4c0.5,7.5,0.8,15,1,22.4L321.8,381.2c-1.2-7.7-2.3-15.5-3.2-23.2L1742.5,872.4z"/>
	
		<linearGradient id="SVGID_28_" gradientUnits="userSpaceOnUse" x1="-7623.2075" y1="-133.8555" x2="-6687.8042" y2="736.5042" gradientTransform="matrix(-0.99 -0.1409 -0.1409 0.99 -6057.7188 -694.6822)">
		<stop  offset="0" style="stop-color:#DFC3FD"/>
		<stop  offset="1" style="stop-color:#8DC4FC"/>
	</linearGradient>
	<path class="st28" d="M1737.4,826.4c1.1,7.7,2.2,15.4,3,23.2L316.5,335.2c-0.4-6.1-0.7-12.2-0.8-18.3c0-1.3,0-2.7,0-4.1
		L1737.4,826.4z"/>
	
		<linearGradient id="SVGID_29_" gradientUnits="userSpaceOnUse" x1="-7227.4814" y1="-559.1539" x2="-6292.0747" y2="311.2087" gradientTransform="matrix(-0.99 -0.1409 -0.1409 0.99 -6057.7188 -694.6822)">
		<stop  offset="0" style="stop-color:#DFC3FD"/>
		<stop  offset="1" style="stop-color:#8DC4FC"/>
	</linearGradient>
	<path class="st29" d="M823.7,187.4c7.1,8.9,13.9,18,20.4,27.2c0.7,1,1.3,2,2,3L434.6,68.9c8.3-4.8,16.8-9.1,25.6-12.8L823.7,187.4z
		"/>
	
		<linearGradient id="SVGID_30_" gradientUnits="userSpaceOnUse" x1="-7183.6982" y1="-606.2059" x2="-6248.2915" y2="264.1571" gradientTransform="matrix(-0.99 -0.1409 -0.1409 0.99 -6057.7188 -694.6822)">
		<stop  offset="0" style="stop-color:#DFC3FD"/>
		<stop  offset="1" style="stop-color:#8DC4FC"/>
	</linearGradient>
	<path class="st30" d="M608.6,43.5c16.5,3.3,32.7,7.9,48.2,14c11.7,4.6,23.1,9.9,34.1,15.8L608.6,43.5z"/>
	
		<linearGradient id="SVGID_31_" gradientUnits="userSpaceOnUse" x1="-7345.5767" y1="-432.2321" x2="-6410.1699" y2="438.131" gradientTransform="matrix(-0.99 -0.1409 -0.1409 0.99 -6057.7188 -694.6822)">
		<stop  offset="0" style="stop-color:#DFC3FD"/>
		<stop  offset="1" style="stop-color:#8DC4FC"/>
	</linearGradient>
	<path class="st31" d="M986.8,422.8c13.3,13.8,27.6,26.5,43,37.6L330.6,207.9c2.1-6.6,4.3-13.2,6.8-19.6L986.8,422.8z"/>
	
		<linearGradient id="SVGID_32_" gradientUnits="userSpaceOnUse" x1="-8055.707" y1="330.9675" x2="-7120.3003" y2="1201.3307" gradientTransform="matrix(-0.99 -0.1409 -0.1409 0.99 -6057.7188 -694.6822)">
		<stop  offset="0" style="stop-color:#DFC3FD"/>
		<stop  offset="1" style="stop-color:#8DC4FC"/>
	</linearGradient>
	<path class="st32" d="M783.7,1673.7c-23.9,0.9-47.8-0.4-71.5-3.7l-154.7-55.9c-7.8-4.9-15.5-10-23-15.4
		c-11.3-8.3-22.2-17.2-32.5-26.7L783.7,1673.7z"/>
	
		<linearGradient id="SVGID_33_" gradientUnits="userSpaceOnUse" x1="-8023.6245" y1="296.4868" x2="-7088.2173" y2="1166.8502" gradientTransform="matrix(-0.99 -0.1409 -0.1409 0.99 -6057.7188 -694.6822)">
		<stop  offset="0" style="stop-color:#DFC3FD"/>
		<stop  offset="1" style="stop-color:#8DC4FC"/>
	</linearGradient>
	<path class="st33" d="M427,1478.6c-5.2-8.9-10-18-14.5-27.3l519.3,187.6c-9.6,4.2-19.3,8-29.1,11.6L427,1478.6z"/>
	
		<linearGradient id="SVGID_34_" gradientUnits="userSpaceOnUse" x1="-7993.1973" y1="263.7838" x2="-7057.792" y2="1134.1454" gradientTransform="matrix(-0.99 -0.1409 -0.1409 0.99 -6057.7188 -694.6822)">
		<stop  offset="0" style="stop-color:#DFC3FD"/>
		<stop  offset="1" style="stop-color:#8DC4FC"/>
	</linearGradient>
	<path class="st34" d="M1029,1585.7c-7.4,4.8-14.9,9.4-22.4,14l-622-224.7c-2-7.9-3.8-15.9-5.3-24L1029,1585.7z"/>
	
		<linearGradient id="SVGID_35_" gradientUnits="userSpaceOnUse" x1="-8007.9849" y1="279.681" x2="-7072.5786" y2="1150.0435" gradientTransform="matrix(-0.99 -0.1409 -0.1409 0.99 -6057.7188 -694.6822)">
		<stop  offset="0" style="stop-color:#DFC3FD"/>
		<stop  offset="1" style="stop-color:#8DC4FC"/>
	</linearGradient>
	<path class="st35" d="M983.1,1613.3c-8.2,4.6-16.4,8.9-24.8,13.1L400.9,1425c-3.3-8.4-6.4-16.8-9.2-25.4L983.1,1613.3z"/>
	
		<linearGradient id="SVGID_36_" gradientUnits="userSpaceOnUse" x1="-7901.4321" y1="165.1629" x2="-6966.0234" y2="1035.5275" gradientTransform="matrix(-0.99 -0.1409 -0.1409 0.99 -6057.7188 -694.6822)">
		<stop  offset="0" style="stop-color:#DFC3FD"/>
		<stop  offset="1" style="stop-color:#8DC4FC"/>
	</linearGradient>
	<path class="st36" d="M434.1,951.5c1.2-6.9,2.4-13.9,3.4-20.8l1057.7,382.1c-2.9,1.7-5.8,3.3-8.7,5c-5.2,2.8-10.3,5.6-15.5,8.4
		L434.1,951.5z"/>
	
		<linearGradient id="SVGID_37_" gradientUnits="userSpaceOnUse" x1="-7935.9092" y1="202.2203" x2="-7000.5015" y2="1072.5842" gradientTransform="matrix(-0.99 -0.1409 -0.1409 0.99 -6057.7188 -694.6822)">
		<stop  offset="0" style="stop-color:#DFC3FD"/>
		<stop  offset="1" style="stop-color:#8DC4FC"/>
	</linearGradient>
	<path class="st37" d="M1240.5,1441.4c-7.6,4.5-15.2,9.1-22.7,13.9L387,1155.2c1.4-6.8,2.9-13.7,4.4-20.5L1240.5,1441.4z"/>
	
		<linearGradient id="SVGID_38_" gradientUnits="userSpaceOnUse" x1="-7944.9507" y1="211.9364" x2="-7009.5464" y2="1082.2972" gradientTransform="matrix(-0.99 -0.1409 -0.1409 0.99 -6057.7188 -694.6822)">
		<stop  offset="0" style="stop-color:#DFC3FD"/>
		<stop  offset="1" style="stop-color:#8DC4FC"/>
	</linearGradient>
	<path class="st38" d="M1196,1469.5c-7.1,4.7-14.2,9.5-21.2,14.4l-795.4-287.3c1.1-6.9,2.2-13.9,3.5-20.8L1196,1469.5z"/>
	
		<linearGradient id="SVGID_39_" gradientUnits="userSpaceOnUse" x1="-7955.3979" y1="223.1615" x2="-7019.9927" y2="1093.5229" gradientTransform="matrix(-0.99 -0.1409 -0.1409 0.99 -6057.7188 -694.6822)">
		<stop  offset="0" style="stop-color:#DFC3FD"/>
		<stop  offset="1" style="stop-color:#8DC4FC"/>
	</linearGradient>
	<path class="st39" d="M1154,1498.5c-6.9,4.9-13.7,9.7-20.6,14.6l-759.1-274.2c0.6-7.1,1.3-14.2,2.2-21.3L1154,1498.5z"/>
	
		<linearGradient id="SVGID_40_" gradientUnits="userSpaceOnUse" x1="-7966.916" y1="235.542" x2="-7031.5093" y2="1105.9049" gradientTransform="matrix(-0.99 -0.1409 -0.1409 0.99 -6057.7188 -694.6822)">
		<stop  offset="0" style="stop-color:#DFC3FD"/>
		<stop  offset="1" style="stop-color:#8DC4FC"/>
	</linearGradient>
	<path class="st40" d="M1113,1527.8c-6.8,4.9-13.7,9.8-20.5,14.7l-719.8-260c-0.1-7.3,0-14.7,0.3-22L1113,1527.8z"/>
	
		<linearGradient id="SVGID_41_" gradientUnits="userSpaceOnUse" x1="-7979.4316" y1="248.9896" x2="-7044.0264" y2="1119.3511" gradientTransform="matrix(-0.99 -0.1409 -0.1409 0.99 -6057.7188 -694.6822)">
		<stop  offset="0" style="stop-color:#DFC3FD"/>
		<stop  offset="1" style="stop-color:#8DC4FC"/>
	</linearGradient>
	<path class="st41" d="M1071.7,1557c-7,4.9-14,9.7-21.1,14.4l-675.1-243.8c-0.9-7.6-1.7-15.2-2.2-22.8L1071.7,1557z"/>
</g>
<path class="st42" d="M1353.3,1163.4c-2,0-4-0.8-5.5-2.3c-3.1-3.1-3.1-8,0-11.1l365.7-365.7c3.1-3.1,8-3.1,11.1,0
	c3.1,3.1,3.1,8,0,11.1l-365.7,365.7C1357.3,1162.7,1355.3,1163.4,1353.3,1163.4z"/>
<g>
	<linearGradient id="SVGID_42_" gradientUnits="userSpaceOnUse" x1="75.0188" y1="860.9603" x2="1551.9075" y2="860.9603">
		<stop  offset="0" style="stop-color:#DFC3FD"/>
		<stop  offset="1" style="stop-color:#8DC4FC"/>
	</linearGradient>
	<path class="st43" d="M1089.9,1536.6c-207.2,43.3-232.4-183.5-403.4-224c-174.6-41.3-349.3,58.7-497.9-84.9
		C32.3,1076.7,58,837.8,142.1,657.2c189.6-407,469.7-572.8,904.3-422.9c423.3,145.9,623.7,514.6,433.4,942.6
		C1416.2,1319.8,1270.5,1498.8,1089.9,1536.6z"/>
</g>
<path class="st42" d="M325.7,127.6c-26,0-47.2-21.2-47.2-47.2s21.2-47.2,47.2-47.2c26,0,47.2,21.2,47.2,47.2
	S351.7,127.6,325.7,127.6z M325.7,46.6c-18.6,0-33.7,15.1-33.7,33.7s15.1,33.7,33.7,33.7c18.6,0,33.7-15.1,33.7-33.7
	S344.3,46.6,325.7,46.6z"/>
<g>
	<linearGradient id="SVGID_43_" gradientUnits="userSpaceOnUse" x1="1284.7692" y1="70.7929" x2="1447.2974" y2="70.7929">
		<stop  offset="0" style="stop-color:#DFC3FD"/>
		<stop  offset="1" style="stop-color:#8DC4FC"/>
	</linearGradient>
	<path class="st44" d="M1350.6,2.4c25.6-5.7,52.8-1.8,72.1,17.4c9.4,9.4,15.9,21.5,19.7,34.3c5.4,18.1,7.2,39.5,0.5,57.5
		c-4.5,11.9-13.3,22.5-25.1,27.4c-11.8,4.8-26.5,3-35.6-5.9c-13.7-13.5-11.9-38.3-27-50.1c-6.6-5.1-15.2-6.7-23.5-7.3
		c-8.3-0.5-16.7-0.1-24.9-1.9c-8.1-1.7-16.3-6.1-20-13.5c-3.7-7.4-2.3-16.6,1.9-23.7c4.2-7.1,10.9-12.5,17.9-16.9
		c13-8.3,28.7-13.9,43.8-17.3C1350.6,2.4,1350.6,2.4,1350.6,2.4z"/>
</g>
<linearGradient id="SVGID_44_" gradientUnits="userSpaceOnUse" x1="68.6656" y1="1379.176" x2="122.4604" y2="1379.176">
	<stop  offset="0" style="stop-color:#DFC3FD"/>
	<stop  offset="1" style="stop-color:#8DC4FC"/>
</linearGradient>
<circle class="st45" cx="95.6" cy="1379.2" r="26.9"/>
<path class="st42" d="M104.4,519.2l33.6-33.6c2.5-2.5,2.5-6.4,0-8.9c-2.5-2.5-6.4-2.5-8.9,0l-33.6,33.6l-33.6-33.6
	c-2.5-2.5-6.4-2.5-8.9,0c-2.5,2.5-2.5,6.4,0,8.9l33.6,33.6L53,552.8c-2.5,2.5-2.5,6.4,0,8.9c1.2,1.2,2.8,1.8,4.4,1.8
	c1.6,0,3.2-0.6,4.4-1.8L95.6,528l33.6,33.6c1.2,1.2,2.8,1.8,4.4,1.8c1.6,0,3.2-0.6,4.4-1.8c2.5-2.5,2.5-6.4,0-8.9L104.4,519.2z"/>
<path class="st42" d="M1548.8,1619.4C1548.8,1619.4,1548.8,1619.4,1548.8,1619.4l-55.9-0.7c-2.1,0-4.1-0.9-5.5-2.4
	c-1.5-1.5-2.3-3.5-2.2-5.6l0.6-44.9l-49.4-0.6c-4.3-0.1-7.8-3.6-7.7-7.9l0.5-40.4l-46.4-0.6c-2.1,0-4.1-0.9-5.5-2.4
	c-1.5-1.5-2.3-3.5-2.2-5.6l0.7-54.3c0.1-4.3,3.6-7.7,7.8-7.7c0,0,0.1,0,0.1,0c4.3,0.1,7.8,3.6,7.7,7.9l-0.6,46.4l46.4,0.6
	c4.3,0.1,7.8,3.6,7.7,7.9l-0.5,40.4l49.4,0.6c2.1,0,4.1,0.9,5.5,2.4c1.5,1.5,2.3,3.5,2.2,5.6l-0.6,44.9l47.9,0.6
	c4.3,0.1,7.8,3.6,7.7,7.9C1556.6,1616,1553.1,1619.4,1548.8,1619.4z"/>
<linearGradient id="SVGID_45_" gradientUnits="userSpaceOnUse" x1="936.4316" y1="1725.6239" x2="1052.5377" y2="1725.6239">
	<stop  offset="0" style="stop-color:#DFC3FD"/>
	<stop  offset="1" style="stop-color:#8DC4FC"/>
</linearGradient>
<path class="st46" d="M1046.9,1676.1c2.4,0.7,4.4,2.5,5.2,4.9c0.8,2.4,0.4,4.9-1.1,7l-61,83.4c-1.2,1.7-4.9,5.4-12,3.4
	c-15.2-4.3-40.9-34.7-41.6-49.3c-0.2-4.8,2-8.5,6-10.1l99.6-39C1043.6,1675.8,1045.3,1675.7,1046.9,1676.1z"/>
<path class="st42" d="M7.8,1192.2c-2,0-4-0.8-5.5-2.3c-3.1-3-3.1-8-0.1-11.1l264.1-267.1c3-3.1,8-3.1,11.1-0.1c3.1,3,3.1,8,0.1,11.1
	L13.4,1189.9C11.9,1191.4,9.9,1192.2,7.8,1192.2z"/>
<path class="st42" d="M1423.6,1033.1c-2,0-4-0.8-5.5-2.3c-3.1-3.1-3.1-8,0-11.1l385-385c3.1-3.1,8-3.1,11.1,0c3.1,3.1,3.1,8,0,11.1
	l-385,385C1427.6,1032.3,1425.6,1033.1,1423.6,1033.1z"/>
<g>
	<g>
		<path class="st47" d="M937.1,1024.2H697.4v-19.3c-0.1-16.4-4.1-46-14.7-74.8c-4.4-12-12.3-25-21.4-40.1
			c-21-34.7-47.2-78-51.1-140.8c-3.2-50.9,15.5-100.7,52.6-140.2c40.5-43,96.7-67.7,154.5-67.7c57.8,0,114.1,24.7,154.5,67.7
			c37.1,39.5,55.8,89.3,52.6,140.1c-3.9,62.8-30.1,106.1-51.1,140.8c-9.1,15.1-17,28.1-21.5,40.1c-10.6,28.8-14.6,58.3-14.7,74.9
			V1024.2z M720.3,1001.2h193.8c0.7-19.6,5.1-49.4,16.1-79c5.2-14.1,14-28.6,23.3-44c19.7-32.6,44.2-73.2,47.8-130.4
			c2.8-44.5-13.7-88.1-46.4-123c-36.1-38.4-86.3-60.5-137.7-60.5c-51.4,0-101.6,22-137.7,60.4c-32.7,34.8-49.2,78.5-46.5,123
			c3.6,57.2,28.1,97.8,47.8,130.4c9.3,15.4,18.1,30,23.3,44C715.2,951.8,719.7,981.7,720.3,1001.2z"/>
	</g>
	<g>
		<path class="st47" d="M817.3,1174.1c-66.1,0-119.9-53.8-119.9-119.9v-41.6c0-6.4,5.1-11.5,11.5-11.5c6.4,0,11.5,5.1,11.5,11.5
			v41.6c0,53.4,43.5,96.9,96.9,96.9c53.4,0,96.9-43.5,96.9-96.9v-41.6c0-6.4,5.1-11.5,11.5-11.5c6.3,0,11.5,5.1,11.5,11.5v41.6
			C937.2,1120.4,883.4,1174.1,817.3,1174.1z"/>
	</g>
	<g>
		<path class="st47" d="M884.8,1069.9H749.6c-6.3,0-11.5-5.2-11.5-11.5c0-6.4,5.1-11.5,11.5-11.5h135.2c6.3,0,11.5,5.2,11.5,11.5
			C896.3,1064.7,891.2,1069.9,884.8,1069.9z"/>
	</g>
	<g>
		<path class="st47" d="M865.5,1111.1h-96.6c-6.4,0-11.5-5.1-11.5-11.5c0-6.4,5.1-11.5,11.5-11.5h96.6c6.4,0,11.5,5.1,11.5,11.5
			C877,1105.9,871.9,1111.1,865.5,1111.1z"/>
	</g>
	<g>
		<path class="st47" d="M1143.8,751.5H1077c-6.3,0-11.5-5.1-11.5-11.5c0-6.4,5.1-11.5,11.5-11.5h66.8c6.4,0,11.5,5.1,11.5,11.5
			C1155.3,746.3,1150.2,751.5,1143.8,751.5z"/>
	</g>
	<g>
		<path class="st47" d="M557.4,751.5h-66.8c-6.3,0-11.5-5.1-11.5-11.5c0-6.4,5.1-11.5,11.5-11.5h66.8c6.3,0,11.5,5.1,11.5,11.5
			C568.9,746.3,563.7,751.5,557.4,751.5z"/>
	</g>
	<g>
		<path class="st47" d="M817.2,505c-6.4,0-11.5-5.1-11.5-11.5v-66.8c0-6.4,5.1-11.5,11.5-11.5c6.4,0,11.5,5.1,11.5,11.5v66.8
			C828.7,499.9,823.6,505,817.2,505z"/>
	</g>
	<g>
		<path class="st47" d="M1056.7,992.3c-2.9,0-5.9-1.1-8.1-3.4l-47.2-47.2c-4.5-4.5-4.5-11.8,0-16.3c4.5-4.5,11.8-4.5,16.3,0
			l47.2,47.2c4.5,4.5,4.5,11.8,0,16.3C1062.6,991.2,1059.6,992.3,1056.7,992.3z"/>
	</g>
	<g>
		<path class="st47" d="M640.7,574c-2.9,0-5.9-1.1-8.1-3.4l-47.3-47.2c-4.5-4.5-4.5-11.8,0-16.3c4.5-4.5,11.8-4.5,16.3,0l47.3,47.2
			c4.5,4.5,4.5,11.8,0,16.3C646.6,572.8,643.6,574,640.7,574z"/>
	</g>
	<g>
		<path class="st47" d="M992.8,574c-2.9,0-5.9-1.1-8.1-3.4c-4.5-4.5-4.5-11.8,0-16.3l47.2-47.2c4.5-4.5,11.8-4.5,16.3,0
			c4.5,4.5,4.5,11.8,0,16.3l-47.2,47.2C998.6,572.8,995.7,574,992.8,574z"/>
	</g>
	<g>
		<path class="st47" d="M580.1,992.3c-2.9,0-5.9-1.1-8.1-3.4c-4.5-4.5-4.5-11.8,0-16.3l47.2-47.2c4.5-4.5,11.8-4.5,16.3,0
			c4.5,4.5,4.5,11.8,0,16.3L588.2,989C586,991.2,583,992.3,580.1,992.3z"/>
	</g>
	<g>
		<path class="st47" d="M837.3,1016.5c-0.2-1.4-5.1-34.2-5.6-72.3c-0.1-7.5-0.2-46.5,5.2-86.4c-11.3,0.1-28,0.1-39.4,0
			c5.4,39.9,5.3,78.9,5.2,86.4c-0.4,38.1-5.3,70.9-5.6,72.3l-22.7-3.4c0-0.3,4.9-32.7,5.3-69.1c0.3-28.6-1.6-60.1-5.7-87.6
			c-10.4-1.8-22.9-6-38.1-16.2c-17.5-11.7-28-36.9-23.1-54.9c3.6-13.3,14.6-21.5,30-22.4c8.5-0.7,17.3,2.7,24.4,9.5
			c12.9,12.3,21.1,36.2,26.4,62.5c11.8,0.1,35.2,0.1,47,0c5.2-26.2,13.4-50.2,26.4-62.5c7.1-6.8,15.6-10.2,24.4-9.5
			c15.4,0.9,26.4,9.1,30,22.4c4.9,18-5.6,43.2-23.1,54.9c-15.2,10.2-27.6,14.4-38.1,16.2c-4.1,27.4-6,59-5.7,87.6
			c0.4,36.4,5.3,68.8,5.3,69.1L837.3,1016.5z M744.8,785.7c-0.2,0-0.4,0-0.5,0c-7.9,0.5-8.8,3.9-9.2,5.5
			c-2.3,8.6,4.6,23.6,13.7,29.8c7.9,5.3,14.7,8.5,20.7,10.5c-4.5-19.9-10.5-35.5-18-42.6C748.6,786.2,746.4,785.7,744.8,785.7z
			 M889.6,785.7c-1.6,0-3.8,0.5-6.7,3.2c-7.4,7.1-13.5,22.6-18,42.6c6-2,12.8-5.2,20.7-10.5c9.1-6.1,16.1-21.2,13.7-29.8
			c-0.4-1.6-1.4-5-9.2-5.5C890,785.7,889.8,785.7,889.6,785.7z"/>
	</g>
</g>
</svg>
