<?xml version="1.0" encoding="utf-8"?>
<!-- Generator: Adobe Illustrator 23.1.1, SVG Export Plug-In . SVG Version: 6.00 Build 0)  -->
<svg version="1.1" id="Layer_1" xmlns="http://www.w3.org/2000/svg" xmlns:xlink="http://www.w3.org/1999/xlink" x="0px" y="0px"
	 viewBox="0 0 177 135.3" style="enable-background:new 0 0 177 135.3;" xml:space="preserve">
<g>
	<g>
		<path d="M0.8,10.5c-1.5-5,2-9.5,6.4-9.5c3.2,0,6.1,1.8,7.1,5.3l13.4,46.4L41.1,6.3C42.1,2.8,45,1,48.2,1c4.5,0,7.9,4.5,6.4,9.5
			L36.4,71c-1.4,4.5-4.5,6.6-8.6,6.6c-4.2,0-7.2-2.1-8.6-6.6L0.8,10.5z"/>
		<path d="M63.3,8.4c0-4,3.3-7.4,7.4-7.4c4,0,7.4,3.3,7.4,7.4v60.8c0,4-3.3,7.4-7.4,7.4c-4,0-7.4-3.3-7.4-7.4V8.4z"/>
		<path d="M161.8,20.2c0-2.5-2.1-4.6-4.6-4.6s-4.6,2.1-4.6,4.6v38.3c0,10.7-8.6,19-19.4,19c-10.7,0-19.4-8.2-19.4-19V20.2
			c0-2.5-2.1-4.6-4.6-4.6c-2.5,0-4.6,2.1-4.6,4.6v48.9c0,4-3.3,7.4-7.4,7.4c-4,0-7.4-3.3-7.4-7.4V19c0-10.7,8.6-19,19.4-19
			c10.7,0,19.4,8.2,19.4,19v38.3c0,2.5,2.1,4.6,4.6,4.6s4.6-2.1,4.6-4.6V19c0-10.7,8.6-19,19.4-19c10.7,0,19.4,8.2,19.4,19v50.2
			c0,4-3.3,7.4-7.4,7.4c-4,0-7.4-3.3-7.4-7.4V20.2z"/>
	</g>
	<g>
		<g>
			<path d="M27,131.6c0,0.6,0,0.7-0.5,0.7H2.4c-0.4,0-0.4-0.1-0.4-0.5V91.2c0-0.4,0.1-0.5,0.4-0.5h2.7c0.3,0,0.3,0.1,0.3,0.4v38.1
				h21.1c0.5,0,0.6,0,0.6,0.6V131.6z"/>
			<path d="M26.5,134.2H2.4c-1.5,0-2.4-1-2.4-2.5V91.2c0-1.7,1.2-2.5,2.4-2.5h2.7c0.4,0,2.3,0.1,2.3,2.4v36.1h19.1
				c1.6,0,2.5,0.9,2.5,2.5v1.8C29,133.9,27.5,134.2,26.5,134.2z"/>
		</g>
		<g>
			<path d="M126.6,121.1c0,7.7-4.7,11.2-13.5,11.2H94.4c-0.4,0-0.5-0.2-0.5-0.6V91.3c0-0.5,0.2-0.6,0.6-0.6h15.9
				c8,0,13.9,3.9,13.9,10.8c0,5.5-2.4,8.5-6,9.5C122.9,111.7,126.6,115.9,126.6,121.1z M120.8,101.7c0-4.7-3.7-8-10-8H97.3v16.1
				h14.5C118.1,109.8,120.8,107.2,120.8,101.7z M123.1,121.1c0-4.9-4.1-8.3-10.5-8.3H97.3v16.4h15.3
				C119.6,129.2,123.1,126.5,123.1,121.1z"/>
			<path d="M113.1,134.2H94.4c-1.4,0-2.5-1-2.5-2.5V91.3c0-1.5,1-2.6,2.6-2.6h15.9c9.6,0,15.8,5,15.8,12.8c0,4.6-1.5,7.4-3.4,9.1
				c3.5,2.1,5.8,6,5.8,10.4C128.6,127.1,125.9,134.2,113.1,134.2z M99.3,127.2h13.4c7.5,0,8.5-3.3,8.5-6.2c0-3.8-3.4-6.3-8.6-6.3
				H99.3V127.2z M99.3,107.9h12.6c5.8,0,7-2.3,7-6.1c0-3.7-3.1-6-8-6H99.3V107.9z"/>
		</g>
		<g>
			<path d="M175,121.4c0,8-5.6,11.9-15,11.9c-8,0-14-3.4-16.2-9.1c-0.4-0.9-0.2-0.9,0.2-1.1l2.3-0.8c0.6-0.2,0.6-0.1,0.7,0.3
				c1.7,4.8,6.5,7.7,12.8,7.7c7.8,0,11.9-2.9,11.9-8.2c0-5.6-4.3-7.5-11.4-9.1c-0.6-0.1-1.8-0.4-2.3-0.5c-7.8-1.8-13-4.6-13-11.4
				c0-6.7,5.1-11.3,14.7-11.3c8.3,0,12.9,4.3,14.7,9.3c0.2,0.6,0.2,0.7-0.4,1l-1.8,0.8c-0.4,0.2-0.6,0.1-0.7-0.2
				c-1.7-4.7-5.5-7.8-11.9-7.8c-7.9,0-11.2,3.4-11.2,7.9c0,5.1,4.4,7.3,10.7,8.6c0.6,0.1,1.7,0.4,2.3,0.5
				C169,111.5,175,114.3,175,121.4z"/>
			<path d="M160.1,135.3c-8.9,0-15.5-3.8-18.1-10.4c-0.2-0.6-0.6-1.4-0.2-2.4c0.4-0.9,1.2-1.2,1.5-1.3l2.4-0.8c0.3-0.1,1.2-0.4,2,0
				c0.8,0.4,1.1,1.2,1.2,1.5c1.4,4,5.5,6.4,11,6.4c6.6,0,9.9-2.1,9.9-6.2c0-3.8-2.4-5.5-9.9-7.2c-0.3-0.1-0.7-0.1-1.1-0.2
				c-0.5-0.1-0.9-0.2-1.2-0.3c-6.8-1.5-14.5-4.5-14.5-13.3c0-8.2,6.4-13.3,16.6-13.3c8.1,0,14.1,3.8,16.5,10.6
				c0.7,2.1-0.6,3.1-1.4,3.4l-1.8,0.8c-0.7,0.4-1.3,0.4-2,0.2c-0.6-0.2-1.1-0.7-1.4-1.4c-1.6-4.5-4.9-6.6-10.1-6.6
				c-4.2,0-9.3,1-9.3,5.9c0,2.5,1.1,5,9.2,6.7c0.6,0.1,1.7,0.4,2.3,0.5c6.6,1.4,15.2,4.3,15.2,13.5
				C177,130.2,170.8,135.3,160.1,135.3z"/>
		</g>
		<g>
			<path d="M79.5,131.5c-2.5-5.2-16.4-33.7-20.2-41.4c-0.1-0.2-0.2-0.4-0.5-0.4s-0.4,0.2-0.5,0.4c-3.9,7.7-18,36.7-20.2,41.3
				c-0.4,0.7-0.2,0.9,0.5,0.9h2.1c0.6,0,0.8-0.2,1-0.7c0,0,11.8-24.8,15.6-32.9c0.4-0.9,1.2-2.6,1.3-2.6s0.9,1.6,1.3,2.6
				c3.9,8,15.7,33.1,15.7,33.1c0.2,0.4,0.3,0.5,0.7,0.5h2.6C79.7,132.3,79.7,132,79.5,131.5z"/>
			<path d="M79.1,134.2h-2.6c-1.2,0-2-0.5-2.5-1.7c-0.1-0.2-11.1-23.4-15.2-32.2c-4.2,8.9-15.1,31.8-15.2,32c-0.3,0.8-1,1.9-2.8,1.9
				h-2.1c-0.5,0-1.7,0-2.3-1.1c-0.7-1.1-0.1-2.2,0.1-2.6c2-4.2,16.3-33.5,20.2-41.3c0.6-1.3,1.6-1.5,2.2-1.5s1.6,0.3,2.2,1.5
				c3.7,7.5,17.7,36.1,20.3,41.5c0.6,1.1,0.3,2,0,2.5C81,133.6,80.4,134.2,79.1,134.2z M77.2,131.2l-1.3,0.7L77.2,131.2
				C77.2,131.2,77.2,131.2,77.2,131.2z M58.8,93.5c-0.1,0.2-0.2,0.4-0.3,0.6c0.2,0,0.4,0,0.6,0C59,93.9,58.9,93.7,58.8,93.5z
				 M59.2,89.9l-1.7,0.9c0,0,0,0.1,0.1,0.1L59.2,89.9z"/>
		</g>
	</g>
</g>
</svg>
