<?xml version="1.0" encoding="utf-8"?>
<!-- Generator: Adobe Illustrator 23.1.1, SVG Export Plug-In . SVG Version: 6.00 Build 0)  -->
<svg version="1.1" id="_x2014_ÎÓÈ_x5F_1" xmlns="http://www.w3.org/2000/svg" xmlns:xlink="http://www.w3.org/1999/xlink"
	 x="0px" y="0px" viewBox="0 0 1003.5 400" style="enable-background:new 0 0 1003.5 400;" xml:space="preserve">
<style type="text/css">
	.st0{fill:#C2E7DB;}
	.st1{fill:#FF4767;}
	.st2{fill:#FFFFFF;}
	.st3{fill:#2F3649;}
	.st4{opacity:0.9;fill:#FFFF00;}
</style>
<path class="st0" d="M0,0c0,122.5,0,266.1,0,400h1003.5c0-133.9,0-277.5,0-400L0,0z"/>
<path class="st1" d="M411.3,159.3c0-50,40.5-90.5,90.5-90.5c50,0,90.5,40.5,90.5,90.5c0,50-40.5,90.5-90.5,90.5
	C451.8,249.8,411.3,209.3,411.3,159.3z"/>
<g>
	<path class="st2" d="M833.5,400c1-0.3,1.9-0.7,2.8-1.1c3.1-0.9,5.9-0.3,8.6,1.1H833.5z"/>
	<path class="st2" d="M816.5,400c-4.6-3-8.9-6.5-13.3-9.8c-11.4-8.6-16.8-22.3-26.1-32.8c-3.8-4.6-9.4-8.2-15.6-7.7
		c-4.3,0.7-8.6-0.5-12.3-2.7c-6.2-3.6-12.3-7.5-18.7-10.7c-5.4-2.8-11.1-5.5-15.5-9.8c-4.9-4.3-9.1-9.7-15.2-12.5
		c-3.1-1.6-6.9-1.4-9.9,0.2c-5.5,2.9-8.9,8.7-14.8,11c-6.2,2.2-13,2.1-19.5,2.2c-5.3,0.1-10.9-1.5-15-4.7c13.5-21.3,18.2-46.4,26-70
		c3.1-8.2,6.3-16.9,13.5-22.4c6.1-3.5,13.3-4.4,20.2-4.3c3,0.8,6.1,1.6,8.9,2.9c-8.6-2.1-16.1,3.9-22.7,8.4
		c-7.4,4.9-10.7,13.7-13.5,21.8c-6.4,21.4-9.6,43.6-15.1,65.2c0,0.7-1.2,2.8,0.6,2.2c5.3-0.5,10.7-1.7,15.5-4.1
		c6.1-3.1,10.1-9.1,16.1-12.2c3.3-1.8,7.4-2.3,11-0.9c5.2,2,9.1,6.2,13.4,9.5c6.3,5.1,13.8,8.2,21,11.9c7,3.8,13.9,8.5,22,9.3
		c5.4,0.6,10.6,3,14.6,6.6c8.8,7.7,13.6,18.7,20.6,27.9c8.3,10.2,19,18.3,30.1,25.3c0.2,0.1,0.3,0.2,0.5,0.3H816.5z"/>
	<path class="st2" d="M92.5,400c0.4-0.5,0.8-1,1.2-1.5c5.3-6.7,10.4-13.6,14.9-21c4.1-6.7,7.8-13.8,12.5-20.1
		c2.1-2.7,4.5-5.3,7.8-6.6c4.8-1.8,10-0.8,14.9-2.1c6.5-1.6,13.3-2,20-1.3c4.7,0.6,9.3-0.9,13.5-2.7c-3.1-9.5-7.4-18.7-13.9-26.4
		c2,1.4,3.8,3.1,5.6,4.7c5.3,5.9,9,13.1,12.5,20.2c4.8-1.4,8,2.6,11.1,5.4c-1.5-2.2-3.7-3.8-5.8-5.4c-3.5-5.2-7.2-10.3-11.4-15
		c2.4,1.5,4.5,3.4,6.9,4.9c2.7,2.6,5.7,4.9,8.1,7.8c4.7,5.1,8.9,11.5,15.9,13.6c2.3,0.6,4.3,1.9,6.5,2.7c4.7-1.1,9.1-3.3,12.9-6.1
		c7.1-5.5,10.7-14,15.8-21.1c4.3-5.8,8.8-11.6,14.9-15.6c2.9-2,6.5-2.7,9.5-4.5c5.2-3.4,9.3-8.1,14.1-12.1
		c6.7-6.1,14.7-10.5,21.6-16.5c5.1-4.3,9.9-10.5,17.1-10.7c8,0.8,11.6,9.8,19.2,11.8c7.2,1.9,15.1,1.4,22.2-0.8
		c8.8-2.7,13.9-12.4,23.5-13.2c6.7-0.7,11.6,4.6,16.6,8.2c6.7,5,15.8,5.4,23.7,3.7c6.7-1.6,12.1-6.1,16.5-11.2
		c7.6-8.5,14.2-18.5,24.6-23.9c-2.8-5.3-4.7-11-7.9-16.1c-3.3-4.6-6.5-9.6-11-13.1c-3.2-2-7.5-0.2-10.7-2.2c-5.1-3-8.8-7.9-14-10.7
		c-4.7-2.8-10.2-3.1-15.4-4.2c-3.2-0.5-5.9,1.9-7.9,4.1c-3,3.5-5.7,7.3-8.1,11.2c4.6-2.7,9.9-0.5,13.1,3.2
		c8.2,8.2,14.5,18.1,20.5,28c2.8,4.6,5.9,9.2,10.8,11.8c-3.8-1-6.7-4-9.4-6.7c-7.6-8.5-15.3-17.1-22.9-25.6c-3.2-3.7-8-7.2-13.1-5.4
		c-8.4,3-13,11.3-19.1,17.2c5.2-6.4,10-13.3,15.8-19.2c4.4-6.4,9-13,14.8-18.3c1.8-1.8,4.5-2.2,6.8-1.4c3.7,1.3,7.7,0.9,11.5,0.6
		c4.5,0.3,8.9,1.6,13,3.2c2.7,0.9,5.9,1.5,8.5,0c2.6-1.3,5.2-3.6,8.4-2.5c3,1.2,5.3,3.6,7.9,5.4c7.6,5.7,8.1,16.5,15.1,22.7
		c3.6,3.4,8.6,4.6,13.4,4.9c8-8.3,17.2-15.2,27-21.1c5.7-5.5,12.2-10.3,19.7-13.2c5.7-1.7,11.1-4.5,15.3-8.7
		c-5.8,6.9-13.2,12.2-20.2,17.9c2.1,0.2,3.9,1.2,5.8,2c9-8.9,16.2-19.4,23.4-29.6c3-3.6,6.1-7.1,9.3-10.5
		c-10.8,13.6-18.4,29.4-27.7,44c1.3,0.4,2.5,0.9,3.8,1.5c5.7-10.2,10.4-20.9,16.1-31.1c6-10.1,12.9-19.6,20.1-28.8
		c2.7-2.6,6.2-5.2,10.2-4.5c-5.2,0.1-9.1,4.1-12.1,7.9c-13,17.8-22.7,37.8-31,58.1c8.4,5.4,18.6,8.2,27.6,12.6
		c5.8,2.6,11.9,4.2,17.8,6.5c9.1,3.6,16.5,10.3,24.3,16.1c4,3,8.8,5.9,14.1,5.3c4.8-0.7,8.7-4.1,12.3-7.1c9.1-8,13.5-19.6,20.9-28.9
		c2.6-3.2,6-6.5,10.4-6.6c4.6-0.3,8.2,2.8,12,4.8c2.4,1.9,5.2,3.3,7.9,4.7c-4.5-0.9-9.1-2-13.7-1.9c-4.9,0.5-8.8,3.9-11.2,8
		c-5.7,9.1-8.6,19.6-13.1,29.2c-4.2,9.2-9.2,18.2-16.2,25.6c-2.8,2.8-6.4,5.5-10.6,5c-5.2-0.7-8.8-4.9-12.5-8.2
		c-7.7-8-15.5-16.1-25-22.1c-9.9-6.1-18.2-14.4-27-22c-8.3-6.9-16.3-14.2-23.9-21.8c9.5,13.6,17.4,28.2,27.7,41.2
		c12.8,18.1,27.8,34.4,41,52.2c-3.8,1.1-7.6,2.6-11.7,2.1c-4.4-0.6-8.3-2.9-12.1-5.3c-12.1-23.3-25.2-46-37-69.4
		c-4.8-9.1-8.9-19.1-16.9-25.8c3.7,3.8,6.6,8.4,9,13.1c6.5,12.9,11.3,26.7,16.9,40c3.4,8.7,7.2,17.3,10.9,25.9
		c0.5,2.9,3.3,4.5,5.2,6.4c2.7,2.6,5.7,4.9,8.5,7.4c-7.6-4.9-15.5-9.3-22.3-15.3c-5.3-4.5-9.6-10.7-16.3-13.3
		c-4.5-1.8-9.4-0.3-13.2,2.4c-4.1,3-7.5,6.8-11.3,10.2c-7,6.2-14.9,11.2-21.9,17.4c-6.8,5.8-13.6,11.8-22,15.2
		c-7.3,2.9-13.4,8.2-18,14.4c-9.9,12.6-15.9,27.7-26.2,40c-6.2,7.5-13.2,14.3-20.6,20.6c0.3,0.4,0.8,0.6,0.9,0
		c8.2-6.1,16.4-12.6,22.9-20.6c9-11,13.8-24.7,23.2-35.4c2.5-2.9,5.5-5.4,9-7.1c5.3-2.7,11.7-1.6,16.8-4.9
		c7.9-5,14.7-11.6,22.4-16.9c5.8-4,11.6-8.1,16.5-13.1c5.2-5.3,10-12.3,17.8-13.9c7.7-1.2,13.6,5,18.9,9.6
		c8.3,7.6,18.8,11.7,28.9,16.2c4.8,2,10.1,4,15.3,2.7c5.9-1.2,11.2-4.8,17.5-4c-6.3-0.5-11.7,3.4-17.2,6c-6.6,2.7-13.6,0.2-20-1.7
		c-6.6-2.2-13.5-3.4-19.7-6.5c-6.1-3.1-10.7-9-17.6-10.5c-4.2-1.1-8.6,0.5-12,3c-4.5,3.1-7.8,7.4-11.7,11.1
		c-7.1,7.3-16.1,12.2-24.2,18.1c-4.8,3.4-9.7,6.9-15.3,8.9c-4.2,1.6-8.9,1.6-13.2,3.2c-4.8,1.7-8.9,5-12.4,8.7
		c-8.5,9-13.8,20.5-22.3,29.4c-6.1,6.7-13.8,11.5-21.2,16.6c10.4-4.8,20.6-10.9,27.3-20.4c6.3-8.4,11.1-18.5,20.2-24.5
		c5.5-3.9,12.4-2.4,18.6-2c7.9-0.8,14-6.5,20.7-10.2c8.7-5.5,18.3-10.1,24.9-18.2c5.3-5.7,10.5-13.1,18.8-14.1
		c6.8-0.6,12.2,4.4,17.5,7.8c7.2,4.7,15.9,5.5,24.1,7c6.4,1.1,13.3,2.7,19.4-0.3c5.3-2.7,10.8-6.4,17.1-5.1
		c8.4,1.7,13.8,8.9,20.6,13.3c6.1,3.9,13.6,3.9,20.6,4.3c7,0.4,14.5,0.4,20.7-3.4c4.9-2.9,9.8-6.7,15.8-6.1
		c8.5,1.1,14.1,8.3,20,13.8c5.2,5,11.3,9,17.7,12.4c6,3.3,11.6,7.3,18.1,9.6c5.6,2.2,12.1,0.2,17.5,3.3
		c10.7,5.3,16.5,16.2,23.5,25.2c4.2,5.7,9.5,10.4,15.4,14.4h-5.5c-2-1.6-3.9-3.3-5.7-5.2c-6-6.9-10.1-15.2-16.6-21.6
		c-2.9-3-6.6-5.6-10.9-5.7c-3.6-0.3-7.1,0.7-10.6,0.6c-5.2-0.6-9.6-3.8-14.1-6.3c-6.9-4.2-14.2-7.7-20.9-12.1
		c-8.4-5.6-13.3-14.9-21.7-20.4c-2.9-1.9-6.7-2.9-10.1-1.6c-4.9,1.5-8.2,5.8-12.8,7.9c-4.8,1.9-10,1.3-15,1
		c-7.2-0.6-14.9-1-21.3-4.9c-8.1-4.8-13.5-14.6-23.6-15.8c-7.2-0.5-12.4,5.1-18.1,8.5c-5.9,3.6-13.2,2.9-19.8,2.4
		c-6.1-0.7-12.3-0.4-18.3-1.9c-7.2-1.7-12.3-8.2-19.8-9c-4.8-0.7-9.3,1.9-12.8,4.8c-5.7,4.9-10.1,11-16,15.6
		c-7,5.3-15.1,9.1-22.8,13.3c-5.9,3.3-12.7,5.3-19.5,4.2c-5.2-0.8-10.7,0.1-15.1,3.1c-9,5.8-14.4,15.5-21.9,23
		c-7.7,7.4-18,11.1-27.8,14.8c7.4-1.4,14.8-3.6,21.4-7.2c8.9-4.9,13.7-14.4,20.8-21.3c3.6-3.3,7.9-6.5,13.1-6.3
		c6.3-0.4,11.7,4.5,18.1,3.4c5.1-0.8,9.7-3.3,14.4-5.4c9-4.5,19.1-7.8,26.1-15.4c4.5-4.7,8.3-10.3,13.9-13.8
		c3.4-2.3,7.7-3.3,11.8-2.3c6.6,1.8,11.6,7.1,18.4,8.4c6.6,1.4,13.3,1,20,1.1c4.4,0,8.8,0.3,13.1-0.9c7.7-2.2,13.3-10.1,21.9-9.6
		c8.8,0.7,14.6,8.3,21.7,12.7c5.4,3.2,11.9,3.8,18,4.6c5.8,0.6,11.7,1.7,17.6,0.9c7.4-0.9,13.1-7.4,20.9-6.3
		c8.3,1.2,14,8.1,19.7,13.7c9.3,10.1,21.9,15.9,33.9,22.2c4.3,2.2,9.3,3,13.9,1.7c6.7-1.7,13,2.3,17.6,6.8
		c6.1,5.6,10.5,12.9,16.3,18.7h-2.2c-4.6-5.8-8.5-12.2-14.9-16.2c-4.2-2.7-9.6-2.5-14.2-1.1c-4.1,1.2-8.5,0.9-12.3-1
		c-8.9-4.4-17.9-8.7-26.5-13.7c-9-5.1-13.8-14.9-21.8-21.2c-3.2-2.6-7.5-4.5-11.7-3.4c-5.9,1.4-9.7,7-15.8,7.9
		c-6.2,0.6-12.2-0.9-18.3-1.6c-7.3-0.9-14.8-2.7-20.5-7.7c-6-4.8-11.6-11.9-19.9-12.2c-7.9,0.1-12.9,6.9-19,10.7
		c-5,3.3-11.2,3.8-17,4.1c-6.8,0.2-13.5,1-20.3,0.3c-7.4-1-12.7-7.5-20.1-8.2c-4.1-0.6-8.2,1.1-11.5,3.5
		c-6.3,4.5-10.7,11.2-16.8,15.8c-6.5,5-14.3,7.7-21.9,10.8c-6.4,2.6-13.7,4.4-20.5,2c-5-1.6-10.4-3.2-15.5-1.3
		c-8.1,2.9-13.5,10-19.5,15.8c-3.8,4.1-8.9,6.7-14.2,8.2c-7.7,2.1-15.6,3.9-23.5,4.1c5.8,1.1,11.8,0.2,17.6-0.6
		c6.2-0.9,12.6-2.7,17.5-7c6.7-5.8,11.9-14.4,21-16.6c7.1-1.7,13,3.4,19.1,5.9c7.5,2.5,15-1.3,22-3.4c6.7-2.3,13.7-4.3,19.6-8.3
		c7.7-5.8,12.6-15.4,22-18.8c6.5-2.4,12.8,1.5,18.2,4.7c6.7,4.2,15,3.4,22.5,2.8c6.9-0.7,14-0.3,20.5-2.9c5.2-2.1,8.9-6.5,13.9-8.9
		c3.8-2,8.5-2.4,12.5-0.7c6.1,2.4,10.7,7.4,16.3,10.8c5.7,3.4,12.4,3.8,18.8,4.8c7.4,1,15.2,2.9,22.4,0.2c4.3-1.6,8.3-4.3,13-4.5
		c3.7-0.4,7.3,1.1,10.4,3c6.7,4.2,11.5,10.6,17.4,15.7c7.7,6.5,17.3,10.2,26.3,14.6c3.9,1.7,7.9,3.7,12.3,3.1
		c4.7-1.1,9.2-4.4,14.2-2.8c5.8,1.9,10.5,6.5,14.3,11.1c-3.1-2.2-6.3-4.5-10.2-5.1c-7.4-1.5-14,4.5-21.4,2.3c-9.4-2.7-18.1-7-27-11
		c-9.6-4.2-14.4-14.1-22.1-20.7c-3.3-2.8-7.7-5.2-12.3-4.2c-5.3,1-9,5.2-13.9,7.2c-5.1,1.8-10.4,0.5-15.6-0.1
		c-7.2-1.2-14.7-1.6-21.3-4.9c-6.4-3.1-10.8-9-16.8-12.7c-3.7-2.3-8.3-3.6-12.5-2c-7.6,2.5-12,9.8-19.2,13c-6.6,3-14,2.9-21.1,3.8
		c-5.9,0.4-12.2,1.7-17.8-0.9c-6-2.6-11.4-7.7-18.4-7.2c-8.1,0.7-13.8,7.5-19.3,12.8c-5.2,5.8-12.3,9.6-19.7,11.9
		c-7.1,2-14.3,4.6-21.8,4c-8.1-0.7-14.6-7.7-23.1-6.3c-9.7,1.5-15.5,10.2-23.4,15.1c-5.6,3.5-12.4,3.8-18.8,4.4
		c-7.1,0.4-14.7,1.4-21.5-1.1c5.8,3.7,13.1,3.1,19.8,3.2c7.8,0.1,16.3-0.8,22.5-6.1c5.9-4.6,10.9-11.3,18.7-12.7
		c7.4-1.2,13.4,4.2,19.2,7.7c6.5,4,14.5,1.9,21.5,0.4c8.9-2.2,18.6-3.6,25.7-10c6.2-5.4,11.4-13.1,20-14.9
		c7.3-1.4,13.1,3.7,19.2,6.7c7,3.2,14.8,1.5,22.1,0.9c6.8-0.9,13.9-0.8,20.2-3.9c7-3.6,12.5-10.9,21-10.8
		c10.2,0.4,16.1,10.1,25.2,13.1c5.8,2,11.9,2.3,17.9,3.3c5.8,0.8,11.8,1.9,17.5,0.3c4.6-1.2,8.6-4.1,13.3-5
		c3.8-0.9,7.8-0.1,11.2,1.7c9.3,5,14.7,14.9,24.2,19.6c7.8,4.1,16.2,6.9,24.4,10c0.4,0.2,0.8,0.3,1.2,0.4h-12.5
		c-6.2-2.2-12.8-3.9-17.7-8.4c-5.7-5-9.6-11.9-16-16.2c-3-2-6.8-3.2-10.4-2.2c-5,1.2-8.8,4.9-13.3,7.1c-5.2,2.4-11,1.2-16.4,0.5
		c-8-1.3-16.4-1.6-23.6-5.6c-6.1-3.5-10.5-9.3-16.8-12.5c-3.9-2.1-8.7-2.4-12.7-0.4c-6.2,2.8-10.4,8.5-16.3,11.8
		c-4.8,2.8-10.4,3.8-15.9,4.3c-6.3,0.6-12.5,1.6-18.8,1.4c-9.8-0.5-16.2-10.9-26.4-9.5c-10.7,1.8-16.4,12.3-25.3,17.5
		c-6.6,4-14.3,5.2-21.8,6.5c-5.6,0.9-11.5,1.3-16.9-0.9c-6.5-2.8-12.3-8.2-19.9-7.7c-8.7,0.8-14.7,7.7-21.7,12
		c-1.6,1-3.3,1.7-5.1,2.2h-33.8c-3.1-0.8-6.1-2.2-8.6-4.6c1.5,2,3.4,3.5,5.5,4.6h-9.8c-4.2-2.9-8.5-5.3-14-4.8
		c-4.4,0.4-8.2,2.5-11.8,4.8h-10.2c2.5-0.7,4.9-1.7,7-3.3c6.6-4.4,13.3-11.4,22-9.5c-3.4-1.5-7.4-1.5-10.9-0.5
		c2.3-1.8,6.5-2.8,9.8-2.5c-0.3-0.1-1-0.2-1.3-0.3c5.1-0.1,10.6,1.6,15.5-0.8c5.6-3,10-7.8,14.2-12.5c10.1-11.7,19.5-24.1,26.4-38
		c6.6-13,12-26.6,19.7-38.9c4.2-6.8,9.4-12.9,15.8-17.7c9-6.7,15.4-16.1,23.4-23.8c6.3-6.5,14.1-11.2,21.8-15.7
		c3.6-2.1,7.8-4.3,12.2-3.1c4.4,1.2,7.3,5.1,10.1,8.4c-3.6-6.7-9.6-15.3-18.4-13.2c-9.2,2.8-17.7,7.9-24.7,14.4
		c-8.5,8.2-15.8,17.7-24.7,25.5c-23.8,21.8-31.4,54.7-51.1,79.5c-6.7,7.9-13,16.7-22.4,21.6c-4.9,2.5-10.6,1.1-15.8,2.5
		c-5.8,1.6-10.9,5.1-15.1,9.4c-5.8,5.6-10.4,13.4-18.5,15.9c-8,0.4-16.1,1-24,0.2c-7.7-3.3-10.5-13.3-18.9-15.4
		c-6.1-1.4-11.2,3.2-16.1,6c-5.5,3.6-12.4,2.3-18.5,1.1c-6.4-1.3-13.7-2-18.4-7.2c-4.2-4-8-9.8-14.4-10.3
		c-8.1-0.2-12.7,8.7-20.7,8.8c-5.2,0.1-10.3-1-15.5-1.5c-3.5-0.5-7.2-0.4-10.4-2.1c-4.6-2.3-7-7.5-11.7-9.6c-2.6-0.9-5.6-0.8-8,0.6
		c-6.4,3.1-10.1,9.7-16,13.4c-4.5,2.8-9.7,4.5-14.3,7.2c-4.8,2.5-9.3,5.6-14.2,8c-5,2.4-10.8,1-15.8,3.3h-6.4
		c4.3-4.4,8.5-9.1,14.5-11.1c4.8-0.4,10-0.2,14-3.3c6.8-4.3,14-7.7,21.5-10.8c5.7-2.3,9.9-6.8,14.5-10.6c2.9-2.3,6.4-5,10.3-3.8
		c6.5,2.6,9.8,10.1,16.8,11.8c7.1,1.6,14.4,2.2,21.6,2.3c8.1-0.3,12.1-9,19.6-10.7c2.2-0.6,4.6-0.7,6.8,0.3
		c5.5,1.8,8.5,7.4,13.9,9.3c5.2,1.6,10.7,0.9,16,1.2c5.8,0.3,12.1-0.1,16.9-3.7c4.8-3.4,9.8-8.5,16.2-7.1c7,2.1,10.4,9.2,16,13.3
		c6.4,4.3,14.7,4,22,3.1c15.3-1.9,20.4-20.1,34.4-24.5c5.7-1.9,11.2,2.5,16.8,0.7c3.3-1.1,6-3.2,8.7-5.3
		c13.9-11.9,25.7-26.5,33.7-43c7.1-13.4,13.1-27.8,23.2-39.3c5-6.1,12-10,17.3-15.8c8-8.5,15.2-18.2,25.4-24.2
		c5.6-3,11.3-6.9,17.9-7.2c7.7,0.4,11.7,8,15.3,13.8c-3-6.3-6.5-13.1-12.9-16.6c-5.3-2.5-11.1,0.1-16.1,2.2
		c-12,5.1-20.3,15.6-29.1,24.8c-4.5,4.7-9.5,8.8-14.2,13.3c-10.1,9.8-17.4,21.8-24.2,34c-6.2,11.1-12.6,22.3-21.9,31.2
		c-5.8,5.5-12,11.4-19.8,13.7c-5.6,1.7-11-1.2-16.5-1.4c-5.3-0.5-10.2,2.4-14,5.8c-6.2,5.5-11.2,13.6-20.1,14.7
		c-8.7,1-19.4,1.8-26.1-5.1c-4.3-4-8.2-10-14.7-10c-6.5,0.2-11,5.6-15.9,9.2c-6,4.7-14,4.8-21.2,6.5c-4,0.6-8.1,1.9-12.2,1.1
		c-5.2-1.5-9.2-6.6-15.1-5.8c-7.4,1.1-12.1,7.7-17.9,11.8c-4,3-9.1,3.5-14,3.5c-5-0.1-10.1-0.2-14.8-1.9c-5.6-2.2-8.6-8-13.7-10.9
		c-2.7-1.8-6.3-1.7-9-0.2c-4.4,2.2-7.5,6.3-11.6,9c-3.9,2.8-8.8,3.1-13.1,4.9c-5.6,2-10.7,5-15.9,7.9c-4.1,2.4-9.4-0.2-13.4,2.5
		c-7.9,5-13.1,12.9-18.5,20.5H100c5.4-6.8,9-14.9,14.3-21.8c2.7-3.5,5.6-7,9.7-8.7c4.1-1.7,8.8-0.2,12.8-2.2
		c5.7-2.7,11.3-5.6,17.5-6.9c3.7-0.9,7.8-0.9,11.2-3c3-1.9,5.5-4.6,8.5-6.5c3.8-2.4,9.1-2.2,12.9,0.2c4,2.4,6,6.9,9.6,9.7
		c3.2,2.5,7.6,2.2,11.4,2.4c6.6,0.1,13.7-0.6,19.1-4.8c6.6-5,10.9-12.8,18.5-16.5c6.2-2.8,12.5,2.1,18.8,0.3
		c5.4-1.5,10.4-4.1,15.6-6.1c5.7-2.2,11.7-4.2,16.3-8.4c4.8-4,9.4-9.7,16.1-9.8c4.7,0.2,8.3,3.7,11.3,7c3.2,3.7,7.6,6.5,12.5,7
		c6.1,0.7,12.6,1.1,18.6-0.9c10.3-3.4,16-14.7,27-16.7c7.8-1.9,13.3,6.7,21.1,4.8c9.5-2.4,17.7-8.6,24.8-15.2
		c14.3-14.5,20.5-35.1,35.3-49.4c3.5-3.4,7.8-5.9,11.7-8.9c9.3-7.2,16-17.2,25.7-23.9c5.6-3.8,11.6-7.3,18.2-9.1
		c7.1-1.9,12.6,4.3,15.9,9.7c7.6,12.9,11.8,27.4,16.8,41.4c1,3.8,2.8,7.3,5.1,10.4c-6.2-16.6-11.6-33.5-19.6-49.4
		c-3.7-6.8-9-15.8-18.1-14.3c-10.8,2.8-20.2,9.5-28.2,17.2c-6.3,6.2-12.3,12.8-19.8,17.6c-7.5,4.8-14.6,10.6-20.1,17.7
		c-8.9,10.6-15,24.4-27.6,31.3c-6.7,3.3-14.5,6.5-22.1,4.5c-5.7-1.7-9.8-6.7-15.7-7.8c-4.4-0.9-8.5,1.5-11.9,4.1
		c-5.7,4.7-11.4,10.6-19.2,11.3c-8.4,0.7-18.1,1.6-24.9-4.4c-4.1-3.6-8.2-8.8-14.2-8.5c-6,0.7-10.3,5.6-14.5,9.4
		c-6.2,6.3-14.6,9.6-21.9,14.4c-4.5,2.8-8.6,6.1-13.5,8.2c-2.8,1.3-5.9,1.1-8.8,1.7c-5.9,0.9-10.8,4.9-14.7,9.2
		c-5,5.3-8.4,12-13.8,16.9c-6.5,5.2-15.2,6.5-23.3,6.5c-9.9,0-11.5-13.6-21-14.5c-5.2-0.8-9.4,2.8-13.6,5.3
		c-4.2,2.5-9.1,1.9-13.7,2.6c-5.5,0.6-10.7,2.5-15.9,4.3c-4.9,1.7-10.3,1.2-15.1,3.3c-3,1.5-5.2,4.3-7.2,7
		c-7.3,10.7-13,22.6-21.6,32.3H92.5z"/>
	<path class="st2" d="M773.7,400c0.9-0.3,1.8-0.8,2.6-1.4c3.9-2.6,8.9-4.4,13.4-2.5c2.2,1,4.3,2.4,6.2,3.8H773.7z"/>
	<path class="st2" d="M439.6,400c6.1-3.5,10.7-9.5,17.5-11.9c3.9-1.4,8.2-0.8,11.8,1c5.4,2.6,9.6,7.4,15.2,9.7
		c5.6,1.8,11.5,0.8,17.2,0.2c6.7-1,13.6-1.8,20-4.3c8-3.3,12.9-11.1,20.4-15.2c3.5-2,7.8-3,11.7-1.8c6.4,1.6,11,6.8,17.3,8.5
		c6.9,1.4,13.9-0.2,20.9-0.6c6.9-0.7,14.2-1,20.3-4.6c6.6-4,12.7-10.7,21.1-9.9c10,1.3,16,11,25.6,13.3c6.3,1.5,12.7,2,19,2.9
		c6.5,0.9,13.4,1.1,19.4-2c5.5-2.8,11.9-5.9,18.2-3.6c10,3.5,15.5,13.8,24.8,18.5h-4.5c-4.6-4.4-8.3-9.8-13.8-13.2
		c-2.9-2-6.5-2.9-10-2.1c-7,1.4-11.7,8.1-18.9,9c-6.3,0.8-12.6-0.6-18.9-1.2c-6.2-0.7-12.6-1.6-18-4.7c-5.2-3.1-9.2-7.9-14.5-11.1
		c-3.8-2.3-8.5-3.7-12.8-2c-8,2.6-12.9,10.3-20.5,13.6c-7.6,3.4-16.2,3.2-24.3,4c-5.8,0.7-12.1,0.4-17.1-2.9
		c-5.6-3.6-11.4-8.5-18.6-7.7c-7.7,1.2-13.2,7.3-19,12c-3.2,2.8-6.9,4.9-10.8,6.3h-36.5c-3.5-1.9-6.6-4.4-10.2-6.1
		c-3.9-1.9-8.5-2.6-12.6-1.1c7.2-1.4,13,3,18.4,7.2h-2.7c-3.2-1.8-6.5-3.3-10.4-3.3c3,0.6,5.7,1.8,8.3,3.3H439.6z"/>
	<path class="st2" d="M528.8,400c5-3.5,9.3-8.1,14.9-10.8c3.6-1.9,8-2.4,11.9-0.9c5.7,1.7,9.9,6.3,15.3,8.5c5.5,2,11.5,1,17.2,0.7
		c7-0.7,14.2-0.7,21-2.6c7.6-2.1,12.8-8.6,20.2-11.2c3.2-1.1,6.8-1.2,10,0c7.8,2.6,13.2,9.8,21.3,12c5.4,1.4,11.1,1.7,16.7,2.4
		c6,0.7,12.2,1.5,18.1-0.2c5.9-1.5,10.6-5.9,16.6-6.8c5.8-1.1,11.5,1.7,15.8,5.5c-3.4-2-7.4-3.8-11.5-2.7c-4.3,0.9-7.8,3.6-11.5,6
		h-43c-0.2-0.1-0.4-0.1-0.5-0.2c-7.8-3.3-12.6-11-20.5-14.1c-3.2-1.3-7-1.5-10.3-0.1c-7.8,2.9-12.8,10.2-20.5,13.2
		c-1.1,0.5-2.1,0.8-3.2,1.1h-35.5c-4.6-2.3-8.4-6.1-13.1-8.2c-3.9-1.9-8.5-2.6-12.6-1c-5.3,2-9.5,5.8-13.9,9.2H528.8z"/>
	<path class="st2" d="M283.9,400c3-2.9,6-5.7,9.7-7.6c2.7-1.5,5.9-1.7,8.8-0.8c5.2,1.7,8.9,6,13.6,8.4H283.9z"/>
	<path class="st3" d="M575.8,157.8c2.9-3.9,6.9-7.8,12.1-7.9c1,0.1,2,0.4,3,0.6c-5.2-0.6-9.3,3.2-12.4,6.9
		c-13.2,16.9-22.5,36.3-30.4,56.2c-0.3,1.5-1.8,1.7-2.9,2.5c3.7,0.9,7.4-1,11.1-1.4c9.3-2.2,18.9,0.2,28.2-1.4c4-0.7,8.1-0.6,11.9,1
		c8,3.1,13.4,10.3,20.6,14.6c4.1,2.5,9.2,2.7,13.7,1.3c7-2.2,13.5-6,18.5-11.4c4.1-4.1,7.2-9.6,12.8-11.8c4.7-1.9,9.7,0.7,13.4,3.6
		c2.9,2.6,5.7,5.2,8.6,7.7c-3.8-1.9-7.4-5.1-12-4.8c-4.4,0.1-7.8,3.4-10.4,6.6c-7.3,9.4-11.8,21-20.9,28.9
		c-3.6,3.1-7.4,6.4-12.3,7.1c-5.2,0.6-10-2.3-14.1-5.3c-7.8-5.8-15.1-12.5-24.3-16.1c-5.9-2.3-12-3.9-17.8-6.5
		c-9.1-4.4-19.3-7.2-27.6-12.6C553.2,195.5,562.8,175.6,575.8,157.8z"/>
	<path class="st2" d="M578.6,157.3c3.1-3.7,7.2-7.4,12.4-6.9c6.2,1.8,10.4,7.3,14.8,11.7c-3.5-2.9-6.7-6.2-10.9-8.2
		c-4-2.1-9.2-1.6-12.4,1.6c-5.3,4.9-8.8,11.4-12.7,17.4c-7.9,12.7-14.4,26.3-19.6,40.3c5.6-2.9,10.5-7.2,16.5-9.5
		c5.6-2.2,11.1-4.6,16.7-6.7c4.9-1.8,10.5-1.9,15.4,0.2c8.1,3.1,13.9,10.3,22.1,13.1c6.9,1.9,14.3,0.5,20.8-2
		c5.9-2.1,10.4-7.1,16.6-8.3c3.7-0.8,7.2,1.3,10.1,3.3c2.5,2.3,4.7,4.9,7,7.4c-3.7-2.9-8.6-5.5-13.4-3.6c-5.6,2.1-8.7,7.7-12.8,11.8
		c-5,5.4-11.5,9.2-18.5,11.4c-4.5,1.4-9.6,1.1-13.7-1.3c-7.2-4.4-12.6-11.5-20.6-14.6c-3.7-1.6-7.9-1.7-11.9-1
		c-9.3,1.6-18.9-0.8-28.2,1.4c-3.7,0.4-7.4,2.3-11.1,1.4c1-0.8,2.6-1.1,2.9-2.5C556.1,193.7,565.4,174.2,578.6,157.3z"/>
	<path class="st3" d="M582.4,155.6c3.2-3.2,8.5-3.7,12.4-1.6c4.1,2,7.4,5.3,10.9,8.2c7.9,8.1,17.9,13.4,27.4,19.5
		c-5.7-2.7-11.3-5.8-16.8-8.9c-5.9-3.4-10.5-8.4-15.6-12.8c-3.4-2.8-8.3-5-12.6-3.1c-4.4,1.7-7.5,5.4-10.4,9
		c-10.9,14.1-19.6,29.8-26.2,46.4c4.6-5.1,8.7-10.8,14.1-15.1c5.6-4.5,11.4-8.8,17.1-13.2c3.7-2.9,8.8-4.9,13.5-3.1
		c7.9,3,13,10.3,20.6,13.7c6.3,2.9,13.5,3,20.3,3.2c6.2,0.1,11.8-3.3,18-3c2.3,0.2,4.4,1.3,6.5,2.4c2.5,2,4.9,4.1,7.1,6.4
		c-2.9-2-6.4-4.1-10.1-3.3c-6.2,1.2-10.8,6.2-16.6,8.3c-6.5,2.5-14,3.9-20.8,2c-8.2-2.8-14-10-22.1-13.1c-4.9-2.1-10.5-2-15.4-0.2
		c-5.7,2-11.2,4.5-16.7,6.7c-6,2.3-10.8,6.6-16.5,9.5c5.2-14,11.7-27.6,19.6-40.3C573.6,166.9,577.1,160.5,582.4,155.6z"/>
	<path class="st3" d="M565.4,168.9c4-4.9,7.4-10.4,12.3-14.5c-7.2,9.2-14.1,18.7-20.1,28.8c-5.8,10.2-10.5,20.9-16.1,31.1
		c-1.3-0.5-2.5-1-3.8-1.5C547,198.2,554.6,182.5,565.4,168.9z"/>
	<path class="st2" d="M588,156.8c4.4-1.9,9.2,0.3,12.6,3.1c5.1,4.4,9.7,9.4,15.6,12.8c5.5,3.2,11.1,6.2,16.8,8.9
		c4.4,2.4,9.2,3.9,13.7,6.1c-4.9-1.2-9.8-2.1-14.4-4.1c-6.9-2.9-14.1-5.2-20.2-9.6c-5.3-3.6-9.7-8.3-15.3-11.3
		c-3.1-1.6-7-2.2-10.2-0.4c-3.8,2-6.6,5.5-9.2,8.8c-9.2,11.6-17.9,23.8-23.8,37.4c6.5-10.7,14.2-20.6,23.1-29.3
		c4.7-4.8,10.5-10.2,17.7-9.3c7.9,1.3,13,8.1,19.5,12.1c6.2,4.3,13.8,5.6,21,7.3c6.2,1.6,12.8-0.1,18.9,1.9c2.8,1.4,5.2,3.5,7.5,5.6
		c-2-1.1-4.1-2.2-6.5-2.4c-6.2-0.3-11.8,3.2-18,3c-6.8-0.2-14-0.2-20.3-3.2c-7.6-3.4-12.8-10.8-20.6-13.7c-4.7-1.8-9.7,0.2-13.5,3.1
		c-5.7,4.5-11.5,8.7-17.1,13.2c-5.4,4.4-9.4,10-14.1,15.1c6.6-16.5,15.3-32.3,26.2-46.4C580.5,162.2,583.6,158.6,588,156.8z"/>
	<path class="st3" d="M586.6,162.3c3.1-1.8,7.1-1.2,10.2,0.4c5.6,3,10.1,7.8,15.3,11.3c6.1,4.4,13.3,6.7,20.2,9.6
		c4.6,1.9,9.6,2.9,14.4,4.1c2.5,0.9,5,2,7.1,3.6c-6.1-2-12.7-0.3-18.9-1.9c-7.2-1.8-14.8-3-21-7.3c-6.5-4-11.6-10.9-19.5-12.1
		c-7.3-0.8-13,4.5-17.7,9.3c-9,8.7-16.7,18.6-23.1,29.3c6-13.6,14.7-25.8,23.8-37.4C580,167.8,582.7,164.3,586.6,162.3z"/>
	<path class="st3" d="M451,169.2c2.4-2.9,6.5-5.2,10.3-3.8c2.6,1.4,4.2,4.1,5.3,6.8c-1.3-1.6-2.1-3.7-3.8-5
		C459.1,164.9,454.1,166.5,451,169.2z"/>
	<path class="st2" d="M451,169.2c3.1-2.6,8-4.3,11.8-2c1.7,1.3,2.5,3.4,3.8,5c3.4,7.7,6.3,15.7,10.9,22.8
		c-5.5-6.3-8.4-14.3-12.7-21.4c-2.5-4.5-8.7-4.6-12.8-2.4c-3.5,2-5.2,5.8-7.5,8.9C446.2,176.1,448.3,172.4,451,169.2z"/>
	<path class="st3" d="M451.9,171.2c4.1-2.1,10.3-2.1,12.8,2.4c4.3,7.1,7.2,15.1,12.7,21.4c4.3,5.8,8.4,12.1,14.2,16.5
		c-9.2-5.6-18-12.9-23.1-22.6c-2.5-4.3-4.5-10.2-9.8-11.7c-3.2-0.7-6.9-1.3-9.6,0.9c-5.4,4.4-8.1,11.5-14.4,14.8
		c4.1-3.5,7.1-8.1,9.7-12.8C446.8,176.9,448.4,173.1,451.9,171.2z"/>
	<path class="st2" d="M449.2,178.1c2.7-2.2,6.5-1.5,9.6-0.9c5.3,1.5,7.3,7.4,9.8,11.7c5.1,9.7,13.9,17.1,23.1,22.6
		c2.6,1.6,5.9,2.1,8.8,0.9c3.8-1.5,6.8-4.5,10.5-6.2c-4.2,3-7.6,7-12,9.7c-4,2.5-9.3,2.3-13.5,0.4c-6.7-2.4-13.1-6.4-16.6-12.8
		c-3.5-5.7-5.6-13.4-12.6-15.7c-2.4-0.9-5-2.1-7.6-1.5c-4.6,1.9-7,6.7-11.6,8.7c-3.2,1.3-6.6,1.4-9.9,1.9c2.6-1.1,5.2-2.4,7.5-4.1
		C441.1,189.6,443.8,182.4,449.2,178.1z"/>
	<path class="st3" d="M547.2,189c3.1-3.1,5.8-6.7,8.9-9.7c-7.3,10.3-14.5,20.7-23.4,29.6c-1.9-0.9-3.7-1.8-5.8-2
		C533.9,201.3,541.3,196,547.2,189z"/>
	<path class="st3" d="M448.7,186.4c2.6-0.7,5.2,0.5,7.6,1.5c7,2.3,9.1,10.1,12.6,15.7c3.5,6.4,10,10.4,16.6,12.8
		c4.2,1.9,9.5,2.1,13.5-0.4c4.4-2.8,7.7-6.8,12-9.7c6.5-3.8,13.7-6.1,20.8-8.4c-7.5,2.9-13.9,7.7-19.7,13.2
		c-9.9,5.9-19,12.9-27,21.1c-4.8-0.3-9.8-1.6-13.4-4.9c-7-6.2-7.6-17-15.1-22.7c-2.6-1.8-4.9-4.2-7.9-5.4c-3.1-1-5.7,1.3-8.4,2.5
		c-2.6,1.5-5.8,0.9-8.5,0c-4.2-1.6-8.5-2.9-13-3.2c2.8-0.5,5.7-0.8,8.5-1.5c3.3-0.5,6.8-0.6,9.9-1.9
		C441.7,193.1,444.2,188.2,448.7,186.4z"/>
	<path class="st3" d="M398.2,202.9c2-2.2,4.6-4.7,7.9-4.1c5.2,1.1,10.7,1.4,15.4,4.2c5.2,2.8,8.9,7.7,14,10.7
		c3.2,2.1,7.5,0.2,10.7,2.2c4.5,3.5,7.7,8.4,11,13.1c3.2,5.1,5.1,10.8,7.9,16.1c-10.4,5.4-17,15.4-24.6,23.9
		c-4.3,5.1-9.8,9.7-16.5,11.2c-8,1.7-17,1.3-23.7-3.7c-4.9-3.6-9.9-8.9-16.6-8.2c-9.6,0.8-14.7,10.6-23.5,13.2
		c-7.1,2.2-15,2.6-22.2,0.8c-7.6-1.9-11.1-11-19.2-11.8c-7.2,0.2-12.1,6.4-17.1,10.7c-6.8,6-14.9,10.3-21.6,16.5
		c-4.7,4-8.8,8.8-14.1,12.1c-3,1.8-6.6,2.5-9.5,4.5c-6,4-10.6,9.9-14.9,15.6c-5.2,7.1-8.8,15.6-15.8,21.1c-3.8,2.9-8.2,5.1-12.9,6.1
		c-2.2-0.8-4.2-2.1-6.5-2.7c-7-2-11.2-8.5-15.9-13.6c-2.4-2.9-5.4-5.2-8.1-7.8c2.7,1.7,5.5,3.2,8.3,4.6c3.9,2.4,7.3,5.6,11.4,7.7
		c4.2,1.9,9,0.4,13.1,2.6c2.5,1.1,4,3.6,6,5.4c1.6-0.9,3-2.3,4.5-3.5c-2.2-3.1-4.7-6.6-8.6-7.7c-5-1.5-10.2,2.3-15,0
		c5.4,1.3,10.3-1.8,15.5-2.6c4.9-0.3,7.9,4.3,10.7,7.6c0.4-0.5,0.8-1,1.2-1.5c4.5-5.6,8.1-11.9,11.6-18.3
		c4.5-7.2,8.4-14.8,14.1-21.1c3.4-4.2,7.9-7.3,12.1-10.7c6-5.4,10.8-11.9,16.4-17.7c7.1-7.9,16.7-13,24.3-20.3c3.8-3.4,8.4-7,13.8-6
		c7.9,1.7,11.4,10.9,19.4,12.4c8.1,1.4,16.8,0.1,23.9-4c6.9-3.7,11.8-10.9,19.7-12.5c6.1-1.1,10.8,3.8,14.7,7.8
		c5.8,6.6,14.2,10,22.5,12.1c4.7,1.2,10,0.6,14.1-2.2c5.6-4,9.9-9.5,15.7-13.3c-2.2-4.9-4.6-9.8-8.1-13.9c-2.9-3.6-7.1-6-9.9-9.6
		c-5.3-6-8.6-13.5-14.5-19c-3.6-3.5-8.6-5.9-13.7-5.5c-4.5,0.8-7.7,4.6-9.9,8.3c2.1-0.4,4.2,0.4,6.2,1.2c2.5-1.8,5.8-3.2,8.8-1.6
		c5.6,3,8.9,8.7,11.6,14.2c4.9,10.7,9.5,21.5,15.2,31.8c2.6-0.1,4.9-1.4,7.4-2.2c-5.3,3.6-12.4,6-18.5,2.8
		c-10.2-5.4-18.7-13.3-26.6-21.5c-3.7-3.8-9.1-7.7-14.6-5.5c-6.5,2.5-10.7,8.3-16,12.6c-6.9,5.8-16,9.5-25.1,8.8
		c-8.1-0.8-11.5-9.3-17.9-13.1c-3.9-2.6-9.2-2.3-13.1,0.2c-4.7,3-9,6.7-13.8,9.6c-13.5,9.4-21.6,24.1-32.2,36.3
		c-5.5,6.2-10.6,12.8-15,19.8c3.4-6.6,7.2-13.1,11-19.5c4.7-7,9.7-13.8,14.3-20.9c5.7-8.7,11.3-17.7,19.3-24.5
		c4.8-3.9,10.3-6.7,16-8.9c3.5-1.4,7.4-1.5,10.8,0.2c6.4,3.9,9.5,11.2,15.2,15.7c3.5,2.6,8.2,2.8,12.3,1.7c7.4-2,13.7-6.9,18.7-12.5
		c6.1-5.9,10.7-14.2,19.1-17.2c5.2-1.8,9.9,1.7,13.1,5.4c7.7,8.5,15.3,17.1,22.9,25.6c2.7,2.7,5.6,5.6,9.4,6.7
		c-4.8-2.6-8-7.2-10.8-11.8c-6-9.9-12.3-19.8-20.5-28c-3.2-3.6-8.6-5.8-13.1-3.2C392.5,210.2,395.2,206.4,398.2,202.9z"/>
	<path class="st2" d="M405.7,203.7c5.1-0.4,10.1,2,13.7,5.5c5.9,5.5,9.2,13,14.5,19c2.9,3.6,7,6,9.9,9.6c3.5,4.1,6,9,8.1,13.9
		c-5.8,3.8-10.1,9.3-15.7,13.3c-4.1,2.9-9.3,3.5-14.1,2.2c-8.3-2.1-16.7-5.5-22.5-12.1c-3.9-3.9-8.6-8.9-14.7-7.8
		c-7.9,1.7-12.9,8.9-19.7,12.5c-7.2,4.1-15.9,5.4-23.9,4c-8-1.5-11.5-10.7-19.4-12.4c-5.4-1-10,2.6-13.8,6
		c-7.6,7.4-17.2,12.4-24.3,20.3c-5.6,5.8-10.4,12.3-16.4,17.7c-4.1,3.5-8.7,6.5-12.1,10.7c-5.7,6.3-9.6,13.9-14.1,21.1
		c3.6-7.4,7.2-14.7,11.1-22c4.5-7,9.6-13.5,15-19.8c10.6-12.2,18.7-26.9,32.2-36.3c4.8-3,9.1-6.6,13.8-9.6c3.9-2.5,9.2-2.8,13.1-0.2
		c6.4,3.8,9.8,12.2,17.9,13.1c9.1,0.7,18.2-3.1,25.1-8.8c5.2-4.3,9.5-10.1,16-12.6c5.5-2.2,10.9,1.7,14.6,5.5
		c7.9,8.2,16.4,16.1,26.6,21.5c6,3.2,13.2,0.8,18.5-2.8c-2.4,0.8-4.8,2.1-7.4,2.2c-5.7-10.3-10.3-21.1-15.2-31.8
		c-2.7-5.5-6-11.2-11.6-14.2c-3-1.5-6.3-0.2-8.8,1.6c-2-0.8-4-1.6-6.2-1.2C398,208.3,401.2,204.5,405.7,203.7z"/>
	<path class="st3" d="M810.4,400c-5.8-4-11.1-8.7-15.4-14.4c-7-9.1-12.9-20-23.5-25.2c-5.4-3.1-11.9-1.1-17.5-3.3
		c-6.4-2.4-12.1-6.3-18.1-9.6c-6.4-3.4-12.4-7.4-17.7-12.4c-5.9-5.5-11.5-12.6-20-13.8c-6-0.6-11,3.2-15.8,6.1
		c-6.2,3.7-13.7,3.7-20.7,3.4c-7-0.4-14.5-0.4-20.6-4.3c-6.9-4.4-12.2-11.7-20.6-13.3c-6.3-1.3-11.8,2.4-17.1,5.1
		c-6.1,3-13.1,1.4-19.4,0.3c-8.3-1.5-16.9-2.3-24.1-7c-5.3-3.4-10.7-8.4-17.5-7.8c-8.3,1-13.5,8.4-18.8,14.1
		c-6.6,8.1-16.3,12.7-24.9,18.2c-6.7,3.7-12.8,9.4-20.7,10.2c-6.2-0.4-13.1-1.9-18.6,2c-9,6-13.9,16.1-20.2,24.5
		c-6.7,9.5-17,15.6-27.3,20.4c7.4-5.1,15.1-9.9,21.2-16.6c8.5-9,13.8-20.4,22.3-29.4c3.5-3.7,7.5-7,12.4-8.7
		c4.3-1.6,8.9-1.5,13.2-3.2c5.6-2.1,10.5-5.6,15.3-8.9c8.2-5.9,17.2-10.8,24.2-18.1c3.8-3.7,7.2-8,11.7-11.1c3.4-2.5,7.8-4.1,12-3
		c6.9,1.5,11.5,7.5,17.6,10.5c6.2,3.1,13.2,4.3,19.7,6.5c6.4,1.9,13.4,4.3,20,1.7c5.5-2.6,10.9-6.5,17.2-6c-6.2-0.8-11.6,2.8-17.5,4
		c-5.3,1.2-10.5-0.7-15.3-2.7c-10.1-4.6-20.6-8.6-28.9-16.2c-5.3-4.6-11.1-10.8-18.9-9.6c-7.8,1.6-12.5,8.6-17.8,13.9
		c-4.9,5.1-10.7,9.2-16.5,13.1c-7.7,5.3-14.5,11.9-22.4,16.9c-5,3.3-11.5,2.2-16.8,4.9c-3.5,1.7-6.5,4.2-9,7.1
		c-9.4,10.7-14.2,24.4-23.2,35.4c-6.5,8-14.7,14.5-22.9,20.6c-0.1,0.6-0.6,0.5-0.9,0c7.4-6.2,14.5-13.1,20.6-20.6
		c10.2-12.3,16.3-27.4,26.2-40c4.7-6.2,10.8-11.5,18-14.4c8.4-3.4,15.2-9.4,22-15.2c7-6.1,14.9-11.2,21.9-17.4
		c3.8-3.4,7.2-7.2,11.3-10.2c3.7-2.7,8.7-4.2,13.2-2.4c6.7,2.6,11,8.8,16.3,13.3c6.8,6,14.7,10.5,22.3,15.3
		c-2.8-2.5-5.8-4.7-8.5-7.4c-1.9-2-4.7-3.5-5.2-6.4c-3.7-8.6-7.4-17.2-10.9-25.9c-5.6-13.4-10.3-27.1-16.9-40
		c-2.4-4.8-5.3-9.3-9-13.1c8.1,6.7,12.2,16.7,16.9,25.8c11.8,23.4,25,46.2,37,69.4c3.7,2.3,7.6,4.6,12.1,5.3c4,0.5,7.9-1,11.7-2.1
		c-13.2-17.8-28.2-34.1-41-52.2c-10.4-13-18.2-27.6-27.7-41.2c7.6,7.6,15.6,15,23.9,21.8c8.8,7.6,17.1,15.8,27,22
		c9.5,6,17.3,14,25,22.1c3.7,3.3,7.3,7.5,12.5,8.2c4.2,0.5,7.8-2.2,10.6-5c7-7.4,12-16.4,16.2-25.6c4.5-9.7,7.4-20.1,13.1-29.2
		c2.4-4,6.3-7.5,11.2-8c4.6-0.1,9.2,1,13.7,1.9c2.7,1,5.5,1.8,8.2,2.7c-6.9,0-14.2,0.8-20.2,4.3c-7.2,5.5-10.4,14.2-13.5,22.4
		c-7.8,23.6-12.5,48.7-26,70c4.1,3.2,9.7,4.8,15,4.7c6.5,0,13.3,0,19.5-2.2c5.9-2.2,9.3-8.1,14.8-11c3-1.6,6.8-1.8,9.9-0.2
		c6.1,2.8,10.3,8.2,15.2,12.5c4.5,4.3,10.1,7,15.5,9.8c6.4,3.2,12.5,7.1,18.7,10.7c3.7,2.2,8,3.4,12.3,2.7c6.2-0.5,11.8,3,15.6,7.7
		c9.3,10.5,14.6,24.2,26.1,32.8c4.3,3.3,8.6,6.9,13.3,9.8H810.4z"/>
	<path class="st3" d="M96.1,400c8.6-9.7,14.3-21.6,21.6-32.3c2-2.7,4.1-5.5,7.2-7c4.8-2.1,10.2-1.6,15.1-3.3
		c5.2-1.8,10.4-3.7,15.9-4.3c4.6-0.7,9.6-0.1,13.7-2.6c4.2-2.4,8.4-6,13.6-5.3c9.5,0.9,11.2,14.5,21,14.5c8.1,0,16.8-1.3,23.3-6.5
		c5.4-4.9,8.8-11.6,13.8-16.9c3.9-4.3,8.8-8.2,14.7-9.2c2.9-0.6,6-0.4,8.8-1.7c4.8-2.1,9-5.5,13.5-8.2c7.3-4.8,15.6-8.1,21.9-14.4
		c4.2-3.8,8.5-8.6,14.5-9.4c6-0.3,10.1,4.9,14.2,8.5c6.8,6,16.6,5.1,24.9,4.4c7.8-0.6,13.5-6.6,19.2-11.3c3.4-2.6,7.5-5,11.9-4.1
		c5.9,1.1,10,6.1,15.7,7.8c7.6,2,15.3-1.2,22.1-4.5c12.6-6.9,18.6-20.7,27.6-31.3c5.6-7.1,12.6-12.8,20.1-17.7
		c7.5-4.8,13.5-11.3,19.8-17.6c8-7.7,17.4-14.4,28.2-17.2c9.1-1.4,14.4,7.6,18.1,14.3c8,15.8,13.3,32.8,19.6,49.4
		c-2.3-3.1-4.1-6.6-5.1-10.4c-4.9-14-9.2-28.5-16.8-41.4c-3.2-5.5-8.8-11.7-15.9-9.7c-6.6,1.9-12.5,5.4-18.2,9.1
		c-9.7,6.7-16.5,16.7-25.7,23.9c-3.9,2.9-8.2,5.4-11.7,8.9c-14.8,14.2-21,34.8-35.3,49.4c-7.1,6.6-15.3,12.8-24.8,15.2
		c-7.7,1.9-13.2-6.7-21.1-4.8c-11,2-16.7,13.3-27,16.7c-6,2-12.4,1.6-18.6,0.9c-4.9-0.5-9.4-3.3-12.5-7c-2.9-3.3-6.6-6.8-11.3-7
		c-6.7,0.2-11.3,5.8-16.1,9.8c-4.6,4.3-10.6,6.2-16.3,8.4c-5.2,2-10.2,4.6-15.6,6.1c-6.3,1.7-12.6-3.1-18.8-0.3
		c-7.6,3.8-11.9,11.5-18.5,16.5c-5.4,4.2-12.5,4.9-19.1,4.8c-3.8-0.2-8.2,0.1-11.4-2.4c-3.6-2.9-5.6-7.3-9.6-9.7
		c-3.8-2.4-9-2.6-12.9-0.2c-3.1,1.9-5.5,4.6-8.5,6.5c-3.4,2.1-7.5,2-11.2,3c-6.2,1.3-11.9,4.3-17.5,6.9c-4,2.1-8.7,0.6-12.8,2.2
		c-4.1,1.8-7.1,5.3-9.7,8.7c-5.3,6.8-8.9,15-14.3,21.8H96.1z"/>
	<path class="st3" d="M102.3,400c5.3-7.5,10.6-15.5,18.5-20.5c4-2.7,9.3-0.1,13.4-2.5c5.2-2.9,10.3-5.9,15.9-7.9
		c4.3-1.8,9.3-2.1,13.1-4.9c4.1-2.7,7.1-6.8,11.6-9c2.8-1.5,6.4-1.5,9,0.2c5.2,2.9,8.1,8.7,13.7,10.9c4.7,1.8,9.9,1.9,14.8,1.9
		c4.8,0,10-0.5,14-3.5c5.8-4.1,10.5-10.7,17.9-11.8c5.9-0.9,9.9,4.2,15.1,5.8c4.1,0.8,8.2-0.5,12.2-1.1c7.2-1.7,15.1-1.8,21.2-6.5
		c4.9-3.6,9.3-9,15.9-9.2c6.5,0,10.4,6,14.7,10c6.7,6.9,17.3,6.1,26.1,5.1c8.9-1.1,14-9.2,20.1-14.7c3.8-3.4,8.7-6.3,14-5.8
		c5.5,0.2,10.9,3.1,16.5,1.4c7.9-2.3,14-8.2,19.8-13.7c9.3-8.9,15.6-20.1,21.9-31.2c6.8-12.2,14.1-24.2,24.2-34
		c4.7-4.4,9.8-8.6,14.2-13.3c8.8-9.2,17.1-19.7,29.1-24.8c5-2.1,10.7-4.7,16.1-2.2c6.4,3.4,9.9,10.3,12.9,16.6
		c-3.6-5.7-7.6-13.4-15.3-13.8c-6.6,0.3-12.2,4.2-17.9,7.2c-10.2,6-17.4,15.7-25.4,24.2c-5.3,5.8-12.3,9.7-17.3,15.8
		c-10.1,11.6-16,25.9-23.2,39.3c-8,16.5-19.8,31.1-33.7,43c-2.6,2.1-5.4,4.2-8.7,5.3c-5.6,1.7-11.2-2.6-16.8-0.7
		c-14,4.4-19.1,22.5-34.4,24.5c-7.4,0.9-15.6,1.2-22-3.1c-5.6-4.1-9-11.2-16-13.3c-6.4-1.4-11.4,3.7-16.2,7.1
		c-4.8,3.6-11.1,4-16.9,3.7c-5.3-0.3-10.8,0.4-16-1.2c-5.4-1.9-8.4-7.6-13.9-9.3c-2.1-0.9-4.6-0.8-6.8-0.3
		c-7.5,1.7-11.5,10.4-19.6,10.7c-7.2-0.2-14.5-0.7-21.6-2.3c-7-1.7-10.3-9.2-16.8-11.8c-4-1.2-7.5,1.5-10.3,3.8
		c-4.6,3.8-8.9,8.3-14.5,10.6c-7.4,3-14.7,6.4-21.5,10.8c-4,3.1-9.2,2.9-14,3.3c-6,2-10.1,6.7-14.5,11.1H102.3z"/>
	<path class="st2" d="M409.8,220.8c6.3,4.3,8.7,12.2,11.2,19.1C417.4,233.6,414.1,226.8,409.8,220.8z"/>
	<path class="st3" d="M518.3,400c3.9-1.4,7.6-3.5,10.8-6.3c5.7-4.8,11.2-10.9,19-12c7.2-0.8,13,4.1,18.6,7.7
		c5,3.3,11.3,3.6,17.1,2.9c8.2-0.8,16.7-0.7,24.3-4c7.6-3.3,12.5-11,20.5-13.6c4.3-1.6,9-0.3,12.8,2c5.2,3.2,9.2,8,14.5,11.1
		c5.5,3.2,11.9,4,18,4.7c6.3,0.6,12.6,2,18.9,1.2c7.2-0.9,11.9-7.6,18.9-9c3.4-0.8,7.1,0.1,10,2.1c5.5,3.4,9.1,8.8,13.8,13.2h-30.7
		c3.6-2.4,7.1-5.1,11.5-6c4.1-1,8.1,0.7,11.5,2.7c-4.2-3.7-10-6.6-15.8-5.5c-6.1,0.9-10.8,5.3-16.6,6.8c-5.9,1.7-12.1,0.8-18.1,0.2
		c-5.6-0.7-11.2-1-16.7-2.4c-8.1-2.2-13.4-9.4-21.3-12c-3.2-1.2-6.8-1.1-10,0c-7.4,2.6-12.6,9.1-20.2,11.2c-6.9,1.9-14,1.9-21,2.6
		c-5.7,0.3-11.7,1.3-17.2-0.7c-5.4-2.2-9.6-6.8-15.3-8.5c-3.9-1.4-8.3-0.9-11.9,0.9c-5.6,2.7-9.8,7.3-14.9,10.8H518.3z"/>
	<path class="st3" d="M606.8,400c1.1-0.3,2.2-0.7,3.2-1.1c7.7-3,12.7-10.3,20.5-13.2c3.3-1.4,7-1.2,10.3,0.1
		c7.9,3.1,12.8,10.8,20.5,14.1c0.2,0.1,0.4,0.1,0.5,0.2H606.8z"/>
	<path class="st3" d="M531.8,400c4.4-3.5,8.5-7.3,13.9-9.2c4.1-1.6,8.7-0.9,12.6,1c4.7,2.2,8.5,5.9,13.1,8.2H531.8z"/>
	<path class="st3" d="M477.3,400c-5.4-4.2-11.2-8.6-18.4-7.2c4.1-1.4,8.7-0.8,12.6,1.1c3.6,1.6,6.8,4.2,10.2,6.1H477.3z"/>
	<path class="st3" d="M472.5,400c-2.6-1.5-5.3-2.8-8.3-3.3c3.9,0.1,7.2,1.5,10.4,3.3H472.5z"/>
	<path class="st3" d="M363.7,400c3.6-2.3,7.4-4.4,11.8-4.8c5.4-0.5,9.8,1.9,14,4.8H363.7z"/>
	<path class="st3" d="M111.6,400c5-2.3,10.9-1,15.8-3.3c4.9-2.3,9.4-5.5,14.2-8c4.6-2.7,9.7-4.4,14.3-7.2c6-3.7,9.7-10.3,16-13.4
		c2.4-1.3,5.4-1.5,8-0.6c4.8,2.1,7.1,7.2,11.7,9.6c3.2,1.6,6.9,1.6,10.4,2.1c5.2,0.5,10.3,1.6,15.5,1.5c8-0.1,12.6-9,20.7-8.8
		c6.4,0.5,10.2,6.3,14.4,10.3c4.7,5.2,12,5.9,18.4,7.2c6.1,1.1,13,2.4,18.5-1.1c4.9-2.9,10-7.4,16.1-6c8.4,2.1,11.2,12.1,18.9,15.4
		c7.9,0.9,16,0.3,24-0.2c8.1-2.6,12.6-10.3,18.5-15.9c4.2-4.3,9.3-7.8,15.1-9.4c5.2-1.4,10.9,0,15.8-2.5
		c9.4-4.9,15.7-13.7,22.4-21.6c19.8-24.8,27.3-57.7,51.1-79.5c8.9-7.9,16.2-17.3,24.7-25.5c7.1-6.5,15.5-11.6,24.7-14.4
		c8.8-2,14.8,6.5,18.4,13.2c-2.8-3.3-5.7-7.2-10.1-8.4c-4.3-1.2-8.5,1-12.2,3.1c-7.7,4.6-15.5,9.3-21.8,15.7
		c-8,7.8-14.4,17.2-23.4,23.8c-6.4,4.7-11.7,10.9-15.8,17.7c-7.8,12.3-13.1,25.9-19.7,38.9c-6.9,13.9-16.3,26.3-26.4,38
		c-4.2,4.7-8.5,9.5-14.2,12.5c-4.9,2.3-10.4,0.7-15.5,0.8c0.3,0.1,1,0.2,1.3,0.3c-3.3-0.3-7.4,0.7-9.8,2.5c3.6-1,7.5-1.1,10.9,0.5
		c-8.7-1.9-15.4,5.1-22,9.5c-2.1,1.6-4.5,2.6-7,3.3h-37.4c-4.7-2.5-8.5-6.7-13.6-8.4c-2.9-0.8-6.1-0.6-8.8,0.8
		c-3.7,1.9-6.7,4.7-9.7,7.6H111.6z"/>
	<path class="st3" d="M823.4,400c-0.2-0.1-0.3-0.2-0.5-0.3c-11-7.1-21.8-15.1-30.1-25.3c-7.1-9.1-11.8-20.2-20.6-27.9
		c-4.1-3.6-9.2-6-14.6-6.6c-8.1-0.8-15-5.5-22-9.3c-7.1-3.7-14.6-6.8-21-11.9c-4.4-3.3-8.2-7.6-13.4-9.5c-3.5-1.4-7.7-0.9-11,0.9
		c-6.1,3.2-10,9.1-16.1,12.2c-4.8,2.4-10.2,3.6-15.5,4.1c-1.8,0.7-0.6-1.4-0.6-2.2c5.5-21.6,8.7-43.8,15.1-65.2
		c2.7-8.1,6-16.9,13.5-21.8c6.6-4.5,14.1-10.5,22.7-8.4c5.5,1.7,10.7,3.9,16.2,5.5c-5.4-0.9-10.6-3.1-16.2-2.6
		c-6.7,0.8-11.9,5.9-16.5,10.4c-6.2,6-10.8,13.5-13.6,21.6c-7,19.6-9.2,40.4-12.4,60.8c2.2-0.6,4.2-1.7,6-3.1
		c1.9-12.2,3.7-24.4,6.5-36.4c2-8.2,4.2-16.5,8.2-24c3.2-5.6,7.6-10.4,11.7-15.4c3.6-4.1,7.9-8.3,13.5-9.2c5.2-1,10.4,0.5,15.6,0.8
		c3.6,0.2,6.9,1.9,9.7,4c5.5,4.7,9.6,10.8,13.4,16.9c-5-6.4-10.2-14.2-18.8-15.7c-7.3-0.7-15.5-1.8-22.1,2.1
		c-7.4,4.9-12,12.8-17,19.9c-10.3,15.5-13.2,34.3-16.1,52.3c2.1-1.5,2.6-4.6,4.1-6.7c2.4-10.1,4.5-20.4,8.8-29.9
		c3-6.8,7.6-12.7,12.2-18.5c3.7-4.4,7.6-9,13-11.3c6-2.3,12.5-0.9,18.8-1.2c5.4,0.1,10.1,3.5,13.5,7.4c6.5,7.4,11,16.3,16.2,24.6
		c8,13.7,18,26,28.8,37.5c3.1,2.9,6.4,6.2,10.6,7.4c4.1,0.6,8.5,0.2,12.3,2.3c8.2,4.5,13,12.8,18.8,19.8
		c5.4,6.8,13.5,10.2,20.7,14.8c5.2,3,10.5,7,16.8,6.4c4-0.4,8.2,0.5,11.2,3.4c8.4,7.9,12.6,19.1,20.7,27.2h-2.3
		c-5.9-7.2-9.9-16.3-18.6-20.6c-3.1-1.4-6.6-0.4-9.8,0.2c-4.5,0.6-8.2-2.3-11.8-4.3c-8.7-5.4-18.4-9.8-24.6-18.3
		c-6-7.5-11-16.8-20.3-20.7c-4.1-1.6-9-0.4-12.9-2.8c-5.3-3.2-9.4-8-13.5-12.5c-5.4-6.2-10.8-12.5-15.5-19.3
		c-7.9-10.6-13.3-22.9-21.4-33.3c-3.5-4.4-7.5-8.8-13-10.6c-4-1-8.1-0.2-12.1-0.6c-4.8-0.4-9.8,0.2-13.9,2.8c-4.9,3-8.5,7.6-12.1,12
		c-3.7,4.6-7.9,8.8-10.6,14.1c-3.3,6.1-5.4,12.7-7.1,19.3c1.2-1.6,2.8-2.9,3.4-4.9c-0.1,0.3-0.1,0.6-0.2,1c2.6-2.4,5.6-4.6,9.3-4.6
		c4.9-0.4,9.5,1.8,14.3,2.4c5.1,0.6,10.3,0.5,15.3,1.9c6.9,1.5,13.1,5.7,20.1,6.7c4.5,0.3,9.2,1.2,12.7,4.2
		c10.4,8.1,16.2,20.4,23.4,31.1c8.3,12.5,18.9,23.4,30.2,33.1c3.4,3,7.7,5.1,12.4,4.1c4.5-1,9.3,0.3,12.8,3.3
		c5.7,4.6,9.5,10.9,14.3,16.4h-7.5c-2.7-1.3-5.6-2-8.6-1.1c-0.9,0.4-1.9,0.7-2.8,1.1H823.4z"/>
	<path class="st3" d="M856.3,400c-2-1.4-3.8-3-5.3-4.9c-6.2-7.3-10.7-16.6-19.4-21.4c-5.1-2.9-11.4-0.4-16.5-3.3
		c-5.6-3.1-9.9-7.9-14.3-12.3c-5.8-6.1-11.7-12.3-16.7-19.2c-7.3-9.7-12.3-20.9-19.8-30.5c-2.8-3.7-6.2-7.2-10.5-9.1
		c-4.3-1.9-9.2-1.2-13.6-2.7c-5.9-1.8-11.6-4.7-17.9-4.7c-6.2-0.5-12.4,1.9-18.6,0.8c-4.1-0.8-8.3,0.2-11.4,2.9
		c3-3.7,7.4-5.7,11.8-7.1c5.6-1.8,11-4.4,16.9-5c6.7-0.8,13.2,2,19.8,2.6c4.7,0.4,9.4,1.6,13.1,4.5c8.6,6.5,13.9,16.2,19.3,25.3
		c7.8,14.2,18.6,26.3,29.8,37.9c3.1,3.1,6.3,6.2,10.3,8.2c3.8,1.7,8.1,0.3,12,1.8c11.8,4.6,16.6,17.4,25,25.9
		c4.6,4.7,10.8,7.4,16.6,10.3H856.3z"/>
	<path class="st3" d="M802,400c-5.8-5.8-10.3-13.1-16.3-18.7c-4.6-4.5-10.9-8.5-17.6-6.8c-4.7,1.3-9.7,0.6-13.9-1.7
		c-11.9-6.3-24.6-12.1-33.9-22.2c-5.6-5.5-11.4-12.5-19.7-13.7c-7.8-1.1-13.5,5.4-20.9,6.3c-5.9,0.8-11.8-0.3-17.6-0.9
		c-6.1-0.8-12.6-1.3-18-4.6c-7.1-4.4-12.9-11.9-21.7-12.7c-8.6-0.5-14.2,7.4-21.9,9.6c-4.3,1.1-8.7,0.9-13.1,0.9
		c-6.7-0.1-13.4,0.3-20-1.1c-6.8-1.4-11.8-6.7-18.4-8.4c-4-1-8.4,0-11.8,2.3c-5.6,3.5-9.4,9.1-13.9,13.8c-7,7.6-17.1,10.9-26.1,15.4
		c-4.7,2.1-9.3,4.6-14.4,5.4c-6.4,1.1-11.8-3.8-18.1-3.4c-5.1-0.2-9.5,3-13.1,6.3c-7.1,7-11.9,16.4-20.8,21.3
		c-6.7,3.6-14,5.8-21.4,7.2c9.8-3.7,20.1-7.4,27.8-14.8c7.4-7.5,12.8-17.2,21.9-23c4.4-3,9.9-3.8,15.1-3.1c6.8,1.1,13.6-1,19.5-4.2
		c7.7-4.2,15.7-8,22.8-13.3c5.9-4.6,10.4-10.7,16-15.6c3.6-2.9,8-5.5,12.8-4.8c7.5,0.8,12.6,7.3,19.8,9c6,1.5,12.2,1.2,18.3,1.9
		c6.6,0.6,13.9,1.2,19.8-2.4c5.6-3.4,10.9-9,18.1-8.5c10.1,1.1,15.5,11,23.6,15.8c6.4,3.9,14,4.3,21.3,4.9c5,0.3,10.2,0.9,15-1
		c4.6-2,7.9-6.3,12.8-7.9c3.4-1.2,7.2-0.3,10.1,1.6c8.4,5.5,13.3,14.8,21.7,20.4c6.7,4.5,14.1,7.9,20.9,12.1
		c4.5,2.5,8.9,5.6,14.1,6.3c3.5,0.1,7-0.9,10.6-0.6c4.3,0.1,8,2.7,10.9,5.7c6.5,6.4,10.7,14.7,16.6,21.6c1.7,1.9,3.6,3.6,5.7,5.2
		H802z"/>
	<path class="st3" d="M763.7,400c-0.4-0.1-0.8-0.3-1.2-0.4c-8.2-3.1-16.6-5.9-24.4-10c-9.5-4.7-14.9-14.6-24.2-19.6
		c-3.4-1.8-7.4-2.6-11.2-1.7c-4.7,0.9-8.6,3.9-13.3,5c-5.7,1.6-11.7,0.5-17.5-0.3c-6-1-12.2-1.4-17.9-3.3
		c-9.1-3-15.1-12.8-25.2-13.1c-8.5-0.1-14.1,7.3-21,10.8c-6.3,3-13.4,3-20.2,3.9c-7.3,0.6-15.1,2.3-22.1-0.9c-6-3-11.9-8.1-19.2-6.7
		c-8.6,1.8-13.8,9.5-20,14.9c-7,6.5-16.8,7.9-25.7,10c-7,1.5-14.9,3.6-21.5-0.4c-5.9-3.5-11.8-8.9-19.2-7.7
		c-7.8,1.4-12.8,8-18.7,12.7c-6.2,5.2-14.7,6.2-22.5,6.1c-6.6-0.1-13.9,0.5-19.8-3.2c6.9,2.6,14.4,1.5,21.5,1.1
		c6.4-0.6,13.2-0.8,18.8-4.4c7.8-4.9,13.7-13.6,23.4-15.1c8.5-1.4,15,5.6,23.1,6.3c7.5,0.6,14.7-2,21.8-4c7.4-2.2,14.5-6,19.7-11.9
		c5.5-5.3,11.1-12.1,19.3-12.8c7-0.5,12.4,4.6,18.4,7.2c5.6,2.5,11.9,1.2,17.8,0.9c7.1-0.9,14.5-0.8,21.1-3.8
		c7.2-3.2,11.7-10.5,19.2-13c4.2-1.6,8.9-0.3,12.5,2c6,3.7,10.4,9.6,16.8,12.7c6.6,3.3,14.1,3.7,21.3,4.9c5.1,0.7,10.5,1.9,15.6,0.1
		c4.9-2,8.6-6.2,13.9-7.2c4.5-1,8.9,1.4,12.3,4.2c7.6,6.6,12.5,16.5,22.1,20.7c8.8,4,17.6,8.4,27,11c7.4,2.1,14.1-3.9,21.4-2.3
		c3.9,0.5,7.1,2.9,10.2,5.1c-3.8-4.6-8.4-9.2-14.3-11.1c-5-1.6-9.5,1.7-14.2,2.8c-4.4,0.6-8.4-1.5-12.3-3.1c-9-4.4-18.5-8-26.3-14.6
		c-5.9-5.1-10.7-11.5-17.4-15.7c-3.1-1.9-6.7-3.4-10.4-3c-4.7,0.2-8.7,2.8-13,4.5c-7.2,2.7-15,0.8-22.4-0.2
		c-6.4-1-13.1-1.5-18.8-4.8c-5.6-3.4-10.1-8.4-16.3-10.8c-4-1.6-8.7-1.3-12.5,0.7c-5,2.4-8.7,6.8-13.9,8.9
		c-6.5,2.6-13.7,2.2-20.5,2.9c-7.5,0.6-15.8,1.4-22.5-2.8c-5.4-3.2-11.7-7-18.2-4.7c-9.5,3.4-14.3,13-22,18.8
		c-5.9,4-12.9,6-19.6,8.3c-7.1,2.1-14.6,5.9-22,3.4c-6.2-2.5-12-7.6-19.1-5.9c-9.1,2.2-14.3,10.8-21,16.6c-4.8,4.3-11.2,6.1-17.5,7
		c-5.8,0.8-11.7,1.7-17.6,0.6c8-0.3,15.9-2,23.5-4.1c5.3-1.5,10.4-4.1,14.2-8.2c6-5.8,11.3-12.9,19.5-15.8
		c5.1-1.9,10.5-0.3,15.5,1.3c6.8,2.4,14.1,0.6,20.5-2c7.5-3,15.4-5.8,21.9-10.8c6.2-4.7,10.5-11.3,16.8-15.8
		c3.3-2.4,7.4-4.1,11.5-3.5c7.5,0.7,12.8,7.2,20.1,8.2c6.7,0.7,13.5-0.2,20.3-0.3c5.8-0.3,12-0.7,17-4.1c6.1-3.9,11.2-10.6,19-10.7
		c8.3,0.4,13.9,7.4,19.9,12.2c5.7,4.9,13.2,6.8,20.5,7.7c6.1,0.7,12.1,2.2,18.3,1.6c6-0.9,9.9-6.5,15.8-7.9
		c4.2-1.2,8.5,0.7,11.7,3.4c8,6.4,12.7,16.1,21.8,21.2c8.6,4.9,17.6,9.3,26.5,13.7c3.8,1.9,8.2,2.2,12.3,1c4.6-1.4,10-1.6,14.2,1.1
		c6.4,4,10.3,10.4,14.9,16.2h-3.9c-2-1.5-4-2.8-6.2-3.8c-4.6-1.9-9.5-0.1-13.4,2.5c-0.8,0.6-1.7,1-2.6,1.4H763.7z"/>
	<path class="st3" d="M436.2,400c1.8-0.5,3.5-1.2,5.1-2.2c7-4.3,13.1-11.2,21.7-12c7.6-0.4,13.3,4.9,19.9,7.7
		c5.4,2.2,11.3,1.8,16.9,0.9c7.5-1.3,15.2-2.5,21.8-6.5c8.9-5.2,14.5-15.7,25.3-17.5c10.2-1.4,16.6,9,26.4,9.5
		c6.3,0.3,12.6-0.8,18.8-1.4c5.5-0.5,11.1-1.5,15.9-4.3c5.9-3.3,10-9.1,16.3-11.8c4-2,8.8-1.7,12.7,0.4c6.3,3.2,10.7,9,16.8,12.5
		c7.2,4,15.7,4.3,23.6,5.6c5.4,0.7,11.3,1.8,16.4-0.5c4.5-2.2,8.3-5.9,13.3-7.1c3.6-1,7.4,0.3,10.4,2.2c6.4,4.3,10.3,11.2,16,16.2
		c5,4.5,11.6,6.2,17.7,8.4H740c-9.3-4.7-14.7-15-24.8-18.5c-6.3-2.4-12.7,0.7-18.2,3.6c-6,3.1-12.9,3-19.4,2
		c-6.4-0.9-12.8-1.4-19-2.9c-9.6-2.3-15.6-12-25.6-13.3c-8.4-0.8-14.5,5.9-21.1,9.9c-6.1,3.6-13.4,3.9-20.3,4.6
		c-6.9,0.5-13.9,2.1-20.9,0.6c-6.3-1.7-10.9-6.9-17.3-8.5c-3.9-1.2-8.2-0.2-11.7,1.8c-7.5,4.1-12.4,11.9-20.4,15.2
		c-6.4,2.5-13.2,3.3-20,4.3c-5.7,0.7-11.6,1.7-17.2-0.2c-5.6-2.3-9.8-7.1-15.2-9.7c-3.6-1.9-7.9-2.4-11.8-1
		c-6.9,2.3-11.4,8.3-17.5,11.9H436.2z"/>
	<path class="st3" d="M399.2,400c-2.1-1.1-3.9-2.6-5.5-4.6c2.5,2.4,5.5,3.8,8.6,4.6H399.2z"/>
	<path class="st2" d="M307,229.8c5.5-0.6,12-1.6,16.7,2c-3.4-1.6-7.4-1.6-10.8-0.2c-5.7,2.2-11.3,5-16,8.9
		c-8,6.8-13.6,15.8-19.3,24.5c-4.5,7.1-9.6,13.9-14.3,20.9c2.7-5.7,6.4-10.9,9.7-16.3c3.7-5.8,6.7-11.9,10.2-17.7
		C289.2,243,295.4,231.9,307,229.8z"/>
	<path class="st3" d="M291.7,238.6c3.7-4.7,9-8.9,15.3-8.8c-11.5,2.1-17.8,13.2-23.9,22.1C285.6,247.2,288.5,242.8,291.7,238.6z"/>
	<path class="st2" d="M709.2,231.7c5.5-0.5,10.8,1.7,16.2,2.6c4.6,1.4,9.4,3.3,12.6,7c-2.8-2.1-6.1-3.8-9.7-4
		c-5.2-0.2-10.4-1.8-15.6-0.8c-5.6,0.9-10,5.1-13.5,9.2c-4.1,4.9-8.4,9.8-11.7,15.4c-4.1,7.5-6.3,15.7-8.2,24
		c-2.8,12-4.6,24.2-6.5,36.4c-1.7,1.4-3.8,2.5-6,3.1c3.3-20.4,5.4-41.2,12.4-60.8c2.9-8.1,7.4-15.6,13.6-21.6
		C697.4,237.5,702.5,232.5,709.2,231.7z"/>
	<path class="st3" d="M527.2,240.9c9-0.1,14.5,9,18.4,16c-3.9-4.8-8.4-10.6-15.2-10.3c-5.9,0.6-10.2,5.2-14.7,8.5
		c-8.6,6.2-17.3,12.4-24.4,20.3c-5.8,5.8-10.9,12.5-17.9,16.9c-5,3-9.5,6.7-13.2,11.1c-10.1,12.6-15.9,27.9-23.1,42.2
		c-7.4,15.3-18.1,28.8-29.4,41.5c-2.5,2.4-4.7,5.2-7.6,7c-2-0.3-3.8-1.7-5.3-3c4.3-1.7,7.7-4.8,10.9-8
		c11.5-12.4,21.5-26.2,29.3-41.2c8.6-16.2,15.8-33.5,27.6-47.8c4.9-6.2,11.2-10.9,16.8-16.2c5.6-5.4,10.6-11.3,16.1-16.8
		c6.8-6.8,14.9-11.9,23.1-16.9C521.2,242.7,524.1,241,527.2,240.9z"/>
	<path class="st2" d="M910.2,400c-4.1-4-7.8-8.4-11.6-12.7c-10.1-11.1-14-26.8-26.1-36.2c-2.6-2.3-6-3.3-9.4-3.1
		c-5.2,0.1-9.2-3.5-13.6-5.8c-7.2-4.4-15.7-6.8-21.8-12.8c-5.6-5.2-9.9-12.1-17.2-15.3c-4.4-1.9-9.1-0.1-13.6-0.6
		c-3.8-0.9-6.9-3.6-9.8-6.1c1.1-1.1,2.3-2.1,3.3-3.2c2.3-1.6,4.7-3.1,7.1-4.5c-3,2.8-5.5,6.1-7.6,9.6c5.7,4,12.3-1.7,18.4,0.5
		c9.4,2.7,13.6,13,22.7,16.2c7.5,2.4,14.7,5.5,21.6,9.3c3.4,2.2,7.6,1.7,11.4,2.8c5,1.8,8.6,6.1,11.6,10.3
		c4.8,6.6,8.5,13.9,12.9,20.9c7.1,10.9,15.2,21.2,24.1,30.6H910.2z"/>
	<path class="st2" d="M903.8,400c-8.1-8.1-12.3-19.3-20.7-27.2c-3-2.9-7.2-3.8-11.2-3.4c-6.3,0.6-11.6-3.5-16.8-6.4
		c-7.1-4.6-15.3-8-20.7-14.8c-5.8-7-10.6-15.3-18.8-19.8c-3.8-2.1-8.2-1.7-12.3-2.3c-4.3-1.2-7.5-4.5-10.6-7.4
		c-10.8-11.5-20.8-23.9-28.8-37.5c-5.1-8.4-9.7-17.2-16.2-24.6c-3.4-3.9-8.1-7.3-13.5-7.4c-6.2,0.2-12.8-1.2-18.8,1.2
		c-5.4,2.3-9.3,6.9-13,11.3c-4.6,5.8-9.2,11.7-12.2,18.5c-4.3,9.5-6.4,19.8-8.8,29.9c-1.5,2.1-2,5.3-4.1,6.7
		c3-18,5.8-36.9,16.1-52.3c5-7.1,9.6-15,17-19.9c6.7-3.9,14.8-2.8,22.1-2.1c8.6,1.5,13.9,9.3,18.8,15.7c4.8,7.3,8.8,15.2,13.5,22.6
		c6.8,11.3,15.5,21.5,24.6,31c3,3,6.4,6.2,10.6,7.3c4.4,0.5,9.2-0.5,13.3,1.9c7.8,4.2,12.5,12.1,18.4,18.3
		c5.4,5.7,12.8,8.8,19.4,12.8c3.6,2,7,4.4,10.9,5.8c3.6,1.3,7.5,0.5,11,1.9c4,1.5,7.2,4.5,9.9,7.8c6.8,8.3,10.6,18.7,18.1,26.6
		c2,2,3.9,4,6,5.9H903.8z"/>
	<path class="st2" d="M900.6,400c-3.5-4.2-6.9-8.5-11.7-11.2c-3.3-1.9-7.3-1.9-10.8-0.4c-5,2-9.6-1.3-13.9-3.5
		c-7.6-4.5-15.9-8.4-21.8-15.1c-6.1-7.1-10.5-15.6-17.9-21.4c-3.4-2.7-7.6-3.9-11.8-4.1c-6-0.3-10.5-4.8-14.4-8.8
		c-9.9-10.3-19.2-21.4-26.9-33.5c-5.2-8.3-9.6-17.2-15.7-24.9c-3.1-3.9-6.8-7.7-11.6-9.4c-4.6-1.6-9.6-1.2-14.3-1.8
		c-4.9-0.5-10.1-0.3-14.5,2.2c-5.7,3.2-10.4,7.7-15.1,12.2c-5.9,5.4-9.8,12.6-12.4,20c-0.6,2-2.2,3.3-3.4,4.9
		c1.7-6.7,3.8-13.3,7.1-19.3c2.7-5.3,6.9-9.5,10.6-14.1c3.6-4.4,7.2-9,12.1-12c4.1-2.5,9.1-3.2,13.9-2.8c4,0.3,8.2-0.5,12.1,0.6
		c5.5,1.8,9.5,6.2,13,10.6c8.2,10.4,13.6,22.7,21.4,33.3c4.7,6.8,10,13.1,15.5,19.3c4.1,4.5,8.2,9.3,13.5,12.5
		c3.9,2.5,8.7,1.2,12.9,2.8c9.3,3.9,14.3,13.2,20.3,20.7c6.2,8.5,16,12.9,24.6,18.3c3.7,2,7.4,5,11.8,4.3c3.2-0.6,6.6-1.6,9.8-0.2
		c8.7,4.2,12.7,13.4,18.6,20.6H900.6z"/>
	<path class="st2" d="M852.4,400c-4.7-5.5-8.5-11.8-14.3-16.4c-3.5-3-8.3-4.3-12.8-3.3c-4.6,1-9-1.2-12.4-4.1
		c-11.4-9.8-21.9-20.6-30.2-33.1c-7.2-10.8-13-23-23.4-31.1c-3.5-3-8.2-3.9-12.7-4.2c-7.1-1-13.2-5.2-20.1-6.7
		c-5-1.4-10.2-1.3-15.3-1.9c-4.8-0.6-9.4-2.8-14.3-2.4c-3.7,0-6.7,2.3-9.3,4.6c0-0.3,0.1-0.7,0.2-1c2.8-5.5,6-11.3,11.9-14.2
		c7.1-3.2,12.7-9.5,20.5-11.1c7.3-1.7,14.5,2,21.8,1.4c5.8-0.2,10.6,3.9,14.2,7.9c6.3,7.4,11,15.9,16,24.1
		c7.7,12.8,17.3,24.3,27.6,35.2c3.2,3.2,6.4,6.7,10.5,8.8c2.8,1.5,6,1.2,9,1.5c4.4,0.6,8.2,3.1,11.2,6.2c5.7,5.4,9.4,12.3,14.4,18.2
		c5.6,7.1,14.2,10.9,22,15.2c4.3,2.1,9.2,4.9,14.1,3.1c3.7-1.4,8-2.9,11.7-0.9c2.1,1.1,4,2.6,5.7,4.2h-31.6
		c-5.8-2.9-12-5.6-16.6-10.3c-8.4-8.5-13.2-21.3-25-25.9c-3.8-1.5-8.2-0.1-12-1.8c-4-1.9-7.2-5.1-10.3-8.2
		c-11.2-11.6-22-23.7-29.8-37.9c-5.4-9.1-10.7-18.8-19.3-25.3c-3.8-2.9-8.5-4.1-13.1-4.5c-6.6-0.7-13-3.4-19.8-2.6
		c-5.9,0.6-11.3,3.2-16.9,5c-4.4,1.4-8.9,3.4-11.8,7.1c3.2-2.7,7.4-3.6,11.4-2.9c6.2,1.1,12.4-1.3,18.6-0.8c6.3,0,12,2.9,17.9,4.7
		c4.4,1.5,9.3,0.8,13.6,2.7c4.3,1.9,7.6,5.4,10.5,9.1c7.4,9.6,12.5,20.8,19.8,30.5c5,6.8,10.9,13,16.7,19.2
		c4.5,4.4,8.8,9.2,14.3,12.3c5.1,2.9,11.4,0.4,16.5,3.3c8.7,4.8,13.2,14.1,19.4,21.4c1.6,1.9,3.4,3.5,5.3,4.9H852.4z"/>
	<path class="st3" d="M532.2,255.7c7.7-0.2,12.9,6.5,17.2,12.1c5.5,7.8,11.1,15.5,17.3,22.6c-7.2-6.4-12.5-14.5-19.1-21.5
		c-3.5-3.4-8.1-6.7-13.3-5.9c-6,1-10.2,5.9-14.5,9.8c-7.1,7.1-15.7,12.2-23.1,19c-8.1,6.8-14.7,15.9-25,19.7
		c-8.2,3-14.2,9.9-18.8,17c-6.6,10.1-11.2,21.3-17.2,31.8c-6.6,11.5-15.7,21.3-24.9,30.7c-2.2,1.5-3.8,5-6.9,3.9
		c10.2-9.5,19.1-20.3,26.7-32c11.2-17.4,18.2-37.5,32.4-52.9c5.2-5.9,12.5-9.5,18.3-14.7c6.1-5.1,11.3-11,17.3-16.2
		c6.7-6,14.3-10.9,21.1-16.7C523.3,259.3,527.3,256.1,532.2,255.7z"/>
	<path class="st3" d="M898.5,400c-1.8-1.6-3.6-3.1-5.7-4.2c-3.8-2.1-8-0.6-11.7,0.9c-4.9,1.8-9.8-1.1-14.1-3.1
		c-7.8-4.3-16.3-8-22-15.2c-5-5.9-8.8-12.9-14.4-18.2c-3-3.1-6.9-5.6-11.2-6.2c-3-0.3-6.3,0-9-1.5c-4.1-2.1-7.2-5.6-10.5-8.8
		c-10.2-10.8-19.9-22.4-27.6-35.2c-5.1-8.2-9.7-16.8-16-24.1c-3.7-4.1-8.4-8.2-14.2-7.9c-7.4,0.6-14.5-3.2-21.8-1.4
		c-7.8,1.6-13.4,7.9-20.5,11.1c-5.8,2.8-9.1,8.7-11.9,14.2c2.6-7.5,6.6-14.6,12.4-20c4.7-4.5,9.4-9,15.1-12.2
		c4.4-2.5,9.6-2.7,14.5-2.2c4.8,0.6,9.7,0.2,14.3,1.8c4.8,1.7,8.5,5.5,11.6,9.4c6.1,7.7,10.5,16.6,15.7,24.9
		c7.7,12.1,16.9,23.2,26.9,33.5c3.9,4,8.4,8.5,14.4,8.8c4.2,0.2,8.5,1.4,11.8,4.1c7.4,5.8,11.8,14.4,17.9,21.4
		c5.9,6.7,14.2,10.6,21.8,15.1c4.2,2.2,8.9,5.5,13.9,3.5c3.4-1.4,7.5-1.5,10.8,0.4c4.8,2.8,8.3,7,11.7,11.2H898.5z"/>
	<path class="st3" d="M907.1,400c-2.1-1.9-4-4-6-5.9c-7.5-7.8-11.3-18.3-18.1-26.6c-2.6-3.3-5.9-6.3-9.9-7.8
		c-3.6-1.3-7.5-0.5-11-1.9c-3.9-1.5-7.3-3.8-10.9-5.8c-6.6-4-14-7.1-19.4-12.8c-5.9-6.3-10.6-14.1-18.4-18.3
		c-4-2.4-8.8-1.4-13.3-1.9c-4.2-1.1-7.6-4.3-10.6-7.3c-9.2-9.5-17.8-19.7-24.6-31c6.4,9.3,13.5,18.2,21.5,26.2
		c1.5-0.7,2.8-1.7,4.2-2.6c-1.1,1.1-2.3,2.1-3.3,3.2c2.9,2.6,5.9,5.3,9.8,6.1c4.5,0.5,9.2-1.3,13.6,0.6c7.2,3.1,11.5,10.1,17.2,15.3
		c6.1,6,14.6,8.4,21.8,12.8c4.4,2.2,8.4,5.9,13.6,5.8c3.4-0.2,6.8,0.8,9.4,3.1c12.2,9.3,16.1,25.1,26.1,36.2
		c3.8,4.2,7.6,8.6,11.6,12.7H907.1z"/>
	<path class="st3" d="M912.7,400c-8.9-9.4-17-19.7-24.1-30.6c-4.3-6.9-8.1-14.2-12.9-20.9c-3.1-4.2-6.6-8.5-11.6-10.3
		c-3.7-1.2-7.9-0.6-11.4-2.8c-6.9-3.8-14.1-6.9-21.6-9.3c-9.1-3.2-13.3-13.5-22.7-16.2c-6.1-2.2-12.7,3.5-18.4-0.5
		c2.1-3.5,4.7-6.8,7.6-9.6c2-1.3,4.1-2.7,6.2-3.9c-4.2,4.3-7.5,9.4-9.6,15c2.3-0.5,5.5-1.2,6.2-3.8c2.2-5.6,5.3-10.8,9.5-15.2
		c1.7-1.4,3.4-2.6,5.3-3.7c-5.1,5.2-8.2,12-10.7,18.8c-0.8,1.9,2.3,1,3.4,1.4c2.7-8.2,5.5-17.3,12.5-22.8c1.4-0.7,2.8-1.3,4.2-1.8
		c-7.8,6-10.7,15.9-13.4,24.9c-0.7,1.3,1.4,1.5,2.2,2.1c2.9-9.9,6.3-21.8,15.4-28.3c1.3-0.3,2.7-0.4,4.1-0.3c-4,0.9-6,4.8-8.2,7.8
		c-4.6,6.6-7.2,14.4-9.2,22.1c4.2,3.3,8.6,7.1,14.2,7.4c8,0.8,15.3,4.3,22.8,6.8c5.8,1.3,12.1,2.9,15.9,7.9
		c7.7,9.7,12.9,21.1,19.8,31.4c6.4,9.7,13.4,18.9,20.5,28c1.8,2.1,3.5,4.4,5.5,6.3H912.7z"/>
	<path class="st2" d="M914.4,400c-2-2-3.7-4.2-5.5-6.3c-7.1-9.1-14.1-18.4-20.5-28c-6.9-10.3-12.1-21.6-19.8-31.4
		c-3.8-5-10.1-6.7-15.9-7.9c-7.5-2.5-14.8-6.1-22.8-6.8c-5.6-0.4-10-4.1-14.2-7.4c2-7.7,4.5-15.5,9.2-22.1c2.2-3,4.2-6.9,8.2-7.8
		c1.3,0.2,2.8,0.3,3.8,1.2c-3.7-0.8-6.2,2.6-8.1,5.1c-5.7,7-9.3,15.4-11.1,24.2c5.4,2.4,11.4,1,17.1,1.2c4.1,0.3,8,1.5,11.9,2.5
		c4.7,1.2,10,1.5,14,4.7c7.6,5.9,11.7,14.9,16.5,23.1c7.4,14.1,17,26.8,25.9,40c3.2,4.2,6,8.8,9.8,12.6c1.8,1.8,4.2,2.5,6.5,3.4
		H914.4z"/>
	<path class="st2" d="M824.8,283.7c1.3-0.7,2.7-1,4.2-1.3c-9.1,6.5-12.4,18.4-15.4,28.3c-0.8-0.6-2.9-0.7-2.2-2.1
		C814.1,299.6,817,289.7,824.8,283.7z"/>
	<path class="st3" d="M919.3,400c-2.3-0.9-4.7-1.6-6.5-3.4c-3.8-3.7-6.6-8.3-9.8-12.6c-8.9-13.2-18.6-25.9-25.9-40
		c-4.7-8.2-8.9-17.1-16.5-23.1c-4-3.1-9.3-3.4-14-4.7c-3.9-1.1-7.8-2.3-11.9-2.5c-5.7-0.2-11.7,1.2-17.1-1.2
		c1.8-8.7,5.5-17.2,11.1-24.2c1.9-2.5,4.5-5.9,8.1-5.1c1.8,0.7,3.5,1.5,5,2.7c-2.2-0.9-5-1.4-7.1,0.1c-8.7,6.3-13.3,16.5-16.1,26.6
		c1.2,0.1,1.1-1.6,1.6-2.4c3.4-8.5,7.9-17.8,16.8-21.6c3.5-1.5,7.5-0.2,10.3,2.1c2,2.2,4,4.5,5.6,7c-3.2-3.9-7.8-7.1-13.1-5.9
		c-9.6,1.9-15.7,10.9-19.4,19.3c3.6-4.9,7.4-10.1,13.3-12.5c4.3-1.5,8.9-3,13.4-2c6.4,2.1,9.7,8.4,13.4,13.4
		c9.7,16.9,19.5,33.8,29.3,50.6c-4.2-6.2-8-12.8-12-19.1c-7.2-11.3-11.8-24.3-21.1-34.1c-2.8-2.9-6.3-6-10.6-5.6
		c-3.5,0.6-7.1,0.7-10.7,0.9c-6.2,0.9-11.2,5.2-15.3,9.6c4.5-1.4,8.7-3.9,13.5-4.3c5.1-0.8,10,1.3,15,1.1c5.2-0.5,9.1,3.5,12.4,7
		c8.4,9,12.6,20.9,19.1,31.2c6.4,10.1,13,20.1,19.5,30.1c3.7,5.3,6.7,11.3,11.8,15.5c3.7,1.9,7.3,4,10.4,6.9H919.3z"/>
	<path class="st2" d="M834.8,286.1c2.1-1.5,4.8-1,7.1-0.1c2,1.3,4,2.9,5.5,4.8c-2.8-2.4-6.7-3.7-10.3-2.1
		c-8.9,3.8-13.4,13.2-16.8,21.6c-0.5,0.8-0.4,2.5-1.6,2.4C821.5,302.7,826.1,292.5,834.8,286.1z"/>
	<path class="st2" d="M815.3,288.2c1.6-1.1,3.4-2,5.2-2.7c-7,5.6-9.8,14.6-12.5,22.8c-1.1-0.4-4.2,0.5-3.4-1.4
		C807.1,300.1,810.2,293.4,815.3,288.2z"/>
	<path class="st2" d="M803.9,295.9c2-1.4,4-2.7,6.1-4c-4.2,4.3-7.3,9.6-9.5,15.2c-0.6,2.7-3.8,3.4-6.2,3.8
		C796.5,305.4,799.8,300.2,803.9,295.9z"/>
	<path class="st2" d="M820.5,311.2c3.7-8.4,9.8-17.4,19.4-19.3c5.3-1.1,9.9,2,13.1,5.9c2.7,4,5.5,8,7.7,12.3
		c-3.7-5.1-7-11.4-13.4-13.4c-4.5-1-9.2,0.4-13.4,2C828,301.1,824.1,306.3,820.5,311.2z"/>
	<path class="st2" d="M849,400c-3.1-2.7-6.3-5.3-10.4-6.2c-5.2-1-10.5,2.4-15.6,0.4c-6.4-2.6-11.4-7.4-16.6-11.8
		c-9.2-7.7-17.1-16.8-23.3-27c-5.8-8.5-10.9-18.1-19.9-23.7c-4.7-3.2-10.8-1-15.7-3.4c-5.2-2.2-9.8-5.5-14.9-7.8
		c-7.5-3.9-16.2-5.1-23-10.3c-4.9-3.4-10-7.9-16.5-7.3c-4.8,0.6-7.9,4.6-11.1,7.7c3.6-5,7.9-10.8,14.5-11.7
		c4.8-0.5,8.8,2.6,12.8,4.6c5.2,3,11.2,4,16.8,5.8c9.1,2.7,16.9,9.1,26.6,10.2c5.1,0.7,10,2.9,13.6,6.6
		c10.2,9.7,14.9,23.5,23.9,34.1c6.2,7.4,13.3,13.9,20.5,20.3c3.2,2.6,6.4,5.4,10.3,6.9c4.9,1.8,10-1.7,14.8,0.5
		c6.2,2.3,10.7,7.3,15,12.2H849z"/>
	<path class="st2" d="M921.8,400c-3-2.9-6.7-5-10.4-6.9c-5.1-4.2-8.1-10.2-11.8-15.5c-6.5-10.1-13.1-20-19.5-30.1
		c-6.4-10.4-10.6-22.2-19.1-31.2c-3.3-3.5-7.2-7.4-12.4-7c-5.1,0.3-10-1.9-15-1.1c-4.8,0.5-9,3-13.5,4.3c4.1-4.4,9.2-8.7,15.3-9.6
		c3.6-0.1,7.2-0.3,10.7-0.9c4.3-0.4,7.8,2.7,10.6,5.6c9.4,9.8,14,22.8,21.1,34.1c4,6.4,7.8,12.9,12,19.1c2.9,4.4,5.5,9,8.4,13.5
		c3.4,5.9,7.2,11.9,12.7,16.1c2.6,1.8,5,3.9,7.5,5.8c1.2,1.2,2.4,2.4,3.5,3.7H921.8z"/>
	<path class="st2" d="M84,400c4.7-6.4,8.6-13.4,12.7-20.3c9.5-16.5,20-32.4,31.1-47.8c3.2-3.7,6.4-9.4,12-9.2
		c7.1,1.6,11.7,8,17.3,12.2c-0.6-0.9-1.2-1.9-1.5-3c-1.5-3.8-3.1-7.6-5.1-11.2c-1.7-2.9-4.2-5.9-7.8-6.1c-2.9,0-5.3,1.9-7.5,3.6
		c1.2-1.9,3.3-3.2,5.1-4.3c3.9-1,8.2,0.8,10.4,4.1c3.1,4.7,4.6,10.3,6.4,15.6c0.3,1.3,0.5,2.9,2,3.5c-1.5-5.8-3-11.7-5.6-17.1
		c-1.8-4-5.8-7.4-10.4-7.1c1.3-0.4,2.6-0.4,3.9-0.4c4.1,1.2,6.9,4.7,8.5,8.5c2.5,5.8,3.9,12,5.5,18.1c-3.1-2.4-6.5-4.5-10.1-6
		c-3.3-1.3-5.9-3.8-9.2-5.2c-3-1.1-6.2,0.1-8.6,2c-5.9,4.3-9.5,10.7-13.3,16.8c-5.6,9.5-12.3,18.4-18.1,27.8
		c-5.4,8.4-10.3,17.3-16,25.5H84z"/>
	<path class="st3" d="M89.7,400c0.5-0.7,1-1.3,1.4-2c8.1-11.9,17.1-23.3,23.8-36.1c4.1-7.1,8.5-14.5,15.5-19.1c2.6-1.9,6-2.5,9-1.5
		c4.9,1.6,10,0,14.9,0.5c5,0.4,9.6,2.6,14.5,3.6c-0.7-1-2.4-1-2.5-2.4c-1.7-6.2-3.4-12.5-5.7-18.5c-1.6-4.1-3.5-8.2-6.9-11.2
		c1,0.2,2,0.5,3,0.9c7.1,8.5,9.9,19.7,13,30.1c-0.1,2.2,2.5,1.5,3.9,1.2c-2.9-10.6-7-21.1-13.7-29.9c1.3,0.7,2.5,1.7,3.6,2.6
		c6.5,7.7,10.8,16.9,13.9,26.4c-4.3,1.8-8.8,3.3-13.5,2.7c-6.7-0.7-13.5-0.3-20,1.3c-4.9,1.2-10.1,0.3-14.9,2.1
		c-3.2,1.3-5.6,4-7.8,6.6c-4.8,6.3-8.4,13.4-12.5,20.1c-4.4,7.4-9.6,14.3-14.9,21c-0.4,0.5-0.8,1-1.2,1.5H89.7z"/>
	<path class="st3" d="M85.6,400c5.7-8.2,10.6-17.1,16-25.5c5.8-9.4,12.5-18.3,18.1-27.8c3.8-6.1,7.4-12.5,13.3-16.8
		c2.4-1.8,5.7-3.1,8.6-2c3.3,1.4,5.9,3.9,9.2,5.2c3.6,1.5,7,3.6,10.1,6c-1.6-6.1-3-12.3-5.5-18.1c-1.6-3.8-4.4-7.4-8.5-8.5
		c1,0,2,0.1,3,0.2c4.3,1.7,6.3,6.3,8,10.3c2.6,6.1,3.5,12.9,5.9,19c-4.6-2.7-9.6-4.8-14.9-5.3c-4.6-0.3-8.4-4.8-13.2-3.1
		c-10.6,4.9-15.9,15.8-21.4,25.4c-4.3,7.4-9.6,14.2-14.2,21.5c-4.4,6.4-8.2,13.3-13,19.4H85.6z"/>
	<path class="st2" d="M87.1,400c4.8-6.1,8.6-13,13-19.4c4.6-7.2,9.9-14,14.2-21.5c5.5-9.6,10.8-20.5,21.4-25.4
		c4.8-1.7,8.6,2.8,13.2,3.1c5.4,0.4,10.3,2.6,14.9,5.3c-2.5-6.1-3.3-12.9-5.9-19c-1.7-4-3.7-8.6-8-10.3c1.2,0.1,2.5,0.3,3.7,0.6
		c3.4,2.9,5.3,7.1,6.9,11.2c2.3,6,4.1,12.3,5.7,18.5c0.1,1.4,1.8,1.5,2.5,2.4c-4.9-1-9.5-3.2-14.5-3.6c-5-0.5-10.1,1.1-14.9-0.5
		c-3-1-6.4-0.3-9,1.5c-7,4.6-11.4,12-15.5,19.1c-6.7,12.8-15.7,24.2-23.8,36.1c-0.5,0.7-0.9,1.3-1.4,2H87.1z"/>
	<path class="st3" d="M140.2,313.9c0.9-0.5,1.8-0.8,2.7-1.1c4.6-0.3,8.6,3.2,10.4,7.1c2.6,5.4,4.1,11.3,5.6,17.1
		c-1.5-0.6-1.6-2.2-2-3.5c-1.8-5.3-3.3-10.8-6.4-15.6C148.4,314.7,144.2,312.9,140.2,313.9z"/>
	<path class="st2" d="M156.6,314.2c1.2,0.3,2.3,0.8,3.3,1.5c6.7,8.8,10.7,19.3,13.7,29.9c-1.4,0.3-4,1-3.9-1.2
		C166.5,333.9,163.8,322.7,156.6,314.2z"/>
	<path class="st3" d="M135.1,318.3c2.2-1.6,4.6-3.6,7.5-3.6c3.6,0.2,6.1,3.2,7.8,6.1c2.1,3.6,3.6,7.4,5.1,11.2
		c-3-4.6-5.5-9.8-9.6-13.6c-1.6-1.4-3.6-2.5-5.8-1.9c-3.3,1-5.5,3.7-7.8,6c-8,9.1-14.7,19.3-21.4,29.3
		C117.8,339.8,126.2,328.7,135.1,318.3z"/>
	<path class="st2" d="M140.2,316.4c2.2-0.5,4.3,0.5,5.8,1.9c4.1,3.9,6.5,9,9.6,13.6c-0.1,0.1-0.2,0.3-0.2,0.4
		c-2.8-3.9-6-7.6-9.6-10.8c-2-1.6-4.3-3.3-7-2.6c-2.9,1-4.9,3.4-6.9,5.7c-14.4,16.9-25.3,36.2-36.4,55.3c4.9-9.5,10.1-19,15.6-28.2
		c6.7-10,13.4-20.2,21.4-29.3C134.7,320.1,136.9,317.4,140.2,316.4z"/>
	<path class="st3" d="M82.8,400c4.4-5.3,7.7-11.6,11.1-17.4c0.7-0.8,1.1-1.7,1.5-2.6c11.1-19.1,22.1-38.4,36.4-55.3
		c1.9-2.2,4-4.6,6.9-5.7c2.7-0.7,5,1,7,2.6c3.7,3.1,6.8,6.8,9.6,10.8c0.1-0.1,0.2-0.3,0.2-0.4c0.3,1.1,0.9,2,1.5,3
		c-5.6-4.2-10.2-10.6-17.3-12.2c-5.6-0.2-8.8,5.4-12,9.2c-11.1,15.4-21.6,31.3-31.1,47.8c-4.1,6.8-8,13.8-12.7,20.3H82.8z"/>
	<path class="st3" d="M169.1,323c2.2,1.7,4.3,3.4,6.4,5.2c4.2,4.7,7.9,9.8,11.4,15c2.1,1.6,4.3,3.2,5.8,5.4
		c-3.1-2.8-6.3-6.8-11.1-5.4C178.1,336,174.5,328.9,169.1,323z"/>
	<path class="st2" d="M190.7,337.7c3.8,1.5,7.5,3.4,11.4,4.4c4.8,2.3,10.1-1.5,15,0c3.8,1.1,6.4,4.6,8.6,7.7
		c-1.5,1.2-2.8,2.5-4.5,3.5c-2-1.8-3.5-4.2-6-5.4c-4.1-2.1-9-0.7-13.1-2.6C198,343.3,194.6,340.1,190.7,337.7z"/>
	<path class="st2" d="M217.6,339.5c5-1.2,9.1,2.5,11.9,6.1c-0.4,0.5-0.8,1-1.2,1.5C225.6,343.7,222.5,339.2,217.6,339.5z"/>
	<path class="st2" d="M280.5,400c5.3-4.3,9.7-9.8,16.2-12.2c2.8-1.2,5.9-0.8,8.7,0.2c-1.1-1-2.9-1-4.3-1.4
		c7.3-0.6,11.8,6.2,17.4,9.6c-2.8-0.9-4.9-3.2-7.4-4.6c3.6,3.9,8.6,7.2,14.2,6.9c9.8-0.4,19.8,0.7,29.4-1.3c-3.5,2-8.1,1.9-12.1,2.3
		c-8.6,0-17.8,1.7-25.9-2.1c-6.3-3.2-12.3-8.7-20-7.5c-6.5,1.1-10.8,5.9-15.3,10.2H280.5z"/>
	<path class="st2" d="M277.8,400c1.5-0.8,2.8-1.8,4.2-2.7c-0.8,1-1.8,1.9-2.8,2.7H277.8z"/>
	<path class="st2" d="M134.5,400c5.2-2.9,10.5-5.7,15.9-8.2c6.2-2.9,9.8-9,14.6-13.5c3.4-3.2,8.3-5.5,13-3.9c5.7,2,8.6,8.9,15,9.6
		c7.6,0.7,15.1,1.8,22.7,2.4c7,0.1,11.6-6.3,18.2-7.4c2.4-0.5,4.8,0.2,6.9,1.4c6.6,4.1,9.5,12.4,16.6,15.8c3.3,1.6,6.7,2.7,10.2,3.7
		h-15.8c-5-5.1-8.2-12.4-15.2-15.2c-5.7-2-10.7,1.8-15.2,4.6c-5.4,3.6-12,1.5-18,1.1c-5.8-0.8-12.2,0.1-17.5-2.9
		c-4.1-2.3-7.3-6.6-12.3-7.2c-4.2-0.6-7.8,2.2-10.5,5c-5,4.7-8.6,11-14.8,14.2c-0.3,0.2-0.6,0.3-1,0.5H134.5z"/>
	<path class="st3" d="M898.3,374.3c2.3,3,4.3,6.5,7.1,9.1c3.3,5.1,9.1,8.2,13,12.8c-2.6-1.9-4.9-4-7.5-5.8
		C905.5,386.2,901.7,380.3,898.3,374.3z"/>
	<path class="st2" d="M81.5,400c0.7-0.9,1.3-1.8,2-2.7c3-3.4,6-7.3,7.9-11.4c0.7-1.2,1.6-2.3,2.5-3.4c-3.5,5.9-6.7,12.2-11.1,17.4
		H81.5z"/>
	<path class="st2" d="M153.7,400c5.1-5.3,9.4-12.2,17-13.5c6.9-0.1,10.6,7.6,17.2,8.2c8,0.5,16,0.3,24,1.2
		c8.5,0.8,13.9-9.5,22.6-7.4c5.9,1.7,9,6.9,12.5,11.6h-2.9c-2.2-2.8-4.3-5.6-7.4-7.4c-2.5-1.7-5.7-2.2-8.6-1.3
		c-4.8,1.5-8.3,5.3-12.8,7.1c-4.4,1.5-9.2,0.6-13.8,0.8c-5.5-0.3-11,0.6-16.5,0.4c-6.1-0.9-9.7-8-16.3-7.2c-5,0.8-8.7,4.1-12.2,7.5
		H153.7z"/>
	<path class="st2" d="M219.3,400c3.2-2.2,6.7-3.8,10.6-3.2c2.5,0.5,4.6,1.8,6.6,3.2h-2.6c-1.4-0.7-2.9-1.3-4.6-1.5
		c-2.9-0.5-5.6,0.3-8.1,1.5H219.3z"/>
	<path class="st3" d="M356.2,400c0.3-0.2,0.7-0.4,1-0.5c4.8-2.7,8.9-6.8,14.3-8.5c3.8-1.3,8.2-1.2,11.8,0.8
		c-2.4-0.5-4.9-1.3-7.3-0.4c-5.6,1.5-9.8,5.3-14.4,8.7H356.2z"/>
	<path class="st3" d="M285.9,400c3.6-2.5,7.3-4.6,11.9-4.9c5.4-0.5,9.7,2.3,14.2,4.9h-6.9c-2.9-1.7-5.9-3-9.5-2.8
		c-2.6,0.5-4.9,1.5-7.1,2.8H285.9z"/>
	<path class="st2" d="M713.5,400c1.3-0.4,2.7-0.7,4.1-0.8c2-0.3,4.4,0,6.4,0.8H713.5z"/>
	<path class="st2" d="M620.3,400c5.1-3.2,9.9-7.1,16.1-7.5c6.7-0.3,11.8,3.8,17.1,7.5h-0.8c-4.7-3.7-9.7-7.2-16-6.7
		c-5.1,0.8-9.2,3.7-13.3,6.7H620.3z"/>
	<path class="st2" d="M539.2,400c3.4-2.4,7-4.4,11.3-4.9c5.4-0.6,10,2.1,14.3,4.9h-1.4c-3.8-2.4-7.9-4.3-12.6-3.9
		c-3.8,0.4-7,2-10.1,3.9H539.2z"/>
	<path class="st2" d="M216.2,400c0.2-0.1,0.3-0.2,0.5-0.3c4.8-3.2,9.7-8.1,16-6.9c4,1.2,6.9,4.1,9.5,7.2h-1.1
		c-2.5-2.8-5.3-5.4-9.1-6.1c-3-0.6-6.4,0.4-8.8,2.2c0.8-0.3,1.5-0.7,2.4-0.9c-0.7,0.9-3,1.1-2.5,2c-0.9-0.4-1.9,1.5-1.9,0.1
		c-1.2,0.9-2.3,1.8-3.5,2.7H216.2z"/>
	<path class="st2" d="M238.2,400c-2-1.5-4.1-2.8-6.6-3.6c-2.6-1-5.4-0.5-8,0.3c4.4-2.9,10.3-1.5,14.2,1.7c1.4,1.2,1.4,1.2,0,0
		c-2.5-2.8-6.3-4.3-10.1-3.9c5-1.2,9,2.1,12.6,5.5H238.2z"/>
	<path class="st2" d="M160.9,400c2.3-1.4,4.9-2.4,7.6-2.2c2.1,0.2,4,1.1,5.8,2.2H160.9z"/>
	<path class="st3" d="M393.7,400c-1.7-1.6-3.3-3.3-4.9-4.8c2.2,1.4,4.2,3.2,6.4,4.8H393.7z"/>
	<path class="st2" d="M367.5,400c2.8-1.8,5.7-3.4,9-4.1c4.7-0.7,8.6,1.4,12.1,4.1H367.5z"/>
	<path class="st3" d="M237.8,398.4"/>
</g>
<path class="st4" d="M523.1,265.6c0,8,6.5,14.6,14.6,14.6c8,0,14.6-6.5,14.6-14.6c0-8-6.5-14.6-14.6-14.6
	C529.7,251,523.1,257.6,523.1,265.6z"/>
<g>
	<path class="st3" d="M847.2,220.7c-0.3-0.3-0.8-0.3-1.1,0c-0.3,0.3-0.3,0.8,0,1.1c0.3,0.3,0.8,0.3,1.1,0
		C847.5,221.5,847.5,221,847.2,220.7z M846.3,221.6c-0.2-0.2-0.2-0.5,0-0.7c0.2-0.2,0.5-0.2,0.7,0c0.2,0.2,0.2,0.5,0,0.7
		C846.8,221.8,846.5,221.8,846.3,221.6z"/>
	<path class="st3" d="M850.8,217.1c-0.3-0.3-0.8-0.3-1.1,0c-0.3,0.3-0.3,0.8,0,1.1c0.3,0.3,0.8,0.3,1.1,0
		C851.1,217.9,851.1,217.4,850.8,217.1z M849.9,218c-0.2-0.2-0.2-0.5,0-0.7c0.2-0.2,0.5-0.2,0.7,0c0.2,0.2,0.2,0.5,0,0.7
		C850.4,218.2,850.1,218.2,849.9,218z"/>
	<path class="st3" d="M854.3,213.6c-0.3-0.3-0.8-0.3-1.1,0c-0.3,0.3-0.3,0.8,0,1.1c0.3,0.3,0.8,0.3,1.1,0
		C854.6,214.4,854.6,213.9,854.3,213.6z M853.4,214.5c-0.2-0.2-0.2-0.5,0-0.7c0.2-0.2,0.5-0.2,0.7,0c0.2,0.2,0.2,0.5,0,0.7
		C853.9,214.7,853.6,214.7,853.4,214.5z"/>
	<path class="st3" d="M857.9,210c-0.3-0.3-0.8-0.3-1.1,0c-0.3,0.3-0.3,0.8,0,1.1c0.3,0.3,0.8,0.3,1.1,0
		C858.2,210.8,858.2,210.3,857.9,210z M857,210.9c-0.2-0.2-0.2-0.5,0-0.7c0.2-0.2,0.5-0.2,0.7,0c0.2,0.2,0.2,0.5,0,0.7
		C857.5,211.1,857.2,211.1,857,210.9z"/>
	<path class="st3" d="M861.5,206.5c-0.3-0.3-0.8-0.3-1.1,0c-0.3,0.3-0.3,0.8,0,1.1c0.3,0.3,0.8,0.3,1.1,0
		C861.8,207.3,861.8,206.8,861.5,206.5z M860.6,207.4c-0.2-0.2-0.2-0.5,0-0.7c0.2-0.2,0.5-0.2,0.7,0c0.2,0.2,0.2,0.5,0,0.7
		C861,207.5,860.7,207.5,860.6,207.4z"/>
	<path class="st3" d="M865,202.9c-0.3-0.3-0.8-0.3-1.1,0c-0.3,0.3-0.3,0.8,0,1.1c0.3,0.3,0.8,0.3,1.1,0
		C865.3,203.7,865.3,203.2,865,202.9z M864.1,203.8c-0.2-0.2-0.2-0.5,0-0.7c0.2-0.2,0.5-0.2,0.7,0c0.2,0.2,0.2,0.5,0,0.7
		C864.6,204,864.3,204,864.1,203.8z"/>
	<path class="st3" d="M868.6,199.3c-0.3-0.3-0.8-0.3-1.1,0c-0.3,0.3-0.3,0.8,0,1.1c0.3,0.3,0.8,0.3,1.1,0
		C868.9,200.1,868.9,199.6,868.6,199.3z M867.7,200.2c-0.2-0.2-0.2-0.5,0-0.7c0.2-0.2,0.5-0.2,0.7,0c0.2,0.2,0.2,0.5,0,0.7
		C868.2,200.4,867.9,200.4,867.7,200.2z"/>
	<path class="st3" d="M872.1,195.8c-0.3-0.3-0.8-0.3-1.1,0c-0.3,0.3-0.3,0.8,0,1.1c0.3,0.3,0.8,0.3,1.1,0
		C872.4,196.6,872.4,196.1,872.1,195.8z M871.2,196.7c-0.2-0.2-0.2-0.5,0-0.7c0.2-0.2,0.5-0.2,0.7,0c0.2,0.2,0.2,0.5,0,0.7
		C871.7,196.9,871.4,196.9,871.2,196.7z"/>
	<path class="st3" d="M875.7,192.2c-0.3-0.3-0.8-0.3-1.1,0c-0.3,0.3-0.3,0.8,0,1.1c0.3,0.3,0.8,0.3,1.1,0
		C876,193,876,192.5,875.7,192.2z M874.8,193.1c-0.2-0.2-0.2-0.5,0-0.7c0.2-0.2,0.5-0.2,0.7,0c0.2,0.2,0.2,0.5,0,0.7
		C875.3,193.3,875,193.3,874.8,193.1z"/>
	<path class="st3" d="M879.2,188.7c-0.3-0.3-0.8-0.3-1.1,0c-0.3,0.3-0.3,0.8,0,1.1c0.3,0.3,0.8,0.3,1.1,0
		C879.6,189.5,879.5,189,879.2,188.7z M878.3,189.6c-0.2-0.2-0.2-0.5,0-0.7c0.2-0.2,0.5-0.2,0.7,0c0.2,0.2,0.2,0.5,0,0.7
		C878.8,189.7,878.5,189.7,878.3,189.6z"/>
	<path class="st3" d="M882.8,185.1c-0.3-0.3-0.8-0.3-1.1,0c-0.3,0.3-0.3,0.8,0,1.1c0.3,0.3,0.8,0.3,1.1,0
		C883.1,185.9,883.1,185.4,882.8,185.1z M881.9,186c-0.2-0.2-0.2-0.5,0-0.7c0.2-0.2,0.5-0.2,0.7,0c0.2,0.2,0.2,0.5,0,0.7
		C882.4,186.2,882.1,186.2,881.9,186z"/>
	<path class="st3" d="M886.4,181.6c-0.3-0.3-0.8-0.3-1.1,0c-0.3,0.3-0.3,0.8,0,1.1c0.3,0.3,0.8,0.3,1.1,0
		C886.7,182.4,886.7,181.9,886.4,181.6z M885.5,182.4c-0.2-0.2-0.2-0.5,0-0.7c0.2-0.2,0.5-0.2,0.7,0c0.2,0.2,0.2,0.5,0,0.7
		C886,182.6,885.7,182.6,885.5,182.4z"/>
	<path class="st3" d="M854.1,227.6c-0.3-0.3-0.8-0.3-1.1,0c-0.3,0.3-0.3,0.8,0,1.1c0.3,0.3,0.8,0.3,1.1,0
		C854.4,228.4,854.4,227.9,854.1,227.6z M853.2,228.5c-0.2-0.2-0.2-0.5,0-0.7c0.2-0.2,0.5-0.2,0.7,0c0.2,0.2,0.2,0.5,0,0.7
		C853.7,228.6,853.4,228.6,853.2,228.5z"/>
	<path class="st3" d="M857.6,224c-0.3-0.3-0.8-0.3-1.1,0c-0.3,0.3-0.3,0.8,0,1.1c0.3,0.3,0.8,0.3,1.1,0
		C858,224.8,858,224.3,857.6,224z M856.8,224.9c-0.2-0.2-0.2-0.5,0-0.7c0.2-0.2,0.5-0.2,0.7,0c0.2,0.2,0.2,0.5,0,0.7
		C857.2,225.1,856.9,225.1,856.8,224.9z"/>
	<path class="st3" d="M861.2,220.5c-0.3-0.3-0.8-0.3-1.1,0c-0.3,0.3-0.3,0.8,0,1.1c0.3,0.3,0.8,0.3,1.1,0
		C861.5,221.2,861.5,220.8,861.2,220.5z M860.3,221.3c-0.2-0.2-0.2-0.5,0-0.7c0.2-0.2,0.5-0.2,0.7,0c0.2,0.2,0.2,0.5,0,0.7
		C860.8,221.5,860.5,221.5,860.3,221.3z"/>
	<path class="st3" d="M864.8,216.9c-0.3-0.3-0.8-0.3-1.1,0c-0.3,0.3-0.3,0.8,0,1.1c0.3,0.3,0.8,0.3,1.1,0
		C865.1,217.7,865.1,217.2,864.8,216.9z M863.9,217.8c-0.2-0.2-0.2-0.5,0-0.7c0.2-0.2,0.5-0.2,0.7,0c0.2,0.2,0.2,0.5,0,0.7
		C864.4,218,864.1,218,863.9,217.8z"/>
	<path class="st3" d="M868.3,213.3c-0.3-0.3-0.8-0.3-1.1,0c-0.3,0.3-0.3,0.8,0,1.1c0.3,0.3,0.8,0.3,1.1,0
		C868.6,214.1,868.6,213.6,868.3,213.3z M867.4,214.2c-0.2-0.2-0.2-0.5,0-0.7c0.2-0.2,0.5-0.2,0.7,0c0.2,0.2,0.2,0.5,0,0.7
		C867.9,214.4,867.6,214.4,867.4,214.2z"/>
	<path class="st3" d="M871.9,209.8c-0.3-0.3-0.8-0.3-1.1,0c-0.3,0.3-0.3,0.8,0,1.1c0.3,0.3,0.8,0.3,1.1,0
		C872.2,210.6,872.2,210.1,871.9,209.8z M871,210.7c-0.2-0.2-0.2-0.5,0-0.7c0.2-0.2,0.5-0.2,0.7,0c0.2,0.2,0.2,0.5,0,0.7
		C871.5,210.9,871.2,210.9,871,210.7z"/>
	<path class="st3" d="M875.4,206.2c-0.3-0.3-0.8-0.3-1.1,0c-0.3,0.3-0.3,0.8,0,1.1c0.3,0.3,0.8,0.3,1.1,0
		C875.7,207,875.7,206.5,875.4,206.2z M874.5,207.1c-0.2-0.2-0.2-0.5,0-0.7c0.2-0.2,0.5-0.2,0.7,0c0.2,0.2,0.2,0.5,0,0.7
		C875,207.3,874.7,207.3,874.5,207.1z"/>
	<path class="st3" d="M879,202.7c-0.3-0.3-0.8-0.3-1.1,0c-0.3,0.3-0.3,0.8,0,1.1c0.3,0.3,0.8,0.3,1.1,0
		C879.3,203.5,879.3,203,879,202.7z M878.1,203.6c-0.2-0.2-0.2-0.5,0-0.7c0.2-0.2,0.5-0.2,0.7,0c0.2,0.2,0.2,0.5,0,0.7
		C878.6,203.7,878.3,203.7,878.1,203.6z"/>
	<path class="st3" d="M882.6,199.1c-0.3-0.3-0.8-0.3-1.1,0c-0.3,0.3-0.3,0.8,0,1.1c0.3,0.3,0.8,0.3,1.1,0
		C882.9,199.9,882.9,199.4,882.6,199.1z M881.7,200c-0.2-0.2-0.2-0.5,0-0.7c0.2-0.2,0.5-0.2,0.7,0c0.2,0.2,0.2,0.5,0,0.7
		C882.2,200.2,881.8,200.2,881.7,200z"/>
	<path class="st3" d="M886.1,195.5c-0.3-0.3-0.8-0.3-1.1,0c-0.3,0.3-0.3,0.8,0,1.1c0.3,0.3,0.8,0.3,1.1,0
		C886.4,196.3,886.4,195.8,886.1,195.5z M885.2,196.4c-0.2-0.2-0.2-0.5,0-0.7c0.2-0.2,0.5-0.2,0.7,0c0.2,0.2,0.2,0.5,0,0.7
		C885.7,196.6,885.4,196.6,885.2,196.4z"/>
	<path class="st3" d="M861,234.4c-0.3-0.3-0.8-0.3-1.1,0c-0.3,0.3-0.3,0.8,0,1.1c0.3,0.3,0.8,0.3,1.1,0
		C861.3,235.2,861.3,234.7,861,234.4z M860.1,235.3c-0.2-0.2-0.2-0.5,0-0.7c0.2-0.2,0.5-0.2,0.7,0c0.2,0.2,0.2,0.5,0,0.7
		C860.6,235.5,860.3,235.5,860.1,235.3z"/>
	<path class="st3" d="M864.5,230.9c-0.3-0.3-0.8-0.3-1.1,0c-0.3,0.3-0.3,0.8,0,1.1c0.3,0.3,0.8,0.3,1.1,0
		C864.8,231.7,864.8,231.2,864.5,230.9z M863.6,231.8c-0.2-0.2-0.2-0.5,0-0.7c0.2-0.2,0.5-0.2,0.7,0c0.2,0.2,0.2,0.5,0,0.7
		C864.1,232,863.8,232,863.6,231.8z"/>
	<path class="st3" d="M868.1,227.3c-0.3-0.3-0.8-0.3-1.1,0c-0.3,0.3-0.3,0.8,0,1.1c0.3,0.3,0.8,0.3,1.1,0
		C868.4,228.1,868.4,227.6,868.1,227.3z M867.2,228.2c-0.2-0.2-0.2-0.5,0-0.7c0.2-0.2,0.5-0.2,0.7,0c0.2,0.2,0.2,0.5,0,0.7
		C867.7,228.4,867.4,228.4,867.2,228.2z"/>
	<path class="st3" d="M871.6,223.8c-0.3-0.3-0.8-0.3-1.1,0c-0.3,0.3-0.3,0.8,0,1.1c0.3,0.3,0.8,0.3,1.1,0
		C871.9,224.6,871.9,224.1,871.6,223.8z M870.7,224.7c-0.2-0.2-0.2-0.5,0-0.7c0.2-0.2,0.5-0.2,0.7,0c0.2,0.2,0.2,0.5,0,0.7
		C871.2,224.8,870.9,224.8,870.7,224.7z"/>
	<path class="st3" d="M875.2,220.2c-0.3-0.3-0.8-0.3-1.1,0c-0.3,0.3-0.3,0.8,0,1.1c0.3,0.3,0.8,0.3,1.1,0
		C875.5,221,875.5,220.5,875.2,220.2z M874.3,221.1c-0.2-0.2-0.2-0.5,0-0.7c0.2-0.2,0.5-0.2,0.7,0c0.2,0.2,0.2,0.5,0,0.7
		C874.8,221.3,874.5,221.3,874.3,221.1z"/>
	<path class="st3" d="M878.8,216.7c-0.3-0.3-0.8-0.3-1.1,0c-0.3,0.3-0.3,0.8,0,1.1c0.3,0.3,0.8,0.3,1.1,0
		C879.1,217.4,879.1,217,878.8,216.7z M877.9,217.5c-0.2-0.2-0.2-0.5,0-0.7c0.2-0.2,0.5-0.2,0.7,0c0.2,0.2,0.2,0.5,0,0.7
		C878.3,217.7,878,217.7,877.9,217.5z"/>
	<path class="st3" d="M882.3,213.1c-0.3-0.3-0.8-0.3-1.1,0c-0.3,0.3-0.3,0.8,0,1.1c0.3,0.3,0.8,0.3,1.1,0
		C882.6,213.9,882.6,213.4,882.3,213.1z M881.4,214c-0.2-0.2-0.2-0.5,0-0.7c0.2-0.2,0.5-0.2,0.7,0c0.2,0.2,0.2,0.5,0,0.7
		C881.9,214.2,881.6,214.2,881.4,214z"/>
	<path class="st3" d="M885.9,209.5c-0.3-0.3-0.8-0.3-1.1,0c-0.3,0.3-0.3,0.8,0,1.1c0.3,0.3,0.8,0.3,1.1,0
		C886.2,210.3,886.2,209.8,885.9,209.5z M885,210.4c-0.2-0.2-0.2-0.5,0-0.7c0.2-0.2,0.5-0.2,0.7,0c0.2,0.2,0.2,0.5,0,0.7
		C885.5,210.6,885.2,210.6,885,210.4z"/>
	<path class="st3" d="M889.4,206c-0.3-0.3-0.8-0.3-1.1,0c-0.3,0.3-0.3,0.8,0,1.1c0.3,0.3,0.8,0.3,1.1,0
		C889.7,206.8,889.7,206.3,889.4,206z M888.5,206.9c-0.2-0.2-0.2-0.5,0-0.7c0.2-0.2,0.5-0.2,0.7,0c0.2,0.2,0.2,0.5,0,0.7
		C889,207.1,888.7,207.1,888.5,206.9z"/>
</g>
<polygon class="st4" points="379,323.4 384.8,301.6 363,307.4 "/>
<polygon class="st4" points="745.8,341.7 753.8,311.8 723.9,319.8 "/>
<polygon class="st3" points="808.1,213.2 811.9,199.3 797.9,203 "/>
<g>
	<polygon class="st3" points="768.4,169.8 769.3,170.7 770.2,169.8 770.7,170.4 769.8,171.3 770.7,172.2 770.2,172.7 769.3,171.8 
		768.4,172.7 767.9,172.2 768.8,171.3 767.9,170.4 	"/>
	<polygon class="st3" points="712.6,169.8 713.5,170.7 714.4,169.8 715,170.3 714.1,171.2 715,172.1 714.4,172.7 713.5,171.8 
		712.6,172.7 712.1,172.1 713,171.2 712.1,170.3 	"/>
	<polygon class="st3" points="721.9,160.5 722.8,161.4 723.7,160.5 724.2,161 723.3,161.9 724.2,162.8 723.7,163.4 722.8,162.5 
		721.9,163.4 721.4,162.8 722.3,161.9 721.4,161 	"/>
	<polygon class="st3" points="731.2,151.2 732.1,152.1 733,151.2 733.5,151.8 732.6,152.6 733.5,153.5 733,154.1 732.1,153.2 
		731.2,154.1 730.7,153.5 731.6,152.6 730.7,151.8 	"/>
	<polygon class="st3" points="740.5,141.9 741.4,142.8 742.3,141.9 742.8,142.5 741.9,143.4 742.8,144.3 742.3,144.8 741.4,143.9 
		740.5,144.8 740,144.3 740.8,143.4 740,142.5 	"/>
	<polygon class="st3" points="721.9,179.1 722.8,180 723.7,179.1 724.3,179.6 723.4,180.5 724.3,181.4 723.7,182 722.8,181.1 
		721.9,182 721.4,181.4 722.3,180.5 721.4,179.6 	"/>
	<polygon class="st3" points="731.2,169.8 732.1,170.7 733,169.8 733.5,170.3 732.7,171.2 733.5,172.1 733,172.7 732.1,171.8 
		731.2,172.7 730.7,172.1 731.6,171.2 730.7,170.3 	"/>
	<polygon class="st3" points="740.5,160.5 741.4,161.4 742.3,160.5 742.8,161.1 741.9,162 742.8,162.9 742.3,163.4 741.4,162.5 
		740.5,163.4 740,162.8 740.9,162 740,161.1 	"/>
	<polygon class="st3" points="749.8,151.2 750.7,152.1 751.6,151.2 752.1,151.8 751.2,152.7 752.1,153.6 751.6,154.1 750.7,153.2 
		749.8,154.1 749.3,153.6 750.1,152.7 749.3,151.8 	"/>
	<polygon class="st3" points="731.2,188.4 732.1,189.3 733,188.4 733.6,188.9 732.7,189.8 733.6,190.7 733,191.3 732.1,190.4 
		731.2,191.3 730.7,190.7 731.6,189.8 730.7,188.9 	"/>
	<polygon class="st3" points="740.5,179.1 741.4,180 742.3,179.1 742.9,179.7 742,180.5 742.9,181.4 742.3,182 741.4,181.1 
		740.5,182 740,181.4 740.9,180.6 740,179.7 	"/>
	<polygon class="st3" points="749.8,169.8 750.7,170.7 751.6,169.8 752.1,170.4 751.2,171.3 752.1,172.2 751.6,172.7 750.7,171.8 
		749.8,172.7 749.3,172.2 750.2,171.3 749.3,170.4 	"/>
	<polygon class="st3" points="740.5,197.7 741.4,198.6 742.3,197.7 742.9,198.2 742,199.1 742.9,200 742.3,200.6 741.4,199.7 
		740.5,200.6 740,200 740.9,199.1 740,198.2 	"/>
	<polygon class="st3" points="749.8,188.4 750.7,189.3 751.6,188.4 752.2,189 751.3,189.9 752.2,190.8 751.6,191.3 750.7,190.4 
		749.8,191.3 749.3,190.7 750.2,189.9 749.3,189 	"/>
	<polygon class="st3" points="759.1,179.1 760,180 760.9,179.1 761.4,179.7 760.6,180.6 761.4,181.5 760.9,182 760,181.1 759.1,182 
		758.6,181.5 759.5,180.6 758.6,179.7 	"/>
	<polygon class="st3" points="759.1,160.5 760,161.4 760.9,160.5 761.4,161.1 760.5,162 761.4,162.9 760.9,163.4 760,162.5 
		759.1,163.4 758.6,162.9 759.5,162 758.6,161.1 	"/>
</g>
<g>
	<polygon class="st3" points="290.2,191.1 290.8,191.7 291.3,191.1 291.7,191.5 291.1,192 291.7,192.6 291.3,192.9 290.8,192.3 
		290.2,192.9 289.9,192.6 290.4,192 289.9,191.5 	"/>
	<polygon class="st3" points="255.9,191.1 256.4,191.6 257,191.1 257.3,191.4 256.8,192 257.3,192.5 257,192.9 256.4,192.3 
		255.9,192.9 255.6,192.5 256.1,192 255.6,191.4 	"/>
	<polygon class="st3" points="261.6,185.4 262.2,185.9 262.7,185.4 263,185.7 262.5,186.3 263,186.8 262.7,187.1 262.2,186.6 
		261.6,187.1 261.3,186.8 261.8,186.3 261.3,185.7 	"/>
	<polygon class="st3" points="267.3,179.7 267.9,180.2 268.4,179.7 268.8,180 268.2,180.6 268.8,181.1 268.4,181.4 267.9,180.9 
		267.3,181.4 267,181.1 267.5,180.6 267,180 	"/>
	<polygon class="st3" points="273,174 273.6,174.5 274.1,174 274.5,174.3 273.9,174.8 274.5,175.4 274.1,175.7 273.6,175.2 
		273,175.7 272.7,175.4 273.3,174.8 272.7,174.3 	"/>
	<polygon class="st3" points="261.6,196.8 262.2,197.4 262.7,196.8 263.1,197.2 262.5,197.7 263.1,198.3 262.7,198.6 262.2,198 
		261.6,198.6 261.3,198.3 261.8,197.7 261.3,197.2 	"/>
	<polygon class="st3" points="267.3,191.1 267.9,191.7 268.4,191.1 268.8,191.4 268.2,192 268.8,192.5 268.4,192.9 267.9,192.3 
		267.3,192.9 267,192.5 267.6,192 267,191.4 	"/>
	<polygon class="st3" points="273.1,185.4 273.6,185.9 274.2,185.4 274.5,185.7 273.9,186.3 274.5,186.8 274.2,187.2 273.6,186.6 
		273.1,187.2 272.7,186.8 273.3,186.3 272.7,185.7 	"/>
	<polygon class="st3" points="278.8,179.7 279.3,180.2 279.9,179.7 280.2,180 279.7,180.6 280.2,181.1 279.9,181.4 279.3,180.9 
		278.8,181.4 278.4,181.1 279,180.6 278.4,180 	"/>
	<polygon class="st3" points="267.4,202.5 267.9,203.1 268.5,202.5 268.8,202.9 268.2,203.4 268.8,204 268.5,204.3 267.9,203.8 
		267.4,204.3 267,204 267.6,203.4 267,202.9 	"/>
	<polygon class="st3" points="273.1,196.8 273.6,197.4 274.2,196.8 274.5,197.2 273.9,197.7 274.5,198.3 274.2,198.6 273.6,198 
		273.1,198.6 272.7,198.3 273.3,197.7 272.7,197.2 	"/>
	<polygon class="st3" points="278.8,191.1 279.3,191.7 279.9,191.1 280.2,191.5 279.7,192 280.2,192.6 279.9,192.9 279.3,192.3 
		278.8,192.9 278.4,192.6 279,192 278.4,191.5 	"/>
	<polygon class="st3" points="273.1,208.3 273.6,208.8 274.2,208.3 274.5,208.6 274,209.2 274.5,209.7 274.2,210 273.6,209.5 
		273.1,210 272.7,209.7 273.3,209.2 272.7,208.6 	"/>
	<polygon class="st3" points="278.8,202.6 279.3,203.1 279.9,202.6 280.2,202.9 279.7,203.4 280.2,204 279.9,204.3 279.3,203.8 
		278.8,204.3 278.5,204 279,203.4 278.5,202.9 	"/>
	<polygon class="st3" points="284.5,196.8 285.1,197.4 285.6,196.8 285.9,197.2 285.4,197.7 285.9,198.3 285.6,198.6 285.1,198.1 
		284.5,198.6 284.2,198.3 284.7,197.7 284.2,197.2 	"/>
	<polygon class="st3" points="284.5,185.4 285,186 285.6,185.4 285.9,185.7 285.4,186.3 285.9,186.8 285.6,187.2 285,186.6 
		284.5,187.2 284.2,186.8 284.7,186.3 284.2,185.7 	"/>
</g>
<g>
	<g>
		<path class="st3" d="M914.6,343c0,0-0.1-0.1-0.1-0.1l-7.9,0c-0.1,0-0.2,0.1-0.2,0.2l0,7.9c0,0.1,0.1,0.2,0.2,0.2l7.9,0
			c0.1,0,0.2-0.1,0.2-0.2l0-7.9C914.6,343.1,914.6,343,914.6,343z M906.7,343.3l7.5,0v7.5h-7.5V343.3z"/>
		<g>
			<path class="st3" d="M911.4,346.1c0,0-0.1-0.1-0.1-0.1l-1.6,0c-0.1,0-0.1,0-0.1,0.1c0,0-0.1,0.1-0.1,0.1l0,1.6
				c0,0.1,0.1,0.2,0.2,0.2h1.6c0.1,0,0.1,0,0.1-0.1c0,0,0.1-0.1,0.1-0.1v-1.6C911.4,346.2,911.4,346.2,911.4,346.1z M909.9,346.5
				l1.2,0l0,1.2l-1.2,0V346.5z"/>
			<path class="st3" d="M913,344.6c0,0-0.1-0.1-0.1-0.1l-4.8,0c-0.1,0-0.1,0-0.1,0.1c0,0-0.1,0.1-0.1,0.1l0,4.8
				c0,0.1,0.1,0.2,0.2,0.2l4.8,0c0.1,0,0.1,0,0.1-0.1c0,0,0.1-0.1,0.1-0.1v-4.7C913,344.6,913,344.6,913,344.6z M908.3,344.9h4.4
				l0,4.4h-4.4L908.3,344.9z"/>
		</g>
	</g>
	<path class="st3" d="M917.9,339.6c-0.4-0.4-1-0.4-1.4,0c-0.4,0.4-0.4,1,0,1.4c0.4,0.4,1,0.4,1.4,0
		C918.3,340.7,918.3,340,917.9,339.6z M916.8,340.8c-0.2-0.2-0.2-0.6,0-0.9c0.2-0.2,0.6-0.2,0.9,0c0.2,0.2,0.2,0.6,0,0.9
		C917.4,341,917,341,916.8,340.8z"/>
	<path class="st3" d="M920,337.5c-0.4-0.4-1-0.4-1.4,0c-0.4,0.4-0.4,1,0,1.4c0.4,0.4,1,0.4,1.4,0C920.4,338.5,920.4,337.9,920,337.5
		z M918.9,338.7c-0.2-0.2-0.2-0.6,0-0.9c0.2-0.2,0.6-0.2,0.9,0c0.2,0.2,0.2,0.6,0,0.9C919.5,338.9,919.1,338.9,918.9,338.7z"/>
	<path class="st3" d="M922.1,335.4c-0.4-0.4-1-0.4-1.4,0c-0.4,0.4-0.4,1,0,1.4c0.4,0.4,1,0.4,1.4,0
		C922.5,336.4,922.5,335.8,922.1,335.4z M921,336.5c-0.2-0.2-0.2-0.6,0-0.9c0.2-0.2,0.6-0.2,0.9,0c0.2,0.2,0.2,0.6,0,0.9
		C921.6,336.8,921.2,336.8,921,336.5z"/>
</g>
<g>
	<g>
		<path class="st3" d="M89.9,331.2c0,0-0.1-0.1-0.1-0.1l-7.9,0c-0.1,0-0.2,0.1-0.2,0.2l0,7.9c0,0.1,0.1,0.2,0.2,0.2l7.9,0
			c0.1,0,0.2-0.1,0.2-0.2l0-7.9C89.9,331.3,89.9,331.3,89.9,331.2z M82,331.6l7.5,0v7.5H82V331.6z"/>
		<g>
			<path class="st3" d="M86.7,334.4c0,0-0.1-0.1-0.1-0.1l-1.6,0c-0.1,0-0.1,0-0.1,0.1c0,0-0.1,0.1-0.1,0.1l0,1.6
				c0,0.1,0.1,0.2,0.2,0.2h1.6c0.1,0,0.1,0,0.1-0.1c0,0,0.1-0.1,0.1-0.1v-1.6C86.8,334.5,86.7,334.4,86.7,334.4z M85.2,334.7l1.2,0
				l0,1.2l-1.2,0V334.7z"/>
			<path class="st3" d="M88.3,332.8c0,0-0.1-0.1-0.1-0.1l-4.8,0c-0.1,0-0.1,0-0.1,0.1c0,0-0.1,0.1-0.1,0.1l0,4.8
				c0,0.1,0.1,0.2,0.2,0.2l4.8,0c0.1,0,0.1,0,0.1-0.1c0,0,0.1-0.1,0.1-0.1V333C88.4,332.9,88.3,332.9,88.3,332.8z M83.6,333.2H88
				l0,4.4h-4.4L83.6,333.2z"/>
		</g>
	</g>
	<path class="st3" d="M93.2,327.9c-0.4-0.4-1-0.4-1.4,0c-0.4,0.4-0.4,1,0,1.4c0.4,0.4,1,0.4,1.4,0C93.6,328.9,93.6,328.3,93.2,327.9
		z M92.1,329c-0.2-0.2-0.2-0.6,0-0.9c0.2-0.2,0.6-0.2,0.9,0c0.2,0.2,0.2,0.6,0,0.9C92.7,329.3,92.3,329.3,92.1,329z"/>
	<path class="st3" d="M95.3,325.8c-0.4-0.4-1-0.4-1.4,0c-0.4,0.4-0.4,1,0,1.4c0.4,0.4,1,0.4,1.4,0C95.7,326.8,95.7,326.2,95.3,325.8
		z M94.2,326.9c-0.2-0.2-0.2-0.6,0-0.9c0.2-0.2,0.6-0.2,0.9,0c0.2,0.2,0.2,0.6,0,0.9C94.8,327.2,94.4,327.2,94.2,326.9z"/>
	<path class="st3" d="M97.4,323.7c-0.4-0.4-1-0.4-1.4,0c-0.4,0.4-0.4,1,0,1.4c0.4,0.4,1,0.4,1.4,0C97.8,324.7,97.8,324.1,97.4,323.7
		z M96.3,324.8c-0.2-0.2-0.2-0.6,0-0.9c0.2-0.2,0.6-0.2,0.9,0c0.2,0.2,0.2,0.6,0,0.9C96.9,325.1,96.5,325.1,96.3,324.8z"/>
</g>
<g>
	<g>
		<path class="st3" d="M887.2,269.2c-0.1-0.1-0.2-0.1-0.3-0.1l-15.5,0c-0.2,0-0.4,0.2-0.4,0.4l0,15.5c0,0.2,0.2,0.4,0.4,0.4l15.5,0
			c0.2,0,0.4-0.2,0.4-0.4l0-15.5C887.3,269.4,887.3,269.3,887.2,269.2z M871.8,269.8l14.8,0v14.8l-14.8,0V269.8z"/>
		<g>
			<path class="st3" d="M881,275.4c-0.1-0.1-0.2-0.1-0.3-0.1l-3.1,0c-0.1,0-0.2,0-0.3,0.1c-0.1,0.1-0.1,0.2-0.1,0.3l0,3.1
				c0,0.2,0.2,0.4,0.4,0.4l3.1,0c0.1,0,0.2,0,0.3-0.1c0.1-0.1,0.1-0.2,0.1-0.3v-3.1C881.1,275.6,881,275.5,881,275.4z M878,276.1
				l2.3,0l0,2.4l-2.3,0V276.1z"/>
			<path class="st3" d="M884.1,272.3c-0.1-0.1-0.2-0.1-0.3-0.1l-9.3,0c-0.1,0-0.2,0-0.3,0.1c-0.1,0.1-0.1,0.2-0.1,0.3l0,9.3
				c0,0.2,0.2,0.4,0.4,0.4l9.3,0c0.1,0,0.2,0,0.3-0.1c0.1-0.1,0.1-0.2,0.1-0.3v-9.3C884.2,272.5,884.2,272.4,884.1,272.3z
				 M874.9,273l8.6,0l0,8.6h-8.6L874.9,273z"/>
		</g>
	</g>
	<path class="st3" d="M893.7,262.6c-0.8-0.8-2-0.8-2.8,0c-0.8,0.8-0.8,2,0,2.8c0.8,0.8,2,0.8,2.8,0
		C894.5,264.7,894.5,263.4,893.7,262.6z M891.5,264.9c-0.5-0.5-0.5-1.2,0-1.7c0.5-0.5,1.2-0.5,1.7,0c0.5,0.5,0.5,1.2,0,1.7
		C892.7,265.3,892,265.3,891.5,264.9z"/>
	<path class="st3" d="M897.9,258.5c-0.8-0.8-2-0.8-2.8,0c-0.8,0.8-0.8,2,0,2.8c0.8,0.8,2,0.8,2.8,0
		C898.6,260.5,898.6,259.3,897.9,258.5z M895.7,260.7c-0.5-0.5-0.5-1.2,0-1.7c0.5-0.5,1.2-0.5,1.7,0c0.5,0.5,0.5,1.2,0,1.7
		C896.9,261.2,896.1,261.2,895.7,260.7z"/>
	<path class="st3" d="M902,254.4c-0.8-0.8-2-0.8-2.8,0c-0.8,0.8-0.8,2,0,2.8c0.8,0.8,2,0.7,2.8,0C902.8,256.4,902.8,255.1,902,254.4
		z M899.8,256.6c-0.5-0.5-0.5-1.2,0-1.7c0.5-0.5,1.2-0.5,1.7,0c0.5,0.5,0.5,1.2,0,1.7C901,257.1,900.2,257.1,899.8,256.6z"/>
</g>
<g>
	<g>
		<path class="st3" d="M170,231.8c-0.1-0.1-0.2-0.1-0.3-0.1l-15.9,0c-0.2,0-0.4,0.2-0.4,0.4l0,15.9c0,0.2,0.2,0.4,0.4,0.4l15.9,0
			c0.2,0,0.4-0.2,0.4-0.4l0-15.9C170.2,232,170.1,231.8,170,231.8z M154.2,232.5l15.1,0v15.1l-15.1,0V232.5z"/>
		<g>
			<path class="st3" d="M163.7,238.1c-0.1-0.1-0.2-0.1-0.3-0.1l-3.2,0c-0.1,0-0.2,0-0.3,0.1c-0.1,0.1-0.1,0.2-0.1,0.3l0,3.2
				c0,0.2,0.2,0.4,0.4,0.4l3.2,0c0.1,0,0.2,0,0.3-0.1c0.1-0.1,0.1-0.2,0.1-0.3v-3.2C163.8,238.3,163.7,238.2,163.7,238.1z
				 M160.6,238.8l2.4,0l0,2.4l-2.4,0V238.8z"/>
			<path class="st3" d="M166.9,235c-0.1-0.1-0.2-0.1-0.3-0.1l-9.5,0c-0.1,0-0.2,0-0.3,0.1c-0.1,0.1-0.1,0.2-0.1,0.3l0,9.5
				c0,0.2,0.2,0.4,0.4,0.4l9.5,0c0.1,0,0.2,0,0.3-0.1c0.1-0.1,0.1-0.2,0.1-0.3v-9.5C167,235.1,166.9,235,166.9,235z M157.4,235.6
				l8.8,0l0,8.8h-8.8L157.4,235.6z"/>
		</g>
	</g>
	<path class="st3" d="M176.7,225.1c-0.8-0.8-2.1-0.8-2.8,0c-0.8,0.8-0.8,2,0,2.8c0.8,0.8,2,0.8,2.8,0
		C177.5,227.1,177.5,225.9,176.7,225.1z M174.4,227.4c-0.5-0.5-0.5-1.3,0-1.7c0.5-0.5,1.2-0.5,1.7,0c0.5,0.5,0.5,1.2,0,1.7
		C175.7,227.8,174.9,227.8,174.4,227.4z"/>
	<path class="st3" d="M181,220.9c-0.8-0.8-2-0.8-2.8,0c-0.8,0.8-0.8,2,0,2.8c0.8,0.8,2,0.8,2.8,0C181.7,222.9,181.7,221.6,181,220.9
		z M178.7,223.1c-0.5-0.5-0.5-1.2,0-1.7c0.5-0.5,1.2-0.5,1.7,0c0.5,0.5,0.5,1.2,0,1.7C179.9,223.6,179.2,223.6,178.7,223.1z"/>
	<path class="st3" d="M185.2,216.6c-0.8-0.8-2.1-0.8-2.8,0c-0.8,0.8-0.8,2,0,2.8c0.8,0.8,2,0.8,2.8,0
		C186,218.7,186,217.4,185.2,216.6z M182.9,218.9c-0.5-0.5-0.5-1.3,0-1.7c0.5-0.5,1.2-0.5,1.7,0c0.5,0.5,0.5,1.2,0,1.7
		C184.2,219.4,183.4,219.4,182.9,218.9z"/>
</g>
<g>
	<polygon class="st3" points="241.2,230.8 243.8,233.3 244,233.1 241.5,230.5 	"/>
	<polygon class="st3" points="238.2,233.8 240.7,236.4 241,236.1 238.4,233.6 	"/>
	
		<rect x="236.3" y="236.2" transform="matrix(0.7074 -0.7068 0.7068 0.7074 -99.0348 236.8362)" class="st3" width="0.4" height="3.6"/>
	<polygon class="st3" points="232.1,239.9 234.6,242.5 234.9,242.2 232.3,239.7 	"/>
	<polygon class="st3" points="229,243 231.6,245.5 231.8,245.3 229.3,242.7 	"/>
</g>
<g>
	<polygon class="st3" points="370.4,175.4 376.8,181.8 377.4,181.2 371,174.7 	"/>
	<polygon class="st3" points="362.7,183.1 369.2,189.5 369.8,188.8 363.4,182.4 	"/>
	
		<rect x="358.2" y="189" transform="matrix(0.7074 -0.7068 0.7068 0.7074 -31.8828 310.1078)" class="st3" width="0.9" height="9.1"/>
	<polygon class="st3" points="347.5,198.3 353.9,204.7 354.5,204.1 348.1,197.7 	"/>
	<polygon class="st3" points="339.8,206 346.2,212.4 346.9,211.7 340.5,205.3 	"/>
</g>
<g>
	<polygon class="st3" points="793.4,240.4 796.7,243.7 797,243.4 793.7,240 	"/>
	<rect x="791" y="243.5" transform="matrix(0.7077 -0.7065 0.7065 0.7077 57.5853 630.835)" class="st3" width="0.5" height="4.7"/>
	
		<rect x="787" y="247.4" transform="matrix(0.7071 -0.7071 0.7071 0.7071 53.9754 629.8582)" class="st3" width="0.5" height="4.7"/>
	<polygon class="st3" points="781.5,252.2 784.8,255.6 785.2,255.2 781.8,251.9 	"/>
	
		<rect x="779.1" y="255.3" transform="matrix(0.7069 -0.7073 0.7073 0.7069 46.1682 626.7908)" class="st3" width="0.5" height="4.7"/>
</g>
<g>
	<polygon class="st3" points="321.6,170.3 325.6,174.3 325.8,174.1 321.8,170.1 	"/>
	<polygon class="st3" points="325.6,170.1 321.6,174.1 321.8,174.3 325.8,170.3 	"/>
</g>
<g>
	<polygon class="st3" points="637.1,151.9 643.7,158.5 644.1,158 637.5,151.5 	"/>
	<polygon class="st3" points="643.7,151.5 637.1,158 637.5,158.5 644.1,151.9 	"/>
</g>
<path class="st4" d="M659.9,220.4c0,17.9,14.5,32.4,32.4,32.4c17.9,0,32.4-14.5,32.4-32.4c0-17.9-14.5-32.4-32.4-32.4
	C674.4,188,659.9,202.5,659.9,220.4z"/>
<path class="st4" d="M270.7,251c0,10.6,8.6,19.2,19.2,19.2c10.6,0,19.2-8.6,19.2-19.2c0-10.6-8.6-19.2-19.2-19.2
	C279.3,231.8,270.7,240.4,270.7,251z"/>
<g>
	<path d="M475.6,126.2c-0.6,0-1.3,0.8-1.5,1.1h-0.4v-4.8h0.4c1,2.9,3.4,4.5,5.2,4.5c2.2,0,2.9-1.4,2.9-2.8c0-1.4-0.5-2.5-3.9-3.3
		c-3.4-0.8-4.5-1.9-4.5-4.4c0-2.2,1.7-4.2,4.5-4.2c2,0,2.6,1.1,3.3,1.1c0.4,0,0.8-0.3,1.2-0.9h0.3v4.3h-0.4c-0.8-2.2-2.3-4-4.3-4
		c-2.2,0-2.8,1.5-2.8,2.6c0,1.7,1.1,2.4,3.9,3c3.7,0.8,4.5,2.5,4.5,4.7c0,2.3-1.7,4.4-4.7,4.4C477.1,127.6,476.2,126.2,475.6,126.2z
		"/>
	<path d="M485.7,126.8h0.2c0.8,0,1.2-0.2,1.2-0.9v-12.1c0-0.6-0.1-0.9-1.5-0.9v-0.5l3.5-0.2v7.8c0.6-1,1.5-2,3.1-2
		c1.6,0,2.9,0.9,2.9,2.6c0,0.2,0,5.3,0,5.3c0,0.5,0.1,0.7,1,0.7h0.6v0.5h-5v-0.5h0.2c0.9,0,1.3-0.2,1.3-0.9c0,0,0-4.9,0-5.4
		c0-1.2-0.5-1.7-1.4-1.7c-1.5,0-2.6,1.7-2.6,2.3c0,0.6,0,4.9,0,4.9c0,0.5,0.1,0.7,1.1,0.7h0.4v0.5h-4.8V126.8z"/>
	<path d="M497.9,125.3c0-2.2,2.1-2.7,5.6-3.2c0-0.8,0-1.6,0-1.7c0-1.2-0.4-1.7-1.9-1.7c-0.8,0-1.4,0.3-1.4,0.6
		c0.1,0.6,0.9,1,0.9,1.7c0,0.5-0.4,0.9-1,0.9c-0.7,0-1.3-0.8-1.3-1.6c0-1.2,1.3-2.1,3.3-2.1c2.2,0,3.5,0.9,3.5,2.6
		c0,0.2,0,4.6,0,4.6c0,0.7,0.1,1,0.8,1c0.5,0,0.9-0.8,0.9-2.1h0.4c0,2.3-1,3.2-2.3,3.2s-1.8-0.7-1.9-1.9c-0.5,0.9-1.6,2-3.2,2
		C499.1,127.6,497.9,126.8,497.9,125.3z M503.5,124.1c0-0.2,0-0.9,0-1.6c-2.9,0.5-3.6,0.9-3.6,2.3c0,1.3,0.5,1.9,1.4,1.9
		C502.7,126.6,503.5,125.4,503.5,124.1z"/>
	<path d="M508.3,126.8h0.2c0.9,0,1.3-0.2,1.3-0.9v-6.4c0-0.3-0.1-0.4-1.4-0.6v-0.5l3.4-0.1v2.3c0.6-1.4,1.4-2.4,2.3-2.4
		c0.7,0,1.4,0.4,1.4,1.3c0,0.5-0.4,1.1-1,1.1c-0.5,0-1.3-0.9-1.4-0.9c-0.6,0-1.3,1.2-1.3,1.9c0,0.3,0,4.5,0,4.5c0,0.5,0,0.7,1.3,0.7
		h0.4v0.5h-5.2V126.8z"/>
	<path d="M518.6,122.9c0.1,3.3,1.6,3.9,2.9,3.9c1.3,0,2.3-0.6,3.1-1.7l0.4,0.2c-1,1.4-2.1,2.3-3.9,2.3c-2.5,0-4.8-1.8-4.8-4.7
		c0-2.5,2.2-4.7,4.6-4.7c2.6,0,3.9,1.9,4.1,4.1h-6.4C518.6,122.4,518.6,122.6,518.6,122.9z M522.9,121.6c-0.2-1.9-0.9-3-2.1-3
		c-0.9,0-2,0.6-2.1,3H522.9z"/>
	<path d="M527.1,126c0-0.9,0.7-1.6,1.5-1.6s1.5,0.7,1.5,1.6c0,0.9-0.7,1.6-1.5,1.6S527.1,126.9,527.1,126z"/>
	<path d="M471.9,150.8h0.3c1.8,0,2-0.2,2-1.2v-11.4c0-0.8-0.3-1-2-1h-0.3v-0.6h6.9v0.6h-0.6c-1.5,0-1.7,0.2-1.7,0.8v11.6
		c0,0.8,0.2,1.3,2.1,1.2l1.6-0.1c0.6,0,2.8-1.8,4-4.5l0.4,0l-0.9,5.1h-11.9V150.8z"/>
	<path d="M488.1,146.9c0.1,3.3,1.6,3.9,2.9,3.9c1.3,0,2.3-0.6,3.1-1.7l0.4,0.2c-1,1.4-2.1,2.3-3.9,2.3c-2.5,0-4.8-1.8-4.8-4.7
		c0-2.5,2.1-4.7,4.6-4.7c2.6,0,3.9,1.9,4.1,4.1H488C488,146.4,488.1,146.6,488.1,146.9z M492.3,145.6c-0.2-1.9-0.9-3-2.1-3
		c-0.9,0-2,0.6-2.1,3H492.3z"/>
	<path d="M496.1,149.3c0-2.2,2.1-2.7,5.6-3.2c0-0.8,0-1.6,0-1.7c0-1.2-0.4-1.7-1.9-1.7c-0.8,0-1.4,0.3-1.4,0.6
		c0.1,0.6,0.9,1,0.9,1.7c0,0.5-0.4,0.9-1,0.9c-0.7,0-1.3-0.8-1.3-1.6c0-1.2,1.3-2.1,3.3-2.1c2.2,0,3.5,0.9,3.5,2.6
		c0,0.2,0,4.6,0,4.6c0,0.7,0.1,1,0.8,1c0.5,0,0.9-0.8,0.9-2.1h0.4c0,2.3-1,3.2-2.3,3.2s-1.8-0.7-1.9-1.9c-0.5,0.9-1.6,2-3.2,2
		C497.3,151.6,496.1,150.8,496.1,149.3z M501.7,148.1c0-0.2,0-0.9,0-1.6c-2.9,0.5-3.6,0.9-3.6,2.3c0,1.3,0.5,1.9,1.4,1.9
		C500.9,150.6,501.7,149.4,501.7,148.1z"/>
	<path d="M506.5,150.8h0.2c0.9,0,1.3-0.2,1.3-0.9v-6.4c0-0.3-0.1-0.4-1.4-0.6v-0.5l3.4-0.1v2.3c0.6-1.4,1.4-2.4,2.3-2.4
		c0.7,0,1.4,0.4,1.4,1.3c0,0.5-0.4,1.1-1,1.1c-0.5,0-1.3-0.9-1.4-0.9c-0.6,0-1.3,1.2-1.3,1.9c0,0.3,0,4.5,0,4.5c0,0.5,0,0.7,1.3,0.7
		h0.4v0.5h-5.2V150.8z"/>
	<path d="M514.9,150.8h0.2c0.9,0,1.3-0.2,1.3-0.9v-6.4c0-0.3-0.2-0.5-1.5-0.6v-0.5l3.5-0.1v1.9c0.6-1,1.5-2,3.1-2
		c1.6,0,2.9,0.9,2.9,2.6c0,0.2,0,5.3,0,5.3c0,0.5,0.1,0.7,1,0.7h0.6v0.5h-5v-0.5h0.2c0.9,0,1.3-0.2,1.3-0.9c0,0,0-4.9,0-5.5
		c0-1.2-0.5-1.6-1.4-1.6c-1.5,0-2.6,1.7-2.6,2.3c0,0.6,0,4.9,0,4.9c0,0.5,0.1,0.7,1.1,0.7h0.4v0.5h-4.9V150.8z"/>
	<path d="M527.6,150c0-0.9,0.7-1.6,1.5-1.6s1.5,0.7,1.5,1.6c0,0.9-0.7,1.6-1.5,1.6S527.6,150.9,527.6,150z"/>
	<path d="M476.2,168c0-4.8,3.7-7.6,7-7.6c2,0,3.2,1,3.6,1s0.8-0.3,1.2-0.8h0.3v5.1H488c-0.7-2.6-2.3-4.7-4.8-4.7
		c-2.2,0-4.4,1.8-4.2,7c0.1,3.3,0.6,7.1,4.3,7.1c1.6,0,2.9-1.2,2.9-1.9v-3c0-0.8-0.3-1-2-1h-0.5v-0.6h6.9v0.6h-0.4
		c-1.1,0-1.9,0.2-1.8,1v5.2h-0.3c-0.2-0.5-0.7-1.1-1.2-1.1c-0.6,0-1.3,1.4-4,1.4C479.9,175.6,476.2,172.6,476.2,168z"/>
	<path d="M491,174.8h0.2c0.9,0,1.3-0.2,1.3-0.9v-6.4c0-0.3-0.1-0.4-1.4-0.6v-0.5l3.4-0.1v2.3c0.6-1.4,1.4-2.4,2.3-2.4
		c0.7,0,1.4,0.4,1.4,1.3c0,0.5-0.4,1.1-1,1.1c-0.5,0-1.3-0.9-1.4-0.9c-0.6,0-1.3,1.2-1.3,1.9c0,0.3,0,4.5,0,4.5c0,0.5,0,0.7,1.3,0.7
		h0.4v0.5H491V174.8z"/>
	<path d="M499.1,170.8c0-2.5,2.4-4.7,4.8-4.7s5,2.1,5,4.7c0,2.5-2.6,4.7-5,4.7S499.1,173.4,499.1,170.8z M506.6,170.9
		c0-3.4-1.1-4.2-2.6-4.2s-2.6,0.8-2.6,4.2c0,3.4,1.1,4.2,2.6,4.2S506.6,174.3,506.6,170.9z"/>
	<path d="M515.9,167.6c-0.2-0.6-0.3-0.7-0.9-0.7v-0.5h4v0.5c-1.3,0.1-1.3,0.2-0.9,1.2l1.6,4.6l1.7-4.6c0.4-1,0.4-1.2-0.9-1.3v-0.5
		h3.3v0.5c-1.2,0.1-1.4,0.2-1.8,1.3l-2.9,7.4h-0.3l-2.3-6.2l-2.4,6.2h-0.3l-2.9-8c-0.2-0.5-0.3-0.6-1.5-0.7v-0.5h4.4v0.5
		c-1,0.1-1,0.3-0.7,1.2l1.6,4.5l1.5-4.1L515.9,167.6z"/>
	<path d="M523.6,174c0-0.9,0.7-1.6,1.5-1.6s1.5,0.7,1.5,1.6c0,0.9-0.7,1.6-1.5,1.6S523.6,174.9,523.6,174z"/>
</g>
</svg>
