<?xml version="1.0" encoding="utf-8"?>
<!-- Generator: Adobe Illustrator 23.1.1, SVG Export Plug-In . SVG Version: 6.00 Build 0)  -->
<svg version="1.1" id="_x2014_ÎÓÈ_x5F_1" xmlns="http://www.w3.org/2000/svg" xmlns:xlink="http://www.w3.org/1999/xlink"
	 x="0px" y="0px" viewBox="0 0 1003.5 400" style="enable-background:new 0 0 1003.5 400;" xml:space="preserve">
<style type="text/css">
	.st0{fill:#28282A;}
	.st1{opacity:0.9;fill:#6200A4;}
	.st2{fill:#2F3649;}
	.st3{fill:#21B1B9;}
	.st4{opacity:0.9;}
	.st5{fill:#E70043;}
	.st6{fill:#DBC9C7;}
</style>
<path class="st0" d="M0.3,0c0,122.5,0,266.1,0,400h1003.5c0-133.9,0-277.5,0-400L0.3,0z"/>
<path class="st1" d="M411.5,159.3c0-50,40.5-90.5,90.5-90.5c50,0,90.5,40.5,90.5,90.5c0,50-40.5,90.5-90.5,90.5
	C452,249.7,411.5,209.2,411.5,159.3z"/>
<g>
	<path d="M833.7,400c1-0.3,1.9-0.7,2.8-1.1c3.1-0.9,5.9-0.3,8.6,1.1H833.7z"/>
	<path d="M816.7,400c-4.6-3-8.9-6.5-13.3-9.8c-11.4-8.6-16.8-22.3-26.1-32.8c-3.8-4.6-9.4-8.2-15.6-7.7c-4.3,0.7-8.6-0.5-12.3-2.7
		c-6.2-3.6-12.3-7.5-18.7-10.7c-5.4-2.8-11.1-5.5-15.5-9.8c-4.9-4.3-9.1-9.7-15.2-12.5c-3.1-1.6-6.9-1.4-9.9,0.2
		c-5.5,2.9-8.9,8.7-14.8,11c-6.2,2.2-13,2.1-19.5,2.2c-5.3,0.1-10.9-1.5-15-4.7c13.5-21.3,18.2-46.4,26-70
		c3.1-8.2,6.3-16.9,13.5-22.4c6.1-3.5,13.3-4.4,20.2-4.3c3,0.8,6.1,1.6,8.9,2.9c-8.6-2.1-16.1,3.9-22.7,8.4
		c-7.4,4.9-10.7,13.7-13.5,21.8c-6.4,21.4-9.6,43.6-15.1,65.2c0,0.7-1.2,2.8,0.6,2.2c5.3-0.5,10.7-1.7,15.5-4.1
		c6.1-3.1,10.1-9.1,16.1-12.2c3.3-1.8,7.4-2.3,11-0.9c5.2,2,9.1,6.2,13.4,9.5c6.3,5.1,13.8,8.2,21,11.9c7,3.8,13.9,8.5,22,9.3
		c5.4,0.6,10.6,3,14.6,6.6c8.8,7.7,13.6,18.7,20.6,27.9c8.3,10.2,19,18.3,30.1,25.3c0.2,0.1,0.3,0.2,0.5,0.3H816.7z"/>
	<path d="M92.8,400c0.4-0.5,0.8-1,1.2-1.5c5.3-6.7,10.4-13.6,14.9-21c4.1-6.7,7.8-13.8,12.5-20.1c2.1-2.7,4.5-5.3,7.8-6.6
		c4.8-1.8,10-0.8,14.9-2.1c6.5-1.6,13.3-2,20-1.3c4.7,0.6,9.3-0.9,13.5-2.7c-3.1-9.5-7.4-18.7-13.9-26.4c2,1.4,3.8,3.1,5.6,4.7
		c5.3,5.9,9,13.1,12.5,20.2c4.8-1.4,8,2.6,11.1,5.4c-1.5-2.2-3.7-3.8-5.8-5.4c-3.5-5.2-7.2-10.3-11.4-15c2.4,1.5,4.5,3.4,6.9,4.9
		c2.7,2.6,5.7,4.9,8.1,7.8c4.7,5.1,8.9,11.5,15.9,13.6c2.3,0.6,4.3,1.9,6.5,2.7c4.7-1.1,9.1-3.3,12.9-6.1c7.1-5.5,10.7-14,15.8-21.1
		c4.3-5.8,8.8-11.6,14.9-15.6c2.9-2,6.5-2.7,9.5-4.5c5.2-3.4,9.3-8.1,14.1-12.1c6.7-6.1,14.7-10.5,21.6-16.5
		c5.1-4.3,9.9-10.5,17.1-10.7c8,0.8,11.6,9.8,19.2,11.8c7.2,1.9,15.1,1.4,22.2-0.8c8.8-2.7,13.9-12.4,23.5-13.2
		c6.7-0.7,11.6,4.6,16.6,8.2c6.7,5,15.8,5.4,23.7,3.7c6.7-1.6,12.1-6.1,16.5-11.2c7.6-8.5,14.2-18.5,24.6-23.9
		c-2.8-5.3-4.7-11-7.9-16.1c-3.3-4.6-6.5-9.6-11-13.1c-3.2-2-7.5-0.2-10.7-2.2c-5.1-3-8.8-7.9-14-10.7c-4.7-2.8-10.2-3.1-15.4-4.2
		c-3.2-0.5-5.9,1.9-7.9,4.1c-3,3.5-5.7,7.3-8.1,11.2c4.6-2.7,9.9-0.5,13.1,3.2c8.2,8.2,14.5,18.1,20.5,28c2.8,4.6,5.9,9.2,10.8,11.8
		c-3.8-1-6.7-4-9.4-6.7c-7.6-8.5-15.3-17.1-22.9-25.6c-3.2-3.7-8-7.2-13.1-5.4c-8.4,3-13,11.3-19.1,17.2c5.2-6.4,10-13.3,15.8-19.2
		c4.4-6.4,9-13,14.8-18.3c1.8-1.8,4.5-2.2,6.8-1.4c3.7,1.3,7.7,0.9,11.5,0.6c4.5,0.3,8.9,1.6,13,3.2c2.7,0.9,5.9,1.5,8.5,0
		c2.6-1.3,5.2-3.6,8.4-2.5c3,1.2,5.3,3.6,7.9,5.4c7.6,5.7,8.1,16.5,15.1,22.7c3.6,3.4,8.6,4.6,13.4,4.9c8-8.3,17.2-15.2,27-21.1
		c5.7-5.5,12.2-10.3,19.7-13.2c5.7-1.7,11.1-4.5,15.3-8.7c-5.8,6.9-13.2,12.2-20.2,17.9c2.1,0.2,3.9,1.2,5.8,2
		c9-8.9,16.2-19.4,23.4-29.6c3-3.6,6.1-7.1,9.3-10.5c-10.8,13.6-18.4,29.4-27.7,44c1.3,0.4,2.5,0.9,3.8,1.5
		c5.7-10.2,10.4-20.9,16.1-31.1c6-10.1,12.9-19.6,20.1-28.8c2.7-2.6,6.2-5.2,10.2-4.5c-5.2,0.1-9.1,4.1-12.1,7.9
		c-13,17.8-22.7,37.8-31,58.1c8.4,5.4,18.6,8.2,27.6,12.6c5.8,2.6,11.9,4.2,17.8,6.5c9.1,3.6,16.5,10.3,24.3,16.1
		c4,3,8.8,5.9,14.1,5.3c4.8-0.7,8.7-4.1,12.3-7.1c9.1-8,13.5-19.6,20.9-28.9c2.6-3.2,6-6.5,10.4-6.6c4.6-0.3,8.2,2.8,12,4.8
		c2.4,1.9,5.2,3.3,7.9,4.7c-4.5-0.9-9.1-2-13.7-1.9c-4.9,0.5-8.8,3.9-11.2,8c-5.7,9.1-8.6,19.6-13.1,29.2
		c-4.2,9.2-9.2,18.2-16.2,25.6c-2.8,2.8-6.4,5.5-10.6,5c-5.2-0.7-8.8-4.9-12.5-8.2c-7.7-8-15.5-16.1-25-22.1
		c-9.9-6.1-18.2-14.4-27-22c-8.3-6.9-16.3-14.2-23.9-21.8c9.5,13.6,17.4,28.2,27.7,41.2c12.8,18.1,27.8,34.4,41,52.2
		c-3.8,1.1-7.6,2.6-11.7,2.1c-4.4-0.6-8.3-2.9-12.1-5.3c-12.1-23.3-25.2-46-37-69.4c-4.8-9.1-8.9-19.1-16.9-25.8
		c3.7,3.8,6.6,8.4,9,13.1c6.5,12.9,11.3,26.7,16.9,40c3.4,8.7,7.2,17.3,10.9,25.9c0.5,2.9,3.3,4.5,5.2,6.4c2.7,2.6,5.7,4.9,8.5,7.4
		c-7.6-4.9-15.5-9.3-22.3-15.3c-5.3-4.5-9.6-10.7-16.3-13.3c-4.5-1.8-9.4-0.3-13.2,2.4c-4.1,3-7.5,6.8-11.3,10.2
		c-7,6.2-14.9,11.2-21.9,17.4c-6.8,5.8-13.6,11.8-22,15.2c-7.3,2.9-13.4,8.2-18,14.4c-9.9,12.6-15.9,27.7-26.2,40
		c-6.2,7.5-13.2,14.3-20.6,20.6c0.3,0.4,0.8,0.6,0.9,0c8.2-6.1,16.4-12.6,22.9-20.6c9-11,13.8-24.7,23.2-35.4c2.5-2.9,5.5-5.4,9-7.1
		c5.3-2.7,11.7-1.6,16.8-4.9c7.9-5,14.7-11.6,22.4-16.9c5.8-4,11.6-8.1,16.5-13.1c5.2-5.3,10-12.3,17.8-13.9
		c7.7-1.2,13.6,5,18.9,9.6c8.3,7.6,18.8,11.7,28.9,16.2c4.8,2,10.1,4,15.3,2.7c5.9-1.2,11.2-4.8,17.5-4c-6.3-0.5-11.7,3.4-17.2,6
		c-6.6,2.7-13.6,0.2-20-1.7c-6.6-2.2-13.5-3.4-19.7-6.5c-6.1-3.1-10.7-9-17.6-10.5c-4.2-1.1-8.6,0.5-12,3
		c-4.5,3.1-7.8,7.4-11.7,11.1c-7.1,7.3-16.1,12.2-24.2,18.1c-4.8,3.4-9.7,6.9-15.3,8.9c-4.2,1.6-8.9,1.6-13.2,3.2
		c-4.8,1.7-8.9,5-12.4,8.7c-8.5,9-13.8,20.5-22.3,29.4c-6.1,6.7-13.8,11.5-21.2,16.6c10.4-4.8,20.6-10.9,27.3-20.4
		c6.3-8.4,11.1-18.5,20.2-24.5c5.5-3.9,12.4-2.4,18.6-2c7.9-0.8,14-6.5,20.7-10.2c8.7-5.5,18.3-10.1,24.9-18.2
		c5.3-5.7,10.5-13.1,18.8-14.1c6.8-0.6,12.2,4.4,17.5,7.8c7.2,4.7,15.9,5.5,24.1,7c6.4,1.1,13.3,2.7,19.4-0.3
		c5.3-2.7,10.8-6.4,17.1-5.1c8.4,1.7,13.8,8.9,20.6,13.3c6.1,3.9,13.6,3.9,20.6,4.3c7,0.4,14.5,0.4,20.7-3.4
		c4.9-2.9,9.8-6.7,15.8-6.1c8.5,1.1,14.1,8.3,20,13.8c5.2,5,11.3,9,17.7,12.4c6,3.3,11.6,7.3,18.1,9.6c5.6,2.2,12.1,0.2,17.5,3.3
		c10.7,5.3,16.5,16.2,23.5,25.2c4.2,5.7,9.5,10.4,15.4,14.4h-5.5c-2-1.6-3.9-3.3-5.7-5.2c-6-6.9-10.1-15.2-16.6-21.6
		c-2.9-3-6.6-5.6-10.9-5.7c-3.6-0.3-7.1,0.7-10.6,0.6c-5.2-0.6-9.6-3.8-14.1-6.3c-6.9-4.2-14.2-7.7-20.9-12.1
		c-8.4-5.6-13.3-14.9-21.7-20.4c-2.9-1.9-6.7-2.9-10.1-1.6c-4.9,1.5-8.2,5.8-12.8,7.9c-4.8,1.9-10,1.3-15,1
		c-7.2-0.6-14.9-1-21.3-4.9c-8.1-4.8-13.5-14.6-23.6-15.8c-7.2-0.5-12.4,5.1-18.1,8.5c-5.9,3.6-13.2,2.9-19.8,2.4
		c-6.1-0.7-12.3-0.4-18.3-1.9c-7.2-1.7-12.3-8.2-19.8-9c-4.8-0.7-9.3,1.9-12.8,4.8c-5.7,4.9-10.1,11-16,15.6
		c-7,5.3-15.1,9.1-22.8,13.3c-5.9,3.3-12.7,5.3-19.5,4.2c-5.2-0.8-10.7,0.1-15.1,3.1c-9,5.8-14.4,15.5-21.9,23
		c-7.7,7.4-18,11.1-27.8,14.8c7.4-1.4,14.8-3.6,21.4-7.2c8.9-4.9,13.7-14.4,20.8-21.3c3.6-3.3,7.9-6.5,13.1-6.3
		c6.3-0.4,11.7,4.5,18.1,3.4c5.1-0.8,9.7-3.3,14.4-5.4c9-4.5,19.1-7.8,26.1-15.4c4.5-4.7,8.3-10.3,13.9-13.8
		c3.4-2.3,7.7-3.3,11.8-2.3c6.6,1.8,11.6,7.1,18.4,8.4c6.6,1.4,13.3,1,20,1.1c4.4,0,8.8,0.3,13.1-0.9c7.7-2.2,13.3-10.1,21.9-9.6
		c8.8,0.7,14.6,8.3,21.7,12.7c5.4,3.2,11.9,3.8,18,4.6c5.8,0.6,11.7,1.7,17.6,0.9c7.4-0.9,13.1-7.4,20.9-6.3
		c8.3,1.2,14,8.1,19.7,13.7c9.3,10.1,21.9,15.9,33.9,22.2c4.3,2.2,9.3,3,13.9,1.7c6.7-1.7,13,2.3,17.6,6.8
		c6.1,5.6,10.5,12.9,16.3,18.7h-2.2c-4.6-5.8-8.5-12.2-14.9-16.2c-4.2-2.7-9.6-2.5-14.2-1.1c-4.1,1.2-8.5,0.9-12.3-1
		c-8.9-4.4-17.9-8.7-26.5-13.7c-9-5.1-13.8-14.9-21.8-21.2c-3.2-2.6-7.5-4.5-11.7-3.4c-5.9,1.4-9.7,7-15.8,7.9
		c-6.2,0.6-12.2-0.9-18.3-1.6c-7.3-0.9-14.8-2.7-20.5-7.7c-6-4.8-11.6-11.9-19.9-12.2c-7.9,0.1-12.9,6.9-19,10.7
		c-5,3.3-11.2,3.8-17,4.1c-6.8,0.2-13.5,1-20.3,0.3c-7.4-1-12.7-7.5-20.1-8.2c-4.1-0.6-8.2,1.1-11.5,3.5
		c-6.3,4.5-10.7,11.2-16.8,15.8c-6.5,5-14.3,7.7-21.9,10.8c-6.4,2.6-13.7,4.4-20.5,2c-5-1.6-10.4-3.2-15.5-1.3
		c-8.1,2.9-13.5,10-19.5,15.8c-3.8,4.1-8.9,6.7-14.2,8.2c-7.7,2.1-15.6,3.9-23.5,4.1c5.8,1.1,11.8,0.2,17.6-0.6
		c6.2-0.9,12.6-2.7,17.5-7c6.7-5.8,11.9-14.4,21-16.6c7.1-1.7,13,3.4,19.1,5.9c7.5,2.5,15-1.3,22-3.4c6.7-2.3,13.7-4.3,19.6-8.3
		c7.7-5.8,12.6-15.4,22-18.8c6.5-2.4,12.8,1.5,18.2,4.7c6.7,4.2,15,3.4,22.5,2.8c6.9-0.7,14-0.3,20.5-2.9c5.2-2.1,8.9-6.5,13.9-8.9
		c3.8-2,8.5-2.4,12.5-0.7c6.1,2.4,10.7,7.4,16.3,10.8c5.7,3.4,12.4,3.8,18.8,4.8c7.4,1,15.2,2.9,22.4,0.2c4.3-1.6,8.3-4.3,13-4.5
		c3.7-0.4,7.3,1.1,10.4,3c6.7,4.2,11.5,10.6,17.4,15.7c7.7,6.5,17.3,10.2,26.3,14.6c3.9,1.7,7.9,3.7,12.3,3.1
		c4.7-1.1,9.2-4.4,14.2-2.8c5.8,1.9,10.5,6.5,14.3,11.1c-3.1-2.2-6.3-4.5-10.2-5.1c-7.4-1.5-14,4.5-21.4,2.3c-9.4-2.7-18.1-7-27-11
		c-9.6-4.2-14.4-14.1-22.1-20.7c-3.3-2.8-7.7-5.2-12.3-4.2c-5.3,1-9,5.2-13.9,7.2c-5.1,1.8-10.4,0.5-15.6-0.1
		c-7.2-1.2-14.7-1.6-21.3-4.9c-6.4-3.1-10.8-9-16.8-12.7c-3.7-2.3-8.3-3.6-12.5-2c-7.6,2.5-12,9.8-19.2,13c-6.6,3-14,2.9-21.1,3.8
		c-5.9,0.4-12.2,1.7-17.8-0.9c-6-2.6-11.4-7.7-18.4-7.2c-8.1,0.7-13.8,7.5-19.3,12.8c-5.2,5.8-12.3,9.6-19.7,11.9
		c-7.1,2-14.3,4.6-21.8,4c-8.1-0.7-14.6-7.7-23.1-6.3c-9.7,1.5-15.5,10.2-23.4,15.1c-5.6,3.5-12.4,3.8-18.8,4.4
		c-7.1,0.4-14.7,1.4-21.5-1.1c5.8,3.7,13.1,3.1,19.8,3.2c7.8,0.1,16.3-0.8,22.5-6.1c5.9-4.6,10.9-11.3,18.7-12.7
		c7.4-1.2,13.4,4.2,19.2,7.7c6.5,4,14.5,1.9,21.5,0.4c8.9-2.2,18.6-3.6,25.7-10c6.2-5.4,11.4-13.1,20-14.9
		c7.3-1.4,13.1,3.7,19.2,6.7c7,3.2,14.8,1.5,22.1,0.9c6.8-0.9,13.9-0.8,20.2-3.9c7-3.6,12.5-10.9,21-10.8
		c10.2,0.4,16.1,10.1,25.2,13.1c5.8,2,11.9,2.3,17.9,3.3c5.8,0.8,11.8,1.9,17.5,0.3c4.6-1.2,8.6-4.1,13.3-5
		c3.8-0.9,7.8-0.1,11.2,1.7c9.3,5,14.7,14.9,24.2,19.6c7.8,4.1,16.2,6.9,24.4,10c0.4,0.2,0.8,0.3,1.2,0.4h-12.5
		c-6.2-2.2-12.8-3.9-17.7-8.4c-5.7-5-9.6-11.9-16-16.2c-3-2-6.8-3.2-10.4-2.2c-5,1.2-8.8,4.9-13.3,7.1c-5.2,2.4-11,1.2-16.4,0.5
		c-8-1.3-16.4-1.6-23.6-5.6c-6.1-3.5-10.5-9.3-16.8-12.5c-3.9-2.1-8.7-2.4-12.7-0.4c-6.2,2.8-10.4,8.5-16.3,11.8
		c-4.8,2.8-10.4,3.8-15.9,4.3c-6.3,0.6-12.5,1.6-18.8,1.4c-9.8-0.5-16.2-10.9-26.4-9.5c-10.7,1.8-16.4,12.3-25.3,17.5
		c-6.6,4-14.3,5.2-21.8,6.5c-5.6,0.9-11.5,1.3-16.9-0.9c-6.5-2.8-12.3-8.2-19.9-7.7c-8.7,0.8-14.7,7.7-21.7,12
		c-1.6,1-3.3,1.7-5.1,2.2h-33.8c-3.1-0.8-6.1-2.2-8.6-4.6c1.5,2,3.4,3.5,5.5,4.6h-9.8c-4.2-2.9-8.5-5.3-14-4.8
		c-4.4,0.4-8.2,2.5-11.8,4.8h-10.2c2.5-0.7,4.9-1.7,7-3.3c6.6-4.4,13.3-11.4,22-9.5c-3.4-1.5-7.4-1.5-10.9-0.5
		c2.3-1.8,6.5-2.8,9.8-2.5c-0.3-0.1-1-0.2-1.3-0.3c5.1-0.1,10.6,1.6,15.5-0.8c5.6-3,10-7.8,14.2-12.5c10.1-11.7,19.5-24.1,26.4-38
		c6.6-13,12-26.6,19.7-38.9c4.2-6.8,9.4-12.9,15.8-17.7c9-6.7,15.4-16.1,23.4-23.8c6.3-6.5,14.1-11.2,21.8-15.7
		c3.6-2.1,7.8-4.3,12.2-3.1c4.4,1.2,7.3,5.1,10.1,8.4c-3.6-6.7-9.6-15.3-18.4-13.2c-9.2,2.8-17.7,7.9-24.7,14.4
		c-8.5,8.2-15.8,17.7-24.7,25.5c-23.8,21.8-31.4,54.7-51.1,79.5c-6.7,7.9-13,16.7-22.4,21.6c-4.9,2.5-10.6,1.1-15.8,2.5
		c-5.8,1.6-10.9,5.1-15.1,9.4c-5.8,5.6-10.4,13.4-18.5,15.9c-8,0.4-16.1,1-24,0.2c-7.7-3.3-10.5-13.3-18.9-15.4
		c-6.1-1.4-11.2,3.2-16.1,6c-5.5,3.6-12.4,2.3-18.5,1.1c-6.4-1.3-13.7-2-18.4-7.2c-4.2-4-8-9.8-14.4-10.3
		c-8.1-0.2-12.7,8.7-20.7,8.8c-5.2,0.1-10.3-1-15.5-1.5c-3.5-0.5-7.2-0.4-10.4-2.1c-4.6-2.3-7-7.5-11.7-9.6c-2.6-0.9-5.6-0.8-8,0.6
		c-6.4,3.1-10.1,9.7-16,13.4c-4.5,2.8-9.7,4.5-14.3,7.2c-4.8,2.5-9.3,5.6-14.2,8c-5,2.4-10.8,1-15.8,3.3h-6.4
		c4.3-4.4,8.5-9.1,14.5-11.1c4.8-0.4,10-0.2,14-3.3c6.8-4.3,14-7.7,21.5-10.8c5.7-2.3,9.9-6.8,14.5-10.6c2.9-2.3,6.4-5,10.3-3.8
		c6.5,2.6,9.8,10.1,16.8,11.8c7.1,1.6,14.4,2.2,21.6,2.3c8.1-0.3,12.1-9,19.6-10.7c2.2-0.6,4.6-0.7,6.8,0.3
		c5.5,1.8,8.5,7.4,13.9,9.3c5.2,1.6,10.7,0.9,16,1.2c5.8,0.3,12.1-0.1,16.9-3.7c4.8-3.4,9.8-8.5,16.2-7.1c7,2.1,10.4,9.2,16,13.3
		c6.4,4.3,14.7,4,22,3.1c15.3-1.9,20.4-20.1,34.4-24.5c5.7-1.9,11.2,2.5,16.8,0.7c3.3-1.1,6-3.2,8.7-5.3
		c13.9-11.9,25.7-26.5,33.7-43c7.1-13.4,13.1-27.8,23.2-39.3c5-6.1,12-10,17.3-15.8c8-8.5,15.2-18.2,25.4-24.2
		c5.6-3,11.3-6.9,17.9-7.2c7.7,0.4,11.7,8,15.3,13.8c-3-6.3-6.5-13.1-12.9-16.6c-5.3-2.5-11.1,0.1-16.1,2.2
		c-12,5.1-20.3,15.6-29.1,24.8c-4.5,4.7-9.5,8.8-14.2,13.3c-10.1,9.8-17.4,21.8-24.2,34c-6.2,11.1-12.6,22.3-21.9,31.2
		c-5.8,5.5-12,11.4-19.8,13.7c-5.6,1.7-11-1.2-16.5-1.4c-5.3-0.5-10.2,2.4-14,5.8c-6.2,5.5-11.2,13.6-20.1,14.7
		c-8.7,1-19.4,1.8-26.1-5.1c-4.3-4-8.2-10-14.7-10c-6.5,0.2-11,5.6-15.9,9.2c-6,4.7-14,4.8-21.2,6.5c-4,0.6-8.1,1.9-12.2,1.1
		c-5.2-1.5-9.2-6.6-15.1-5.8c-7.4,1.1-12.1,7.7-17.9,11.8c-4,3-9.1,3.5-14,3.5c-5-0.1-10.1-0.2-14.8-1.9c-5.6-2.2-8.6-8-13.7-10.9
		c-2.7-1.8-6.3-1.7-9-0.2c-4.4,2.2-7.5,6.3-11.6,9c-3.9,2.8-8.8,3.1-13.1,4.9c-5.6,2-10.7,5-15.9,7.9c-4.1,2.4-9.4-0.2-13.4,2.5
		c-7.9,5-13.1,12.9-18.5,20.5h-2.3c5.4-6.8,9-14.9,14.3-21.8c2.7-3.5,5.6-7,9.7-8.7c4.1-1.7,8.8-0.2,12.8-2.2
		c5.7-2.7,11.3-5.6,17.5-6.9c3.7-0.9,7.8-0.9,11.2-3c3-1.9,5.5-4.6,8.5-6.5c3.8-2.4,9.1-2.2,12.9,0.2c4,2.4,6,6.9,9.6,9.7
		c3.2,2.5,7.6,2.2,11.4,2.4c6.6,0.1,13.7-0.6,19.1-4.8c6.6-5,10.9-12.8,18.5-16.5c6.2-2.8,12.5,2.1,18.8,0.3
		c5.4-1.5,10.4-4.1,15.6-6.1c5.7-2.2,11.7-4.2,16.3-8.4c4.8-4,9.4-9.7,16.1-9.8c4.7,0.2,8.3,3.7,11.3,7c3.2,3.7,7.6,6.5,12.5,7
		c6.1,0.7,12.6,1.1,18.6-0.9c10.3-3.4,16-14.7,27-16.7c7.8-1.9,13.3,6.7,21.1,4.8c9.5-2.4,17.7-8.6,24.8-15.2
		c14.3-14.5,20.5-35.1,35.3-49.4c3.5-3.4,7.8-5.9,11.7-8.9c9.3-7.2,16-17.2,25.7-23.9c5.6-3.8,11.6-7.3,18.2-9.1
		c7.1-1.9,12.6,4.3,15.9,9.7c7.6,12.9,11.8,27.4,16.8,41.4c1,3.8,2.8,7.3,5.1,10.4c-6.2-16.6-11.6-33.5-19.6-49.4
		c-3.7-6.8-9-15.8-18.1-14.3c-10.8,2.8-20.2,9.5-28.2,17.2c-6.3,6.2-12.3,12.8-19.8,17.6c-7.5,4.8-14.6,10.6-20.1,17.7
		c-8.9,10.6-15,24.4-27.6,31.3c-6.7,3.3-14.5,6.5-22.1,4.5c-5.7-1.7-9.8-6.7-15.7-7.8c-4.4-0.9-8.5,1.5-11.9,4.1
		c-5.7,4.7-11.4,10.6-19.2,11.3c-8.4,0.7-18.1,1.6-24.9-4.4c-4.1-3.6-8.2-8.8-14.2-8.5c-6,0.7-10.3,5.6-14.5,9.4
		c-6.2,6.3-14.6,9.6-21.9,14.4c-4.5,2.8-8.6,6.1-13.5,8.2c-2.8,1.3-5.9,1.1-8.8,1.7c-5.9,0.9-10.8,4.9-14.7,9.2
		c-5,5.3-8.4,12-13.8,16.9c-6.5,5.2-15.2,6.5-23.3,6.5c-9.9,0-11.5-13.6-21-14.5c-5.2-0.8-9.4,2.8-13.6,5.3
		c-4.2,2.5-9.1,1.9-13.7,2.6c-5.5,0.6-10.7,2.5-15.9,4.3c-4.9,1.7-10.3,1.2-15.1,3.3c-3,1.5-5.2,4.3-7.2,7
		c-7.3,10.7-13,22.6-21.6,32.3H92.8z"/>
	<path d="M773.9,400c0.9-0.3,1.8-0.8,2.6-1.4c3.9-2.6,8.9-4.4,13.4-2.5c2.2,1,4.3,2.4,6.2,3.8H773.9z"/>
	<path d="M439.9,400c6.1-3.5,10.7-9.5,17.5-11.9c3.9-1.4,8.2-0.8,11.8,1c5.4,2.6,9.6,7.4,15.2,9.7c5.6,1.8,11.5,0.8,17.2,0.2
		c6.7-1,13.6-1.8,20-4.3c8-3.3,12.9-11.1,20.4-15.2c3.5-2,7.8-3,11.7-1.8c6.4,1.6,11,6.8,17.3,8.5c6.9,1.4,13.9-0.2,20.9-0.6
		c6.9-0.7,14.2-1,20.3-4.6c6.6-4,12.7-10.7,21.1-9.9c10,1.3,16,11,25.6,13.3c6.3,1.5,12.7,2,19,2.9c6.5,0.9,13.4,1.1,19.4-2
		c5.5-2.8,11.9-5.9,18.2-3.6c10,3.5,15.5,13.8,24.8,18.5h-4.5c-4.6-4.4-8.3-9.8-13.8-13.2c-2.9-2-6.5-2.9-10-2.1
		c-7,1.4-11.7,8.1-18.9,9c-6.3,0.8-12.6-0.6-18.9-1.2c-6.2-0.7-12.6-1.6-18-4.7c-5.2-3.1-9.2-7.9-14.5-11.1c-3.8-2.3-8.5-3.7-12.8-2
		c-8,2.6-12.9,10.3-20.5,13.6c-7.6,3.4-16.2,3.2-24.3,4c-5.8,0.7-12.1,0.4-17.1-2.9c-5.6-3.6-11.4-8.5-18.6-7.7
		c-7.7,1.2-13.2,7.3-19,12c-3.2,2.8-6.9,4.9-10.8,6.3H482c-3.5-1.9-6.6-4.4-10.2-6.1c-3.9-1.9-8.5-2.6-12.6-1.1
		c7.2-1.4,13,3,18.4,7.2h-2.7c-3.2-1.8-6.5-3.3-10.4-3.3c3,0.6,5.7,1.8,8.3,3.3H439.9z"/>
	<path d="M529.1,400c5-3.5,9.3-8.1,14.9-10.8c3.6-1.9,8-2.4,11.9-0.9c5.7,1.7,9.9,6.3,15.3,8.5c5.5,2,11.5,1,17.2,0.7
		c7-0.7,14.2-0.7,21-2.6c7.6-2.1,12.8-8.6,20.2-11.2c3.2-1.1,6.8-1.2,10,0c7.8,2.6,13.2,9.8,21.3,12c5.4,1.4,11.1,1.7,16.7,2.4
		c6,0.7,12.2,1.5,18.1-0.2c5.9-1.5,10.6-5.9,16.6-6.8c5.8-1.1,11.5,1.7,15.8,5.5c-3.4-2-7.4-3.8-11.5-2.7c-4.3,0.9-7.8,3.6-11.5,6
		h-43c-0.2-0.1-0.4-0.1-0.5-0.2c-7.8-3.3-12.6-11-20.5-14.1c-3.2-1.3-7-1.5-10.3-0.1c-7.8,2.9-12.8,10.2-20.5,13.2
		c-1.1,0.5-2.1,0.8-3.2,1.1h-35.5c-4.6-2.3-8.4-6.1-13.1-8.2c-3.9-1.9-8.5-2.6-12.6-1c-5.3,2-9.5,5.8-13.9,9.2H529.1z"/>
	<path d="M284.2,400c3-2.9,6-5.7,9.7-7.6c2.7-1.5,5.9-1.7,8.8-0.8c5.2,1.7,8.9,6,13.6,8.4H284.2z"/>
	<path class="st2" d="M576.1,157.8c2.9-3.9,6.9-7.8,12.1-7.9c1,0.1,2,0.4,3,0.6c-5.2-0.6-9.3,3.2-12.4,6.9
		c-13.2,16.9-22.5,36.3-30.4,56.2c-0.3,1.5-1.8,1.7-2.9,2.5c3.7,0.9,7.4-1,11.1-1.4c9.3-2.2,18.9,0.2,28.2-1.4c4-0.7,8.1-0.6,11.9,1
		c8,3.1,13.4,10.3,20.6,14.6c4.1,2.5,9.2,2.7,13.7,1.3c7-2.2,13.5-6,18.5-11.4c4.1-4.1,7.2-9.6,12.8-11.8c4.7-1.9,9.7,0.7,13.4,3.6
		c2.9,2.6,5.7,5.2,8.6,7.7c-3.8-1.9-7.4-5.1-12-4.8c-4.4,0.1-7.8,3.4-10.4,6.6c-7.3,9.4-11.8,21-20.9,28.9
		c-3.6,3.1-7.4,6.4-12.3,7.1c-5.2,0.6-10-2.3-14.1-5.3c-7.8-5.8-15.1-12.5-24.3-16.1c-5.9-2.3-12-3.9-17.8-6.5
		c-9.1-4.4-19.3-7.2-27.6-12.6C553.4,195.5,563,175.5,576.1,157.8z"/>
	<path d="M578.8,157.3c3.1-3.7,7.2-7.4,12.4-6.9c6.2,1.8,10.4,7.3,14.8,11.7c-3.5-2.9-6.7-6.2-10.9-8.2c-4-2.1-9.2-1.6-12.4,1.6
		c-5.3,4.9-8.8,11.4-12.7,17.4c-7.9,12.7-14.4,26.3-19.6,40.3c5.6-2.9,10.5-7.2,16.5-9.5c5.6-2.2,11.1-4.6,16.7-6.7
		c4.9-1.8,10.5-1.9,15.4,0.2c8.1,3.1,13.9,10.3,22.1,13.1c6.9,1.9,14.3,0.5,20.8-2c5.9-2.1,10.4-7.1,16.6-8.3
		c3.7-0.8,7.2,1.3,10.1,3.3c2.5,2.3,4.7,4.9,7,7.4c-3.7-2.9-8.6-5.5-13.4-3.6c-5.6,2.1-8.7,7.7-12.8,11.8c-5,5.4-11.5,9.2-18.5,11.4
		c-4.5,1.4-9.6,1.1-13.7-1.3c-7.2-4.4-12.6-11.5-20.6-14.6c-3.7-1.6-7.9-1.7-11.9-1c-9.3,1.6-18.9-0.8-28.2,1.4
		c-3.7,0.4-7.4,2.3-11.1,1.4c1-0.8,2.6-1.1,2.9-2.5C556.3,193.6,565.6,174.2,578.8,157.3z"/>
	<path class="st2" d="M582.7,155.5c3.2-3.2,8.5-3.7,12.4-1.6c4.1,2,7.4,5.3,10.9,8.2c7.9,8.1,17.9,13.4,27.4,19.5
		c-5.7-2.7-11.3-5.8-16.8-8.9c-5.9-3.4-10.5-8.4-15.6-12.8c-3.4-2.8-8.3-5-12.6-3.1c-4.4,1.7-7.5,5.4-10.4,9
		c-10.9,14.1-19.6,29.8-26.2,46.4c4.6-5.1,8.7-10.8,14.1-15.1c5.6-4.5,11.4-8.8,17.1-13.2c3.7-2.9,8.8-4.9,13.5-3.1
		c7.9,3,13,10.3,20.6,13.7c6.3,2.9,13.5,3,20.3,3.2c6.2,0.1,11.8-3.3,18-3c2.3,0.2,4.4,1.3,6.5,2.4c2.5,2,4.9,4.1,7.1,6.4
		c-2.9-2-6.4-4.1-10.1-3.3c-6.2,1.2-10.8,6.2-16.6,8.3c-6.5,2.5-14,3.9-20.8,2c-8.2-2.8-14-10-22.1-13.1c-4.9-2.1-10.5-2-15.4-0.2
		c-5.7,2-11.2,4.5-16.7,6.7c-6,2.3-10.8,6.6-16.5,9.5c5.2-14,11.7-27.6,19.6-40.3C573.9,166.9,577.3,160.4,582.7,155.5z"/>
	<path class="st2" d="M565.7,168.8c4-4.9,7.4-10.4,12.3-14.5c-7.2,9.2-14.1,18.7-20.1,28.8c-5.8,10.2-10.5,20.9-16.1,31.1
		c-1.3-0.5-2.5-1-3.8-1.5C547.3,198.2,554.9,182.5,565.7,168.8z"/>
	<path d="M588.2,156.8c4.4-1.9,9.2,0.3,12.6,3.1c5.1,4.4,9.7,9.4,15.6,12.8c5.5,3.2,11.1,6.2,16.8,8.9c4.4,2.4,9.2,3.9,13.7,6.1
		c-4.9-1.2-9.8-2.1-14.4-4.1c-6.9-2.9-14.1-5.2-20.2-9.6c-5.3-3.6-9.7-8.3-15.3-11.3c-3.1-1.6-7-2.2-10.2-0.4
		c-3.8,2-6.6,5.5-9.2,8.8c-9.2,11.6-17.9,23.8-23.8,37.4c6.5-10.7,14.2-20.6,23.1-29.3c4.7-4.8,10.5-10.2,17.7-9.3
		c7.9,1.3,13,8.1,19.5,12.1c6.2,4.3,13.8,5.6,21,7.3c6.2,1.6,12.8-0.1,18.9,1.9c2.8,1.4,5.2,3.5,7.5,5.6c-2-1.1-4.1-2.2-6.5-2.4
		c-6.2-0.3-11.8,3.2-18,3c-6.8-0.2-14-0.2-20.3-3.2c-7.6-3.4-12.8-10.8-20.6-13.7c-4.7-1.8-9.7,0.2-13.5,3.1
		c-5.7,4.5-11.5,8.7-17.1,13.2c-5.4,4.4-9.4,10-14.1,15.1c6.6-16.5,15.3-32.3,26.2-46.4C580.7,162.2,583.9,158.5,588.2,156.8z"/>
	<path class="st2" d="M586.8,162.3c3.1-1.8,7.1-1.2,10.2,0.4c5.6,3,10.1,7.8,15.3,11.3c6.1,4.4,13.3,6.7,20.2,9.6
		c4.6,1.9,9.6,2.9,14.4,4.1c2.5,0.9,5,2,7.1,3.6c-6.1-2-12.7-0.3-18.9-1.9c-7.2-1.8-14.8-3-21-7.3c-6.5-4-11.6-10.9-19.5-12.1
		c-7.3-0.8-13,4.5-17.7,9.3c-9,8.7-16.7,18.6-23.1,29.3c6-13.6,14.7-25.8,23.8-37.4C580.3,167.8,583,164.3,586.8,162.3z"/>
	<path class="st2" d="M451.3,169.1c2.4-2.9,6.5-5.2,10.3-3.8c2.6,1.4,4.2,4.1,5.3,6.8c-1.3-1.6-2.1-3.7-3.8-5
		C459.3,164.8,454.4,166.5,451.3,169.1z"/>
	<path d="M451.3,169.1c3.1-2.6,8-4.3,11.8-2c1.7,1.3,2.5,3.4,3.8,5c3.4,7.7,6.3,15.7,10.9,22.8c-5.5-6.3-8.4-14.3-12.7-21.4
		c-2.5-4.5-8.7-4.6-12.8-2.4c-3.5,2-5.2,5.8-7.5,8.9C446.4,176.1,448.5,172.4,451.3,169.1z"/>
	<path class="st2" d="M452.2,171.1c4.1-2.1,10.3-2.1,12.8,2.4c4.3,7.1,7.2,15.1,12.7,21.4c4.3,5.8,8.4,12.1,14.2,16.5
		c-9.2-5.6-18-12.9-23.1-22.6c-2.5-4.3-4.5-10.2-9.8-11.7c-3.2-0.7-6.9-1.3-9.6,0.9c-5.4,4.4-8.1,11.5-14.4,14.8
		c4.1-3.5,7.1-8.1,9.7-12.8C447,176.9,448.7,173.1,452.2,171.1z"/>
	<path d="M449.4,178c2.7-2.2,6.5-1.5,9.6-0.9c5.3,1.5,7.3,7.4,9.8,11.7c5.1,9.7,13.9,17.1,23.1,22.6c2.6,1.6,5.9,2.1,8.8,0.9
		c3.8-1.5,6.8-4.5,10.5-6.2c-4.2,3-7.6,7-12,9.7c-4,2.5-9.3,2.3-13.5,0.4c-6.7-2.4-13.1-6.4-16.6-12.8c-3.5-5.7-5.6-13.4-12.6-15.7
		c-2.4-0.9-5-2.1-7.6-1.5c-4.6,1.9-7,6.7-11.6,8.7c-3.2,1.3-6.6,1.4-9.9,1.9c2.6-1.1,5.2-2.4,7.5-4.1
		C441.3,189.6,444,182.4,449.4,178z"/>
	<path class="st2" d="M547.4,189c3.1-3.1,5.8-6.7,8.9-9.7c-7.3,10.3-14.5,20.7-23.4,29.6c-1.9-0.9-3.7-1.8-5.8-2
		C534.2,201.2,541.6,195.9,547.4,189z"/>
	<path class="st2" d="M449,186.3c2.6-0.7,5.2,0.5,7.6,1.5c7,2.3,9.1,10.1,12.6,15.7c3.5,6.4,10,10.4,16.6,12.8
		c4.2,1.9,9.5,2.1,13.5-0.4c4.4-2.8,7.7-6.8,12-9.7c6.5-3.8,13.7-6.1,20.8-8.4c-7.5,2.9-13.9,7.7-19.7,13.2
		c-9.9,5.9-19,12.9-27,21.1c-4.8-0.3-9.8-1.6-13.4-4.9c-7-6.2-7.6-17-15.1-22.7c-2.6-1.8-4.9-4.2-7.9-5.4c-3.1-1-5.7,1.3-8.4,2.5
		c-2.6,1.5-5.8,0.9-8.5,0c-4.2-1.6-8.5-2.9-13-3.2c2.8-0.5,5.7-0.8,8.5-1.5c3.3-0.5,6.8-0.6,9.9-1.9
		C442,193.1,444.4,188.2,449,186.3z"/>
	<path class="st2" d="M398.4,202.9c2-2.2,4.6-4.7,7.9-4.1c5.2,1.1,10.7,1.4,15.4,4.2c5.2,2.8,8.9,7.7,14,10.7
		c3.2,2.1,7.5,0.2,10.7,2.2c4.5,3.5,7.7,8.4,11,13.1c3.2,5.1,5.1,10.8,7.9,16.1c-10.4,5.4-17,15.4-24.6,23.9
		c-4.3,5.1-9.8,9.7-16.5,11.2c-8,1.7-17,1.3-23.7-3.7c-4.9-3.6-9.9-8.9-16.6-8.2c-9.6,0.8-14.7,10.6-23.5,13.2
		c-7.1,2.2-15,2.6-22.2,0.8c-7.6-1.9-11.1-11-19.2-11.8c-7.2,0.2-12.1,6.4-17.1,10.7c-6.8,6-14.9,10.3-21.6,16.5
		c-4.7,4-8.8,8.8-14.1,12.1c-3,1.8-6.6,2.5-9.5,4.5c-6,4-10.6,9.9-14.9,15.6c-5.2,7.1-8.8,15.6-15.8,21.1c-3.8,2.9-8.2,5.1-12.9,6.1
		c-2.2-0.8-4.2-2.1-6.5-2.7c-7-2-11.2-8.5-15.9-13.6c-2.4-2.9-5.4-5.2-8.1-7.8c2.7,1.7,5.5,3.2,8.3,4.6c3.9,2.4,7.3,5.6,11.4,7.7
		c4.2,1.9,9,0.4,13.1,2.6c2.5,1.1,4,3.6,6,5.4c1.6-0.9,3-2.3,4.5-3.5c-2.2-3.1-4.7-6.6-8.6-7.7c-5-1.5-10.2,2.3-15,0
		c5.4,1.3,10.3-1.8,15.5-2.6c4.9-0.3,7.9,4.3,10.7,7.6c0.4-0.5,0.8-1,1.2-1.5c4.5-5.6,8.1-11.9,11.6-18.3
		c4.5-7.2,8.4-14.8,14.1-21.1c3.4-4.2,7.9-7.3,12.1-10.7c6-5.4,10.8-11.9,16.4-17.7c7.1-7.9,16.7-13,24.3-20.3c3.8-3.4,8.4-7,13.8-6
		c7.9,1.7,11.4,10.9,19.4,12.4c8.1,1.4,16.8,0.1,23.9-4c6.9-3.7,11.8-10.9,19.7-12.5c6.1-1.1,10.8,3.8,14.7,7.8
		c5.8,6.6,14.2,10,22.5,12.1c4.7,1.2,10,0.6,14.1-2.2c5.6-4,9.9-9.5,15.7-13.3c-2.2-4.9-4.6-9.8-8.1-13.9c-2.9-3.6-7.1-6-9.9-9.6
		c-5.3-6-8.6-13.5-14.5-19c-3.6-3.5-8.6-5.9-13.7-5.5c-4.5,0.8-7.7,4.6-9.9,8.3c2.1-0.4,4.2,0.4,6.2,1.2c2.5-1.8,5.8-3.2,8.8-1.6
		c5.6,3,8.9,8.7,11.6,14.2c4.9,10.7,9.5,21.5,15.2,31.8c2.6-0.1,4.9-1.4,7.4-2.2c-5.3,3.6-12.4,6-18.5,2.8
		c-10.2-5.4-18.7-13.3-26.6-21.5c-3.7-3.8-9.1-7.7-14.6-5.5c-6.5,2.5-10.7,8.3-16,12.6c-6.9,5.8-16,9.5-25.1,8.8
		c-8.1-0.8-11.5-9.3-17.9-13.1c-3.9-2.6-9.2-2.3-13.1,0.2c-4.7,3-9,6.7-13.8,9.6c-13.5,9.4-21.6,24.1-32.2,36.3
		c-5.5,6.2-10.6,12.8-15,19.8c3.4-6.6,7.2-13.1,11-19.5c4.7-7,9.7-13.8,14.3-20.9c5.7-8.7,11.3-17.7,19.3-24.5
		c4.8-3.9,10.3-6.7,16-8.9c3.5-1.4,7.4-1.5,10.8,0.2c6.4,3.9,9.5,11.2,15.2,15.7c3.5,2.6,8.2,2.8,12.3,1.7c7.4-2,13.7-6.9,18.7-12.5
		c6.1-5.9,10.7-14.2,19.1-17.2c5.2-1.8,9.9,1.7,13.1,5.4c7.7,8.5,15.3,17.1,22.9,25.6c2.7,2.7,5.6,5.6,9.4,6.7
		c-4.8-2.6-8-7.2-10.8-11.8c-6-9.9-12.3-19.8-20.5-28c-3.2-3.6-8.6-5.8-13.1-3.2C392.8,210.2,395.5,206.4,398.4,202.9z"/>
	<path d="M405.9,203.6c5.1-0.4,10.1,2,13.7,5.5c5.9,5.5,9.2,13,14.5,19c2.9,3.6,7,6,9.9,9.6c3.5,4.1,6,9,8.1,13.9
		c-5.8,3.8-10.1,9.3-15.7,13.3c-4.1,2.9-9.3,3.5-14.1,2.2c-8.3-2.1-16.7-5.5-22.5-12.1c-3.9-3.9-8.6-8.9-14.7-7.8
		c-7.9,1.7-12.9,8.9-19.7,12.5c-7.2,4.1-15.9,5.4-23.9,4c-8-1.5-11.5-10.7-19.4-12.4c-5.4-1-10,2.6-13.8,6
		c-7.6,7.4-17.2,12.4-24.3,20.3c-5.6,5.8-10.4,12.3-16.4,17.7c-4.1,3.5-8.7,6.5-12.1,10.7c-5.7,6.3-9.6,13.9-14.1,21.1
		c3.6-7.4,7.2-14.7,11.1-22c4.5-7,9.6-13.5,15-19.8c10.6-12.2,18.7-26.9,32.2-36.3c4.8-3,9.1-6.6,13.8-9.6c3.9-2.5,9.2-2.8,13.1-0.2
		c6.4,3.8,9.8,12.2,17.9,13.1c9.1,0.7,18.2-3.1,25.1-8.8c5.2-4.3,9.5-10.1,16-12.6c5.5-2.2,10.9,1.7,14.6,5.5
		c7.9,8.2,16.4,16.1,26.6,21.5c6,3.2,13.2,0.8,18.5-2.8c-2.4,0.8-4.8,2.1-7.4,2.2c-5.7-10.3-10.3-21.1-15.2-31.8
		c-2.7-5.5-6-11.2-11.6-14.2c-3-1.5-6.3-0.2-8.8,1.6c-2-0.8-4-1.6-6.2-1.2C398.2,208.3,401.4,204.5,405.9,203.6z"/>
	<path class="st2" d="M810.7,400c-5.8-4-11.1-8.7-15.4-14.4c-7-9.1-12.9-20-23.5-25.2c-5.4-3.1-11.9-1.1-17.5-3.3
		c-6.4-2.4-12.1-6.3-18.1-9.6c-6.4-3.4-12.4-7.4-17.7-12.4c-5.9-5.5-11.5-12.6-20-13.8c-6-0.6-11,3.2-15.8,6.1
		c-6.2,3.7-13.7,3.7-20.7,3.4c-7-0.4-14.5-0.4-20.6-4.3c-6.9-4.4-12.2-11.7-20.6-13.3c-6.3-1.3-11.8,2.4-17.1,5.1
		c-6.1,3-13.1,1.4-19.4,0.3c-8.3-1.5-16.9-2.3-24.1-7c-5.3-3.4-10.7-8.4-17.5-7.8c-8.3,1-13.5,8.4-18.8,14.1
		c-6.6,8.1-16.3,12.7-24.9,18.2c-6.7,3.7-12.8,9.4-20.7,10.2c-6.2-0.4-13.1-1.9-18.6,2c-9,6-13.9,16.1-20.2,24.5
		c-6.7,9.5-17,15.6-27.3,20.4c7.4-5.1,15.1-9.9,21.2-16.6c8.5-9,13.8-20.4,22.3-29.4c3.5-3.7,7.5-7,12.4-8.7
		c4.3-1.6,8.9-1.5,13.2-3.2c5.6-2.1,10.5-5.6,15.3-8.9c8.2-5.9,17.2-10.8,24.2-18.1c3.8-3.7,7.2-8,11.7-11.1c3.4-2.5,7.8-4.1,12-3
		c6.9,1.5,11.5,7.5,17.6,10.5c6.2,3.1,13.2,4.3,19.7,6.5c6.4,1.9,13.4,4.3,20,1.7c5.5-2.6,10.9-6.5,17.2-6c-6.2-0.8-11.6,2.8-17.5,4
		c-5.3,1.2-10.5-0.7-15.3-2.7c-10.1-4.6-20.6-8.6-28.9-16.2c-5.3-4.6-11.1-10.8-18.9-9.6c-7.8,1.6-12.5,8.6-17.8,13.9
		c-4.9,5.1-10.7,9.2-16.5,13.1c-7.7,5.3-14.5,11.9-22.4,16.9c-5,3.3-11.5,2.2-16.8,4.9c-3.5,1.7-6.5,4.2-9,7.1
		c-9.4,10.7-14.2,24.4-23.2,35.4c-6.5,8-14.7,14.5-22.9,20.6c-0.1,0.6-0.6,0.5-0.9,0c7.4-6.2,14.5-13.1,20.6-20.6
		c10.2-12.3,16.3-27.4,26.2-40c4.7-6.2,10.8-11.5,18-14.4c8.4-3.4,15.2-9.4,22-15.2c7-6.1,14.9-11.2,21.9-17.4
		c3.8-3.4,7.2-7.2,11.3-10.2c3.7-2.7,8.7-4.2,13.2-2.4c6.7,2.6,11,8.8,16.3,13.3c6.8,6,14.7,10.5,22.3,15.3
		c-2.8-2.5-5.8-4.7-8.5-7.4c-1.9-2-4.7-3.5-5.2-6.4c-3.7-8.6-7.4-17.2-10.9-25.9c-5.6-13.4-10.3-27.1-16.9-40
		c-2.4-4.8-5.3-9.3-9-13.1c8.1,6.7,12.2,16.7,16.9,25.8c11.8,23.4,25,46.2,37,69.4c3.7,2.3,7.6,4.6,12.1,5.3c4,0.5,7.9-1,11.7-2.1
		c-13.2-17.8-28.2-34.1-41-52.2c-10.4-13-18.2-27.6-27.7-41.2c7.6,7.6,15.6,15,23.9,21.8c8.8,7.6,17.1,15.8,27,22
		c9.5,6,17.3,14,25,22.1c3.7,3.3,7.3,7.5,12.5,8.2c4.2,0.5,7.8-2.2,10.6-5c7-7.4,12-16.4,16.2-25.6c4.5-9.7,7.4-20.1,13.1-29.2
		c2.4-4,6.3-7.5,11.2-8c4.6-0.1,9.2,1,13.7,1.9c2.7,1,5.5,1.8,8.2,2.7c-6.9,0-14.2,0.8-20.2,4.3c-7.2,5.5-10.4,14.2-13.5,22.4
		c-7.8,23.6-12.5,48.7-26,70c4.1,3.2,9.7,4.8,15,4.7c6.5,0,13.3,0,19.5-2.2c5.9-2.2,9.3-8.1,14.8-11c3-1.6,6.8-1.8,9.9-0.2
		c6.1,2.8,10.3,8.2,15.2,12.5c4.5,4.3,10.1,7,15.5,9.8c6.4,3.2,12.5,7.1,18.7,10.7c3.7,2.2,8,3.4,12.3,2.7c6.2-0.5,11.8,3,15.6,7.7
		c9.3,10.5,14.6,24.2,26.1,32.8c4.3,3.3,8.6,6.9,13.3,9.8H810.7z"/>
	<path class="st2" d="M96.4,400c8.6-9.7,14.3-21.6,21.6-32.3c2-2.7,4.1-5.5,7.2-7c4.8-2.1,10.2-1.6,15.1-3.3
		c5.2-1.8,10.4-3.7,15.9-4.3c4.6-0.7,9.6-0.1,13.7-2.6c4.2-2.4,8.4-6,13.6-5.3c9.5,0.9,11.2,14.5,21,14.5c8.1,0,16.8-1.3,23.3-6.5
		c5.4-4.9,8.8-11.6,13.8-16.9c3.9-4.3,8.8-8.2,14.7-9.2c2.9-0.6,6-0.4,8.8-1.7c4.8-2.1,9-5.5,13.5-8.2c7.3-4.8,15.6-8.1,21.9-14.4
		c4.2-3.8,8.5-8.6,14.5-9.4c6-0.3,10.1,4.9,14.2,8.5c6.8,6,16.6,5.1,24.9,4.4c7.8-0.6,13.5-6.6,19.2-11.3c3.4-2.6,7.5-5,11.9-4.1
		c5.9,1.1,10,6.1,15.7,7.8c7.6,2,15.3-1.2,22.1-4.5c12.6-6.9,18.6-20.7,27.6-31.3c5.6-7.1,12.6-12.8,20.1-17.7
		c7.5-4.8,13.5-11.3,19.8-17.6c8-7.7,17.4-14.4,28.2-17.2c9.1-1.4,14.4,7.6,18.1,14.3c8,15.8,13.3,32.8,19.6,49.4
		c-2.3-3.1-4.1-6.6-5.1-10.4c-4.9-14-9.2-28.5-16.8-41.4c-3.2-5.5-8.8-11.7-15.9-9.7c-6.6,1.9-12.5,5.4-18.2,9.1
		c-9.7,6.7-16.5,16.7-25.7,23.9c-3.9,2.9-8.2,5.4-11.7,8.9c-14.8,14.2-21,34.8-35.3,49.4c-7.1,6.6-15.3,12.8-24.8,15.2
		c-7.7,1.9-13.2-6.7-21.1-4.8c-11,2-16.7,13.3-27,16.7c-6,2-12.4,1.6-18.6,0.9c-4.9-0.5-9.4-3.3-12.5-7c-2.9-3.3-6.6-6.8-11.3-7
		c-6.7,0.2-11.3,5.8-16.1,9.8c-4.6,4.3-10.6,6.2-16.3,8.4c-5.2,2-10.2,4.6-15.6,6.1c-6.3,1.7-12.6-3.1-18.8-0.3
		c-7.6,3.8-11.9,11.5-18.5,16.5c-5.4,4.2-12.5,4.9-19.1,4.8c-3.8-0.2-8.2,0.1-11.4-2.4c-3.6-2.9-5.6-7.3-9.6-9.7
		c-3.8-2.4-9-2.6-12.9-0.2c-3.1,1.9-5.5,4.6-8.5,6.5c-3.4,2.1-7.5,2-11.2,3c-6.2,1.3-11.9,4.3-17.5,6.9c-4,2.1-8.7,0.6-12.8,2.2
		c-4.1,1.8-7.1,5.3-9.7,8.7c-5.3,6.8-8.9,15-14.3,21.8H96.4z"/>
	<path class="st2" d="M102.5,400c5.3-7.5,10.6-15.5,18.5-20.5c4-2.7,9.3-0.1,13.4-2.5c5.2-2.9,10.3-5.9,15.9-7.9
		c4.3-1.8,9.3-2.1,13.1-4.9c4.1-2.7,7.1-6.8,11.6-9c2.8-1.5,6.4-1.5,9,0.2c5.2,2.9,8.1,8.7,13.7,10.9c4.7,1.8,9.9,1.9,14.8,1.9
		c4.8,0,10-0.5,14-3.5c5.8-4.1,10.5-10.7,17.9-11.8c5.9-0.9,9.9,4.2,15.1,5.8c4.1,0.8,8.2-0.5,12.2-1.1c7.2-1.7,15.1-1.8,21.2-6.5
		c4.9-3.6,9.3-9,15.9-9.2c6.5,0,10.4,6,14.7,10c6.7,6.9,17.3,6.1,26.1,5.1c8.9-1.1,14-9.2,20.1-14.7c3.8-3.4,8.7-6.3,14-5.8
		c5.5,0.2,10.9,3.1,16.5,1.4c7.9-2.3,14-8.2,19.8-13.7c9.3-8.9,15.6-20.1,21.9-31.2c6.8-12.2,14.1-24.2,24.2-34
		c4.7-4.4,9.8-8.6,14.2-13.3c8.8-9.2,17.1-19.7,29.1-24.8c5-2.1,10.7-4.7,16.1-2.2c6.4,3.4,9.9,10.3,12.9,16.6
		c-3.6-5.7-7.6-13.4-15.3-13.8c-6.6,0.3-12.2,4.2-17.9,7.2c-10.2,6-17.4,15.7-25.4,24.2c-5.3,5.8-12.3,9.7-17.3,15.8
		c-10.1,11.6-16,25.9-23.2,39.3c-8,16.5-19.8,31.1-33.7,43c-2.6,2.1-5.4,4.2-8.7,5.3c-5.6,1.7-11.2-2.6-16.8-0.7
		c-14,4.4-19.1,22.5-34.4,24.5c-7.4,0.9-15.6,1.2-22-3.1c-5.6-4.1-9-11.2-16-13.3c-6.4-1.4-11.4,3.7-16.2,7.1
		c-4.8,3.6-11.1,4-16.9,3.7c-5.3-0.3-10.8,0.4-16-1.2c-5.4-1.9-8.4-7.6-13.9-9.3c-2.1-0.9-4.6-0.8-6.8-0.3
		c-7.5,1.7-11.5,10.4-19.6,10.7c-7.2-0.2-14.5-0.7-21.6-2.3c-7-1.7-10.3-9.2-16.8-11.8c-4-1.2-7.5,1.5-10.3,3.8
		c-4.6,3.8-8.9,8.3-14.5,10.6c-7.4,3-14.7,6.4-21.5,10.8c-4,3.1-9.2,2.9-14,3.3c-6,2-10.1,6.7-14.5,11.1H102.5z"/>
	<path d="M410.1,220.8c6.3,4.3,8.7,12.2,11.2,19.1C417.6,233.6,414.4,226.8,410.1,220.8z"/>
	<path class="st2" d="M518.5,400c3.9-1.4,7.6-3.5,10.8-6.3c5.7-4.8,11.2-10.9,19-12c7.2-0.8,13,4.1,18.6,7.7
		c5,3.3,11.3,3.6,17.1,2.9c8.2-0.8,16.7-0.7,24.3-4c7.6-3.3,12.5-11,20.5-13.6c4.3-1.6,9-0.3,12.8,2c5.2,3.2,9.2,8,14.5,11.1
		c5.5,3.2,11.9,4,18,4.7c6.3,0.6,12.6,2,18.9,1.2c7.2-0.9,11.9-7.6,18.9-9c3.4-0.8,7.1,0.1,10,2.1c5.5,3.4,9.1,8.8,13.8,13.2H705
		c3.6-2.4,7.1-5.1,11.5-6c4.1-1,8.1,0.7,11.5,2.7c-4.2-3.7-10-6.6-15.8-5.5c-6.1,0.9-10.8,5.3-16.6,6.8c-5.9,1.7-12.1,0.8-18.1,0.2
		c-5.6-0.7-11.2-1-16.7-2.4c-8.1-2.2-13.4-9.4-21.3-12c-3.2-1.2-6.8-1.1-10,0c-7.4,2.6-12.6,9.1-20.2,11.2c-6.9,1.9-14,1.9-21,2.6
		c-5.7,0.3-11.7,1.3-17.2-0.7c-5.4-2.2-9.6-6.8-15.3-8.5c-3.9-1.4-8.3-0.9-11.9,0.9c-5.6,2.7-9.8,7.3-14.9,10.8H518.5z"/>
	<path class="st2" d="M607.1,400c1.1-0.3,2.2-0.7,3.2-1.1c7.7-3,12.7-10.3,20.5-13.2c3.3-1.4,7-1.2,10.3,0.1
		c7.9,3.1,12.8,10.8,20.5,14.1c0.2,0.1,0.4,0.1,0.5,0.2H607.1z"/>
	<path class="st2" d="M532.1,400c4.4-3.5,8.5-7.3,13.9-9.2c4.1-1.6,8.7-0.9,12.6,1c4.7,2.2,8.5,5.9,13.1,8.2H532.1z"/>
	<path class="st2" d="M477.5,400c-5.4-4.2-11.2-8.6-18.4-7.2c4.1-1.4,8.7-0.8,12.6,1.1c3.6,1.6,6.8,4.2,10.2,6.1H477.5z"/>
	<path class="st2" d="M472.8,400c-2.6-1.5-5.3-2.8-8.3-3.3c3.9,0.1,7.2,1.5,10.4,3.3H472.8z"/>
	<path class="st2" d="M363.9,400c3.6-2.3,7.4-4.4,11.8-4.8c5.4-0.5,9.8,1.9,14,4.8H363.9z"/>
	<path class="st2" d="M111.8,400c5-2.3,10.9-1,15.8-3.3c4.9-2.3,9.4-5.5,14.2-8c4.6-2.7,9.7-4.4,14.3-7.2c6-3.7,9.7-10.3,16-13.4
		c2.4-1.3,5.4-1.5,8-0.6c4.8,2.1,7.1,7.2,11.7,9.6c3.2,1.6,6.9,1.6,10.4,2.1c5.2,0.5,10.3,1.6,15.5,1.5c8-0.1,12.6-9,20.7-8.8
		c6.4,0.5,10.2,6.3,14.4,10.3c4.7,5.2,12,5.9,18.4,7.2c6.1,1.1,13,2.4,18.5-1.1c4.9-2.9,10-7.4,16.1-6c8.4,2.1,11.2,12.1,18.9,15.4
		c7.9,0.9,16,0.3,24-0.2c8.1-2.6,12.6-10.3,18.5-15.9c4.2-4.3,9.3-7.8,15.1-9.4c5.2-1.4,10.9,0,15.8-2.5
		c9.4-4.9,15.7-13.7,22.4-21.6c19.8-24.8,27.3-57.7,51.1-79.5c8.9-7.9,16.2-17.3,24.7-25.5c7.1-6.5,15.5-11.6,24.7-14.4
		c8.8-2,14.8,6.5,18.4,13.2c-2.8-3.3-5.7-7.2-10.1-8.4c-4.3-1.2-8.5,1-12.2,3.1c-7.7,4.6-15.5,9.3-21.8,15.7
		c-8,7.8-14.4,17.2-23.4,23.8c-6.4,4.7-11.7,10.9-15.8,17.7c-7.8,12.3-13.1,25.9-19.7,38.9c-6.9,13.9-16.3,26.3-26.4,38
		c-4.2,4.7-8.5,9.5-14.2,12.5c-4.9,2.3-10.4,0.7-15.5,0.8c0.3,0.1,1,0.2,1.3,0.3c-3.3-0.3-7.4,0.7-9.8,2.5c3.6-1,7.5-1.1,10.9,0.5
		c-8.7-1.9-15.4,5.1-22,9.5c-2.1,1.6-4.5,2.6-7,3.3h-37.4c-4.7-2.5-8.5-6.7-13.6-8.4c-2.9-0.8-6.1-0.6-8.8,0.8
		c-3.7,1.9-6.7,4.7-9.7,7.6H111.8z"/>
	<path class="st2" d="M823.6,400c-0.2-0.1-0.3-0.2-0.5-0.3c-11-7.1-21.8-15.1-30.1-25.3c-7.1-9.1-11.8-20.2-20.6-27.9
		c-4.1-3.6-9.2-6-14.6-6.6c-8.1-0.8-15-5.5-22-9.3c-7.1-3.7-14.6-6.8-21-11.9c-4.4-3.3-8.2-7.6-13.4-9.5c-3.5-1.4-7.7-0.9-11,0.9
		c-6.1,3.2-10,9.1-16.1,12.2c-4.8,2.4-10.2,3.6-15.5,4.1c-1.8,0.7-0.6-1.4-0.6-2.2c5.5-21.6,8.7-43.8,15.1-65.2
		c2.7-8.1,6-16.9,13.5-21.8c6.6-4.5,14.1-10.5,22.7-8.4c5.5,1.7,10.7,3.9,16.2,5.5c-5.4-0.9-10.6-3.1-16.2-2.6
		c-6.7,0.8-11.9,5.9-16.5,10.4c-6.2,6-10.8,13.5-13.6,21.6c-7,19.6-9.2,40.4-12.4,60.8c2.2-0.6,4.2-1.7,6-3.1
		c1.9-12.2,3.7-24.4,6.5-36.4c2-8.2,4.2-16.5,8.2-24c3.2-5.6,7.6-10.4,11.7-15.4c3.6-4.1,7.9-8.3,13.5-9.2c5.2-1,10.4,0.5,15.6,0.8
		c3.6,0.2,6.9,1.9,9.7,4c5.5,4.7,9.6,10.8,13.4,16.9c-5-6.4-10.2-14.2-18.8-15.7c-7.3-0.7-15.5-1.8-22.1,2.1
		c-7.4,4.9-12,12.8-17,19.9c-10.3,15.5-13.2,34.3-16.1,52.3c2.1-1.5,2.6-4.6,4.1-6.7c2.4-10.1,4.5-20.4,8.8-29.9
		c3-6.8,7.6-12.7,12.2-18.5c3.7-4.4,7.6-9,13-11.3c6-2.3,12.5-0.9,18.8-1.2c5.4,0.1,10.1,3.5,13.5,7.4c6.5,7.4,11,16.3,16.2,24.6
		c8,13.7,18,26,28.8,37.5c3.1,2.9,6.4,6.2,10.6,7.4c4.1,0.6,8.5,0.2,12.3,2.3c8.2,4.5,13,12.8,18.8,19.8
		c5.4,6.8,13.5,10.2,20.7,14.8c5.2,3,10.5,7,16.8,6.4c4-0.4,8.2,0.5,11.2,3.4c8.4,7.9,12.6,19.1,20.7,27.2h-2.3
		c-5.9-7.2-9.9-16.3-18.6-20.6c-3.1-1.4-6.6-0.4-9.8,0.2c-4.5,0.6-8.2-2.3-11.8-4.3c-8.7-5.4-18.4-9.8-24.6-18.3
		c-6-7.5-11-16.8-20.3-20.7c-4.1-1.6-9-0.4-12.9-2.8c-5.3-3.2-9.4-8-13.5-12.5c-5.4-6.2-10.8-12.5-15.5-19.3
		c-7.9-10.6-13.3-22.9-21.4-33.3c-3.5-4.4-7.5-8.8-13-10.6c-4-1-8.1-0.2-12.1-0.6c-4.8-0.4-9.8,0.2-13.9,2.8c-4.9,3-8.5,7.6-12.1,12
		c-3.7,4.6-7.9,8.8-10.6,14.1c-3.3,6.1-5.4,12.7-7.1,19.3c1.2-1.6,2.8-2.9,3.4-4.9c-0.1,0.3-0.1,0.6-0.2,1c2.6-2.4,5.6-4.6,9.3-4.6
		c4.9-0.4,9.5,1.8,14.3,2.4c5.1,0.6,10.3,0.5,15.3,1.9c6.9,1.5,13.1,5.7,20.1,6.7c4.5,0.3,9.2,1.2,12.7,4.2
		C770,320,775.8,332.2,783,343c8.3,12.5,18.9,23.4,30.2,33.1c3.4,3,7.7,5.1,12.4,4.1c4.5-1,9.3,0.3,12.8,3.3
		c5.7,4.6,9.5,10.9,14.3,16.4h-7.5c-2.7-1.3-5.6-2-8.6-1.1c-0.9,0.4-1.9,0.7-2.8,1.1H823.6z"/>
	<path class="st2" d="M856.5,400c-2-1.4-3.8-3-5.3-4.9c-6.2-7.3-10.7-16.6-19.4-21.4c-5.1-2.9-11.4-0.4-16.5-3.3
		c-5.6-3.1-9.9-7.9-14.3-12.3c-5.8-6.1-11.7-12.3-16.7-19.2c-7.3-9.7-12.3-20.9-19.8-30.5c-2.8-3.7-6.2-7.2-10.5-9.1
		c-4.3-1.9-9.2-1.2-13.6-2.7c-5.9-1.8-11.6-4.7-17.9-4.7c-6.2-0.5-12.4,1.9-18.6,0.8c-4.1-0.8-8.3,0.2-11.4,2.9
		c3-3.7,7.4-5.7,11.8-7.1c5.6-1.8,11-4.4,16.9-5c6.7-0.8,13.2,2,19.8,2.6c4.7,0.4,9.4,1.6,13.1,4.5c8.6,6.5,13.9,16.2,19.3,25.3
		c7.8,14.2,18.6,26.3,29.8,37.9c3.1,3.1,6.3,6.2,10.3,8.2c3.8,1.7,8.1,0.3,12,1.8c11.8,4.6,16.6,17.4,25,25.9
		c4.6,4.7,10.8,7.4,16.6,10.3H856.5z"/>
	<path class="st2" d="M802.2,400c-5.8-5.8-10.3-13.1-16.3-18.7c-4.6-4.5-10.9-8.5-17.6-6.8c-4.7,1.3-9.7,0.6-13.9-1.7
		c-11.9-6.3-24.6-12.1-33.9-22.2c-5.6-5.5-11.4-12.5-19.7-13.7c-7.8-1.1-13.5,5.4-20.9,6.3c-5.9,0.8-11.8-0.3-17.6-0.9
		c-6.1-0.8-12.6-1.3-18-4.6c-7.1-4.4-12.9-11.9-21.7-12.7c-8.6-0.5-14.2,7.4-21.9,9.6c-4.3,1.1-8.7,0.9-13.1,0.9
		c-6.7-0.1-13.4,0.3-20-1.1c-6.8-1.4-11.8-6.7-18.4-8.4c-4-1-8.4,0-11.8,2.3c-5.6,3.5-9.4,9.1-13.9,13.8c-7,7.6-17.1,10.9-26.1,15.4
		c-4.7,2.1-9.3,4.6-14.4,5.4c-6.4,1.1-11.8-3.8-18.1-3.4c-5.1-0.2-9.5,3-13.1,6.3c-7.1,7-11.9,16.4-20.8,21.3
		c-6.7,3.6-14,5.8-21.4,7.2c9.8-3.7,20.1-7.4,27.8-14.8c7.4-7.5,12.8-17.2,21.9-23c4.4-3,9.9-3.8,15.1-3.1c6.8,1.1,13.6-1,19.5-4.2
		c7.7-4.2,15.7-8,22.8-13.3c5.9-4.6,10.4-10.7,16-15.6c3.6-2.9,8-5.5,12.8-4.8c7.5,0.8,12.6,7.3,19.8,9c6,1.5,12.2,1.2,18.3,1.9
		c6.6,0.6,13.9,1.2,19.8-2.4c5.6-3.4,10.9-9,18.1-8.5c10.1,1.1,15.5,11,23.6,15.8c6.4,3.9,14,4.3,21.3,4.9c5,0.3,10.2,0.9,15-1
		c4.6-2,7.9-6.3,12.8-7.9c3.4-1.2,7.2-0.3,10.1,1.6c8.4,5.5,13.3,14.8,21.7,20.4c6.7,4.5,14.1,7.9,20.9,12.1
		c4.5,2.5,8.9,5.6,14.1,6.3c3.5,0.1,7-0.9,10.6-0.6c4.3,0.1,8,2.7,10.9,5.7c6.5,6.4,10.7,14.7,16.6,21.6c1.7,1.9,3.6,3.6,5.7,5.2
		H802.2z"/>
	<path class="st2" d="M763.9,400c-0.4-0.1-0.8-0.3-1.2-0.4c-8.2-3.1-16.6-5.9-24.4-10c-9.5-4.7-14.9-14.6-24.2-19.6
		c-3.4-1.8-7.4-2.6-11.2-1.7c-4.7,0.9-8.6,3.9-13.3,5c-5.7,1.6-11.7,0.5-17.5-0.3c-6-1-12.2-1.4-17.9-3.3
		c-9.1-3-15.1-12.8-25.2-13.1c-8.5-0.1-14.1,7.3-21,10.8c-6.3,3-13.4,3-20.2,3.9c-7.3,0.6-15.1,2.3-22.1-0.9c-6-3-11.9-8.1-19.2-6.7
		c-8.6,1.8-13.8,9.5-20,14.9c-7,6.5-16.8,7.9-25.7,10c-7,1.5-14.9,3.6-21.5-0.4c-5.9-3.5-11.8-8.9-19.2-7.7
		c-7.8,1.4-12.8,8-18.7,12.7c-6.2,5.2-14.7,6.2-22.5,6.1c-6.6-0.1-13.9,0.5-19.8-3.2c6.9,2.6,14.4,1.5,21.5,1.1
		c6.4-0.6,13.2-0.8,18.8-4.4c7.8-4.9,13.7-13.6,23.4-15.1c8.5-1.4,15,5.6,23.1,6.3c7.5,0.6,14.7-2,21.8-4c7.4-2.2,14.5-6,19.7-11.9
		c5.5-5.3,11.1-12.1,19.3-12.8c7-0.5,12.4,4.6,18.4,7.2c5.6,2.5,11.9,1.2,17.8,0.9c7.1-0.9,14.5-0.8,21.1-3.8
		c7.2-3.2,11.7-10.5,19.2-13c4.2-1.6,8.9-0.3,12.5,2c6,3.7,10.4,9.6,16.8,12.7c6.6,3.3,14.1,3.7,21.3,4.9c5.1,0.7,10.5,1.9,15.6,0.1
		c4.9-2,8.6-6.2,13.9-7.2c4.5-1,8.9,1.4,12.3,4.2c7.6,6.6,12.5,16.5,22.1,20.7c8.8,4,17.6,8.4,27,11c7.4,2.1,14.1-3.9,21.4-2.3
		c3.9,0.5,7.1,2.9,10.2,5.1c-3.8-4.6-8.4-9.2-14.3-11.1c-5-1.6-9.5,1.7-14.2,2.8c-4.4,0.6-8.4-1.5-12.3-3.1c-9-4.4-18.5-8-26.3-14.6
		c-5.9-5.1-10.7-11.5-17.4-15.7c-3.1-1.9-6.7-3.4-10.4-3c-4.7,0.2-8.7,2.8-13,4.5c-7.2,2.7-15,0.8-22.4-0.2
		c-6.4-1-13.1-1.5-18.8-4.8c-5.6-3.4-10.1-8.4-16.3-10.8c-4-1.6-8.7-1.3-12.5,0.7c-5,2.4-8.7,6.8-13.9,8.9
		c-6.5,2.6-13.7,2.2-20.5,2.9c-7.5,0.6-15.8,1.4-22.5-2.8c-5.4-3.2-11.7-7-18.2-4.7c-9.5,3.4-14.3,13-22,18.8
		c-5.9,4-12.9,6-19.6,8.3c-7.1,2.1-14.6,5.9-22,3.4c-6.2-2.5-12-7.6-19.1-5.9c-9.1,2.2-14.3,10.8-21,16.6c-4.8,4.3-11.2,6.1-17.5,7
		c-5.8,0.8-11.7,1.7-17.6,0.6c8-0.3,15.9-2,23.5-4.1c5.3-1.5,10.4-4.1,14.2-8.2c6-5.8,11.3-12.9,19.5-15.8
		c5.1-1.9,10.5-0.3,15.5,1.3c6.8,2.4,14.1,0.6,20.5-2c7.5-3,15.4-5.8,21.9-10.8c6.2-4.7,10.5-11.3,16.8-15.8
		c3.3-2.4,7.4-4.1,11.5-3.5c7.5,0.7,12.8,7.2,20.1,8.2c6.7,0.7,13.5-0.2,20.3-0.3c5.8-0.3,12-0.7,17-4.1c6.1-3.9,11.2-10.6,19-10.7
		c8.3,0.4,13.9,7.4,19.9,12.2c5.7,4.9,13.2,6.8,20.5,7.7c6.1,0.7,12.1,2.2,18.3,1.6c6-0.9,9.9-6.5,15.8-7.9
		c4.2-1.2,8.5,0.7,11.7,3.4c8,6.4,12.7,16.1,21.8,21.2c8.6,4.9,17.6,9.3,26.5,13.7c3.8,1.9,8.2,2.2,12.3,1c4.6-1.4,10-1.6,14.2,1.1
		c6.4,4,10.3,10.4,14.9,16.2h-3.9c-2-1.5-4-2.8-6.2-3.8c-4.6-1.9-9.5-0.1-13.4,2.5c-0.8,0.6-1.7,1-2.6,1.4H763.9z"/>
	<path class="st2" d="M436.4,400c1.8-0.5,3.5-1.2,5.1-2.2c7-4.3,13.1-11.2,21.7-12c7.6-0.4,13.3,4.9,19.9,7.7
		c5.4,2.2,11.3,1.8,16.9,0.9c7.5-1.3,15.2-2.5,21.8-6.5c8.9-5.2,14.5-15.7,25.3-17.5c10.2-1.4,16.6,9,26.4,9.5
		c6.3,0.3,12.6-0.8,18.8-1.4c5.5-0.5,11.1-1.5,15.9-4.3c5.9-3.3,10-9.1,16.3-11.8c4-2,8.8-1.7,12.7,0.4c6.3,3.2,10.7,9,16.8,12.5
		c7.2,4,15.7,4.3,23.6,5.6c5.4,0.7,11.3,1.8,16.4-0.5c4.5-2.2,8.3-5.9,13.3-7.1c3.6-1,7.4,0.3,10.4,2.2c6.4,4.3,10.3,11.2,16,16.2
		c5,4.5,11.6,6.2,17.7,8.4h-11.2c-9.3-4.7-14.7-15-24.8-18.5c-6.3-2.4-12.7,0.7-18.2,3.6c-6,3.1-12.9,3-19.4,2
		c-6.4-0.9-12.8-1.4-19-2.9c-9.6-2.3-15.6-12-25.6-13.3c-8.4-0.8-14.5,5.9-21.1,9.9c-6.1,3.6-13.4,3.9-20.3,4.6
		c-6.9,0.5-13.9,2.1-20.9,0.6c-6.3-1.7-10.9-6.9-17.3-8.5c-3.9-1.2-8.2-0.2-11.7,1.8c-7.5,4.1-12.4,11.9-20.4,15.2
		c-6.4,2.5-13.2,3.3-20,4.3c-5.7,0.7-11.6,1.7-17.2-0.2c-5.6-2.3-9.8-7.1-15.2-9.7c-3.6-1.9-7.9-2.4-11.8-1
		c-6.9,2.3-11.4,8.3-17.5,11.9H436.4z"/>
	<path class="st2" d="M399.5,400c-2.1-1.1-3.9-2.6-5.5-4.6c2.5,2.4,5.5,3.8,8.6,4.6H399.5z"/>
	<path d="M307.2,229.8c5.5-0.6,12-1.6,16.7,2c-3.4-1.6-7.4-1.6-10.8-0.2c-5.7,2.2-11.3,5-16,8.9c-8,6.8-13.6,15.8-19.3,24.5
		c-4.5,7.1-9.6,13.9-14.3,20.9c2.7-5.7,6.4-10.9,9.7-16.3c3.7-5.8,6.7-11.9,10.2-17.7C289.4,243,295.7,231.9,307.2,229.8z"/>
	<path class="st2" d="M291.9,238.5c3.7-4.7,9-8.9,15.3-8.8c-11.5,2.1-17.8,13.2-23.9,22.1C285.8,247.2,288.7,242.7,291.9,238.5z"/>
	<path d="M709.5,231.7c5.5-0.5,10.8,1.7,16.2,2.6c4.6,1.4,9.4,3.3,12.6,7c-2.8-2.1-6.1-3.8-9.7-4c-5.2-0.2-10.4-1.8-15.6-0.8
		c-5.6,0.9-10,5.1-13.5,9.2c-4.1,4.9-8.4,9.8-11.7,15.4c-4.1,7.5-6.3,15.7-8.2,24c-2.8,12-4.6,24.2-6.5,36.4c-1.7,1.4-3.8,2.5-6,3.1
		c3.3-20.4,5.4-41.2,12.4-60.8c2.9-8.1,7.4-15.6,13.6-21.6C697.6,237.5,702.8,232.5,709.5,231.7z"/>
	<path class="st2" d="M527.5,240.8c9-0.1,14.5,9,18.4,16c-3.9-4.8-8.4-10.6-15.2-10.3c-5.9,0.6-10.2,5.2-14.7,8.5
		c-8.6,6.2-17.3,12.4-24.4,20.3c-5.8,5.8-10.9,12.5-17.9,16.9c-5,3-9.5,6.7-13.2,11.1c-10.1,12.6-15.9,27.9-23.1,42.2
		c-7.4,15.3-18.1,28.8-29.4,41.5c-2.5,2.4-4.7,5.2-7.6,7c-2-0.3-3.8-1.7-5.3-3c4.3-1.7,7.7-4.8,10.9-8
		c11.5-12.4,21.5-26.2,29.3-41.2c8.6-16.2,15.8-33.5,27.6-47.8c4.9-6.2,11.2-10.9,16.8-16.2c5.6-5.4,10.6-11.3,16.1-16.8
		c6.8-6.8,14.9-11.9,23.1-16.9C521.5,242.6,524.3,241,527.5,240.8z"/>
	<path d="M910.5,400c-4.1-4-7.8-8.4-11.6-12.7c-10.1-11.1-14-26.8-26.1-36.2c-2.6-2.3-6-3.3-9.4-3.1c-5.2,0.1-9.2-3.5-13.6-5.8
		c-7.2-4.4-15.7-6.8-21.8-12.8c-5.6-5.2-9.9-12.1-17.2-15.3c-4.4-1.9-9.1-0.1-13.6-0.6c-3.8-0.9-6.9-3.6-9.8-6.1
		c1.1-1.1,2.3-2.1,3.3-3.2c2.3-1.6,4.7-3.1,7.1-4.5c-3,2.8-5.5,6.1-7.6,9.6c5.7,4,12.3-1.7,18.4,0.5c9.4,2.7,13.6,13,22.7,16.2
		c7.5,2.4,14.7,5.5,21.6,9.3c3.4,2.2,7.6,1.7,11.4,2.8c5,1.8,8.6,6.1,11.6,10.3c4.8,6.6,8.5,13.9,12.9,20.9
		c7.1,10.9,15.2,21.2,24.1,30.6H910.5z"/>
	<path d="M904,400c-8.1-8.1-12.3-19.3-20.7-27.2c-3-2.9-7.2-3.8-11.2-3.4c-6.3,0.6-11.6-3.5-16.8-6.4c-7.1-4.6-15.3-8-20.7-14.8
		c-5.8-7-10.6-15.3-18.8-19.8c-3.8-2.1-8.2-1.7-12.3-2.3c-4.3-1.2-7.5-4.5-10.6-7.4c-10.8-11.5-20.8-23.9-28.8-37.5
		c-5.1-8.4-9.7-17.2-16.2-24.6c-3.4-3.9-8.1-7.3-13.5-7.4c-6.2,0.2-12.8-1.2-18.8,1.2c-5.4,2.3-9.3,6.9-13,11.3
		c-4.6,5.8-9.2,11.7-12.2,18.5c-4.3,9.5-6.4,19.8-8.8,29.9c-1.5,2.1-2,5.3-4.1,6.7c3-18,5.8-36.9,16.1-52.3c5-7.1,9.6-15,17-19.9
		c6.7-3.9,14.8-2.8,22.1-2.1c8.6,1.5,13.9,9.3,18.8,15.7c4.8,7.3,8.8,15.2,13.5,22.6c6.8,11.3,15.5,21.5,24.6,31
		c3,3,6.4,6.2,10.6,7.3c4.4,0.5,9.2-0.5,13.3,1.9c7.8,4.2,12.5,12.1,18.4,18.3c5.4,5.7,12.8,8.8,19.4,12.8c3.6,2,7,4.4,10.9,5.8
		c3.6,1.3,7.5,0.5,11,1.9c4,1.5,7.2,4.5,9.9,7.8c6.8,8.3,10.6,18.7,18.1,26.6c2,2,3.9,4,6,5.9H904z"/>
	<path d="M900.8,400c-3.5-4.2-6.9-8.5-11.7-11.2c-3.3-1.9-7.3-1.9-10.8-0.4c-5,2-9.6-1.3-13.9-3.5c-7.6-4.5-15.9-8.4-21.8-15.1
		c-6.1-7.1-10.5-15.6-17.9-21.4c-3.4-2.7-7.6-3.9-11.8-4.1c-6-0.3-10.5-4.8-14.4-8.8c-9.9-10.3-19.2-21.4-26.9-33.5
		c-5.2-8.3-9.6-17.2-15.7-24.9c-3.1-3.9-6.8-7.7-11.6-9.4c-4.6-1.6-9.6-1.2-14.3-1.8c-4.9-0.5-10.1-0.3-14.5,2.2
		c-5.7,3.2-10.4,7.7-15.1,12.2c-5.9,5.4-9.8,12.6-12.4,20c-0.6,2-2.2,3.3-3.4,4.9c1.7-6.7,3.8-13.3,7.1-19.3
		c2.7-5.3,6.9-9.5,10.6-14.1c3.6-4.4,7.2-9,12.1-12c4.1-2.5,9.1-3.2,13.9-2.8c4,0.3,8.2-0.5,12.1,0.6c5.5,1.8,9.5,6.2,13,10.6
		c8.2,10.4,13.6,22.7,21.4,33.3c4.7,6.8,10,13.1,15.5,19.3c4.1,4.5,8.2,9.3,13.5,12.5c3.9,2.5,8.7,1.2,12.9,2.8
		c9.3,3.9,14.3,13.2,20.3,20.7c6.2,8.5,16,12.9,24.6,18.3c3.7,2,7.4,5,11.8,4.3c3.2-0.6,6.6-1.6,9.8-0.2
		c8.7,4.2,12.7,13.4,18.6,20.6H900.8z"/>
	<path d="M852.7,400c-4.7-5.5-8.5-11.8-14.3-16.4c-3.5-3-8.3-4.3-12.8-3.3c-4.6,1-9-1.2-12.4-4.1c-11.4-9.8-21.9-20.6-30.2-33.1
		c-7.2-10.8-13-23-23.4-31.1c-3.5-3-8.2-3.9-12.7-4.2c-7.1-1-13.2-5.2-20.1-6.7c-5-1.4-10.2-1.3-15.3-1.9c-4.8-0.6-9.4-2.8-14.3-2.4
		c-3.7,0-6.7,2.3-9.3,4.6c0-0.3,0.1-0.7,0.2-1c2.8-5.5,6-11.3,11.9-14.2c7.1-3.2,12.7-9.5,20.5-11.1c7.3-1.7,14.5,2,21.8,1.4
		c5.8-0.2,10.6,3.9,14.2,7.9c6.3,7.4,11,15.9,16,24.1c7.7,12.8,17.3,24.3,27.6,35.2c3.2,3.2,6.4,6.7,10.5,8.8c2.8,1.5,6,1.2,9,1.5
		c4.4,0.6,8.2,3.1,11.2,6.2c5.7,5.4,9.4,12.3,14.4,18.2c5.6,7.1,14.2,10.9,22,15.2c4.3,2.1,9.2,4.9,14.1,3.1c3.7-1.4,8-2.9,11.7-0.9
		c2.1,1.1,4,2.6,5.7,4.2h-31.6c-5.8-2.9-12-5.6-16.6-10.3c-8.4-8.5-13.2-21.3-25-25.9c-3.8-1.5-8.2-0.1-12-1.8
		c-4-1.9-7.2-5.1-10.3-8.2c-11.2-11.6-22-23.7-29.8-37.9c-5.4-9.1-10.7-18.8-19.3-25.3c-3.8-2.9-8.5-4.1-13.1-4.5
		c-6.6-0.7-13-3.4-19.8-2.6c-5.9,0.6-11.3,3.2-16.9,5c-4.4,1.4-8.9,3.4-11.8,7.1c3.2-2.7,7.4-3.6,11.4-2.9
		c6.2,1.1,12.4-1.3,18.6-0.8c6.3,0,12,2.9,17.9,4.7c4.4,1.5,9.3,0.8,13.6,2.7c4.3,1.9,7.6,5.4,10.5,9.1c7.4,9.6,12.5,20.8,19.8,30.5
		c5,6.8,10.9,13,16.7,19.2c4.5,4.4,8.8,9.2,14.3,12.3c5.1,2.9,11.4,0.4,16.5,3.3c8.7,4.8,13.2,14.1,19.4,21.4
		c1.6,1.9,3.4,3.5,5.3,4.9H852.7z"/>
	<path class="st2" d="M532.4,255.6c7.7-0.2,12.9,6.5,17.2,12.1c5.5,7.8,11.1,15.5,17.3,22.6c-7.2-6.4-12.5-14.5-19.1-21.5
		c-3.5-3.4-8.1-6.7-13.3-5.9c-6,1-10.2,5.9-14.5,9.8c-7.1,7.1-15.7,12.2-23.1,19c-8.1,6.8-14.7,15.9-25,19.7
		c-8.2,3-14.2,9.9-18.8,17c-6.6,10.1-11.2,21.3-17.2,31.8c-6.6,11.5-15.7,21.3-24.9,30.7c-2.2,1.5-3.8,5-6.9,3.9
		c10.2-9.5,19.1-20.3,26.7-32c11.2-17.4,18.2-37.5,32.4-52.9c5.2-5.9,12.5-9.5,18.3-14.7c6.1-5.1,11.3-11,17.3-16.2
		c6.7-6,14.3-10.9,21.1-16.7C523.6,259.3,527.5,256,532.4,255.6z"/>
	<path class="st2" d="M898.8,400c-1.8-1.6-3.6-3.1-5.7-4.2c-3.8-2.1-8-0.6-11.7,0.9c-4.9,1.8-9.8-1.1-14.1-3.1
		c-7.8-4.3-16.3-8-22-15.2c-5-5.9-8.8-12.9-14.4-18.2c-3-3.1-6.9-5.6-11.2-6.2c-3-0.3-6.3,0-9-1.5c-4.1-2.1-7.2-5.6-10.5-8.8
		c-10.2-10.8-19.9-22.4-27.6-35.2c-5.1-8.2-9.7-16.8-16-24.1c-3.7-4.1-8.4-8.2-14.2-7.9c-7.4,0.6-14.5-3.2-21.8-1.4
		c-7.8,1.6-13.4,7.9-20.5,11.1c-5.8,2.8-9.1,8.7-11.9,14.2c2.6-7.5,6.6-14.6,12.4-20c4.7-4.5,9.4-9,15.1-12.2
		c4.4-2.5,9.6-2.7,14.5-2.2c4.8,0.6,9.7,0.2,14.3,1.8c4.8,1.7,8.5,5.5,11.6,9.4c6.1,7.7,10.5,16.6,15.7,24.9
		c7.7,12.1,16.9,23.2,26.9,33.5c3.9,4,8.4,8.5,14.4,8.8c4.2,0.2,8.5,1.4,11.8,4.1c7.4,5.8,11.8,14.4,17.9,21.4
		c5.9,6.7,14.2,10.6,21.8,15.1c4.2,2.2,8.9,5.5,13.9,3.5c3.4-1.4,7.5-1.5,10.8,0.4c4.8,2.8,8.3,7,11.7,11.2H898.8z"/>
	<path class="st2" d="M907.4,400c-2.1-1.9-4-4-6-5.9c-7.5-7.8-11.3-18.3-18.1-26.6c-2.6-3.3-5.9-6.3-9.9-7.8
		c-3.6-1.3-7.5-0.5-11-1.9c-3.9-1.5-7.3-3.8-10.9-5.8c-6.6-4-14-7.1-19.4-12.8c-5.9-6.3-10.6-14.1-18.4-18.3
		c-4-2.4-8.8-1.4-13.3-1.9c-4.2-1.1-7.6-4.3-10.6-7.3c-9.2-9.5-17.8-19.7-24.6-31c6.4,9.3,13.5,18.2,21.5,26.2
		c1.5-0.7,2.8-1.7,4.2-2.6c-1.1,1.1-2.3,2.1-3.3,3.2c2.9,2.6,5.9,5.3,9.8,6.1c4.5,0.5,9.2-1.3,13.6,0.6c7.2,3.1,11.5,10.1,17.2,15.3
		c6.1,6,14.6,8.4,21.8,12.8c4.4,2.2,8.4,5.9,13.6,5.8c3.4-0.2,6.8,0.8,9.4,3.1c12.2,9.3,16.1,25.1,26.1,36.2
		c3.8,4.2,7.6,8.6,11.6,12.7H907.4z"/>
	<path class="st2" d="M913,400c-8.9-9.4-17-19.7-24.1-30.6c-4.3-6.9-8.1-14.2-12.9-20.9c-3.1-4.2-6.6-8.5-11.6-10.3
		c-3.7-1.2-7.9-0.6-11.4-2.8c-6.9-3.8-14.1-6.9-21.6-9.3c-9.1-3.2-13.3-13.5-22.7-16.2c-6.1-2.2-12.7,3.5-18.4-0.5
		c2.1-3.5,4.7-6.8,7.6-9.6c2-1.3,4.1-2.7,6.2-3.9c-4.2,4.3-7.5,9.4-9.6,15c2.3-0.5,5.5-1.2,6.2-3.8c2.2-5.6,5.3-10.8,9.5-15.2
		c1.7-1.4,3.4-2.6,5.3-3.7c-5.1,5.2-8.2,12-10.7,18.8c-0.8,1.9,2.3,1,3.4,1.4c2.7-8.2,5.5-17.3,12.5-22.8c1.4-0.7,2.8-1.3,4.2-1.8
		c-7.8,6-10.7,15.9-13.4,24.9c-0.7,1.3,1.4,1.5,2.2,2.1c2.9-9.9,6.3-21.8,15.4-28.3c1.3-0.3,2.7-0.4,4.1-0.3c-4,0.9-6,4.8-8.2,7.8
		c-4.6,6.6-7.2,14.4-9.2,22.1c4.2,3.3,8.6,7.1,14.2,7.4c8,0.8,15.3,4.3,22.8,6.8c5.8,1.3,12.1,2.9,15.9,7.9
		c7.7,9.7,12.9,21.1,19.8,31.4c6.4,9.7,13.4,18.9,20.5,28c1.8,2.1,3.5,4.4,5.5,6.3H913z"/>
	<path d="M914.6,400c-2-2-3.7-4.2-5.5-6.3c-7.1-9.1-14.1-18.4-20.5-28c-6.9-10.3-12.1-21.6-19.8-31.4c-3.8-5-10.1-6.7-15.9-7.9
		c-7.5-2.5-14.8-6.1-22.8-6.8c-5.6-0.4-10-4.1-14.2-7.4c2-7.7,4.5-15.5,9.2-22.1c2.2-3,4.2-6.9,8.2-7.8c1.3,0.2,2.8,0.3,3.8,1.2
		c-3.7-0.8-6.2,2.6-8.1,5.1c-5.7,7-9.3,15.4-11.1,24.2c5.4,2.4,11.4,1,17.1,1.2c4.1,0.3,8,1.5,11.9,2.5c4.7,1.2,10,1.5,14,4.7
		c7.6,5.9,11.7,14.9,16.5,23.1c7.4,14.1,17,26.8,25.9,40c3.2,4.2,6,8.8,9.8,12.6c1.8,1.8,4.2,2.5,6.5,3.4H914.6z"/>
	<path d="M825,283.6c1.3-0.7,2.7-1,4.2-1.3c-9.1,6.5-12.4,18.4-15.4,28.3c-0.8-0.6-2.9-0.7-2.2-2.1
		C814.4,299.6,817.2,289.6,825,283.6z"/>
	<path class="st2" d="M919.5,400c-2.3-0.9-4.7-1.6-6.5-3.4c-3.8-3.7-6.6-8.3-9.8-12.6c-8.9-13.2-18.6-25.9-25.9-40
		c-4.7-8.2-8.9-17.1-16.5-23.1c-4-3.1-9.3-3.4-14-4.7c-3.9-1.1-7.8-2.3-11.9-2.5c-5.7-0.2-11.7,1.2-17.1-1.2
		c1.8-8.7,5.5-17.2,11.1-24.2c1.9-2.5,4.5-5.9,8.1-5.1c1.8,0.7,3.5,1.5,5,2.7c-2.2-0.9-5-1.4-7.1,0.1c-8.7,6.3-13.3,16.5-16.1,26.6
		c1.2,0.1,1.1-1.6,1.6-2.4c3.4-8.5,7.9-17.8,16.8-21.6c3.5-1.5,7.5-0.2,10.3,2.1c2,2.2,4,4.5,5.6,7c-3.2-3.9-7.8-7.1-13.1-5.9
		c-9.6,1.9-15.7,10.9-19.4,19.3c3.6-4.9,7.4-10.1,13.3-12.5c4.3-1.5,8.9-3,13.4-2c6.4,2.1,9.7,8.4,13.4,13.4
		c9.7,16.9,19.5,33.8,29.3,50.6c-4.2-6.2-8-12.8-12-19.1c-7.2-11.3-11.8-24.3-21.1-34.1c-2.8-2.9-6.3-6-10.6-5.6
		c-3.5,0.6-7.1,0.7-10.7,0.9c-6.2,0.9-11.2,5.2-15.3,9.6c4.5-1.4,8.7-3.9,13.5-4.3c5.1-0.8,10,1.3,15,1.1c5.2-0.5,9.1,3.5,12.4,7
		c8.4,9,12.6,20.9,19.1,31.2c6.4,10.1,13,20.1,19.5,30.1c3.7,5.3,6.7,11.3,11.8,15.5c3.7,1.9,7.3,4,10.4,6.9H919.5z"/>
	<path d="M835,286.1c2.1-1.5,4.8-1,7.1-0.1c2,1.3,4,2.9,5.5,4.8c-2.8-2.4-6.7-3.7-10.3-2.1c-8.9,3.8-13.4,13.2-16.8,21.6
		c-0.5,0.8-0.4,2.5-1.6,2.4C821.7,302.6,826.3,292.4,835,286.1z"/>
	<path d="M815.6,288.1c1.6-1.1,3.4-2,5.2-2.7c-7,5.6-9.8,14.6-12.5,22.8c-1.1-0.4-4.2,0.5-3.4-1.4
		C807.4,300.1,810.5,293.4,815.6,288.1z"/>
	<path d="M804.2,295.9c2-1.4,4-2.7,6.1-4c-4.2,4.3-7.3,9.6-9.5,15.2c-0.6,2.7-3.8,3.4-6.2,3.8C796.7,305.3,800,300.2,804.2,295.9z"
		/>
	<path d="M820.8,311.2c3.7-8.4,9.8-17.4,19.4-19.3c5.3-1.1,9.9,2,13.1,5.9c2.7,4,5.5,8,7.7,12.3c-3.7-5.1-7-11.4-13.4-13.4
		c-4.5-1-9.2,0.4-13.4,2C828.2,301.1,824.4,306.3,820.8,311.2z"/>
	<path d="M849.3,400c-3.1-2.7-6.3-5.3-10.4-6.2c-5.2-1-10.5,2.4-15.6,0.4c-6.4-2.6-11.4-7.4-16.6-11.8c-9.2-7.7-17.1-16.8-23.3-27
		c-5.8-8.5-10.9-18.1-19.9-23.7c-4.7-3.2-10.8-1-15.7-3.4c-5.2-2.2-9.8-5.5-14.9-7.8c-7.5-3.9-16.2-5.1-23-10.3
		c-4.9-3.4-10-7.9-16.5-7.3c-4.8,0.6-7.9,4.6-11.1,7.7c3.6-5,7.9-10.8,14.5-11.7c4.8-0.5,8.8,2.6,12.8,4.6c5.2,3,11.2,4,16.8,5.8
		c9.1,2.7,16.9,9.1,26.6,10.2c5.1,0.7,10,2.9,13.6,6.6c10.2,9.7,14.9,23.5,23.9,34.1c6.2,7.4,13.3,13.9,20.5,20.3
		c3.2,2.6,6.4,5.4,10.3,6.9c4.9,1.8,10-1.7,14.8,0.5c6.2,2.3,10.7,7.3,15,12.2H849.3z"/>
	<path d="M922,400c-3-2.9-6.7-5-10.4-6.9c-5.1-4.2-8.1-10.2-11.8-15.5c-6.5-10.1-13.1-20-19.5-30.1c-6.4-10.4-10.6-22.2-19.1-31.2
		c-3.3-3.5-7.2-7.4-12.4-7c-5.1,0.3-10-1.9-15-1.1c-4.8,0.5-9,3-13.5,4.3c4.1-4.4,9.2-8.7,15.3-9.6c3.6-0.1,7.2-0.3,10.7-0.9
		c4.3-0.4,7.8,2.7,10.6,5.6c9.4,9.8,14,22.8,21.1,34.1c4,6.4,7.8,12.9,12,19.1c2.9,4.4,5.5,9,8.4,13.5c3.4,5.9,7.2,11.9,12.7,16.1
		c2.6,1.8,5,3.9,7.5,5.8c1.2,1.2,2.4,2.4,3.5,3.7H922z"/>
	<path d="M84.2,400c4.7-6.4,8.6-13.4,12.7-20.3c9.5-16.5,20-32.4,31.1-47.8c3.2-3.7,6.4-9.4,12-9.2c7.1,1.6,11.7,8,17.3,12.2
		c-0.6-0.9-1.2-1.9-1.5-3c-1.5-3.8-3.1-7.6-5.1-11.2c-1.7-2.9-4.2-5.9-7.8-6.1c-2.9,0-5.3,1.9-7.5,3.6c1.2-1.9,3.3-3.2,5.1-4.3
		c3.9-1,8.2,0.8,10.4,4.1c3.1,4.7,4.6,10.3,6.4,15.6c0.3,1.3,0.5,2.9,2,3.5c-1.5-5.8-3-11.7-5.6-17.1c-1.8-4-5.8-7.4-10.4-7.1
		c1.3-0.4,2.6-0.4,3.9-0.4c4.1,1.2,6.9,4.7,8.5,8.5c2.5,5.8,3.9,12,5.5,18.1c-3.1-2.4-6.5-4.5-10.1-6c-3.3-1.3-5.9-3.8-9.2-5.2
		c-3-1.1-6.2,0.1-8.6,2c-5.9,4.3-9.5,10.7-13.3,16.8c-5.6,9.5-12.3,18.4-18.1,27.8c-5.4,8.4-10.3,17.3-16,25.5H84.2z"/>
	<path class="st2" d="M89.9,400c0.5-0.7,1-1.3,1.4-2c8.1-11.9,17.1-23.3,23.8-36.1c4.1-7.1,8.5-14.5,15.5-19.1c2.6-1.9,6-2.5,9-1.5
		c4.9,1.6,10,0,14.9,0.5c5,0.4,9.6,2.6,14.5,3.6c-0.7-1-2.4-1-2.5-2.4c-1.7-6.2-3.4-12.5-5.7-18.5c-1.6-4.1-3.5-8.2-6.9-11.2
		c1,0.2,2,0.5,3,0.9c7.1,8.5,9.9,19.7,13,30.1c-0.1,2.2,2.5,1.5,3.9,1.2c-2.9-10.6-7-21.1-13.7-29.9c1.3,0.7,2.5,1.7,3.6,2.6
		c6.5,7.7,10.8,16.9,13.9,26.4c-4.3,1.8-8.8,3.3-13.5,2.7c-6.7-0.7-13.5-0.3-20,1.3c-4.9,1.2-10.1,0.3-14.9,2.1
		c-3.2,1.3-5.6,4-7.8,6.6c-4.8,6.3-8.4,13.4-12.5,20.1c-4.4,7.4-9.6,14.3-14.9,21c-0.4,0.5-0.8,1-1.2,1.5H89.9z"/>
	<path class="st2" d="M85.8,400c5.7-8.2,10.6-17.1,16-25.5c5.8-9.4,12.5-18.3,18.1-27.8c3.8-6.1,7.4-12.5,13.3-16.8
		c2.4-1.8,5.7-3.1,8.6-2c3.3,1.4,5.9,3.9,9.2,5.2c3.6,1.5,7,3.6,10.1,6c-1.6-6.1-3-12.3-5.5-18.1c-1.6-3.8-4.4-7.4-8.5-8.5
		c1,0,2,0.1,3,0.2c4.3,1.7,6.3,6.3,8,10.3c2.6,6.1,3.5,12.9,5.9,19c-4.6-2.7-9.6-4.8-14.9-5.3c-4.6-0.3-8.4-4.8-13.2-3.1
		c-10.6,4.9-15.9,15.8-21.4,25.4c-4.3,7.4-9.6,14.2-14.2,21.5c-4.4,6.4-8.2,13.3-13,19.4H85.8z"/>
	<path d="M87.4,400c4.8-6.1,8.6-13,13-19.4c4.6-7.2,9.9-14,14.2-21.5c5.5-9.6,10.8-20.5,21.4-25.4c4.8-1.7,8.6,2.8,13.2,3.1
		c5.4,0.4,10.3,2.6,14.9,5.3c-2.5-6.1-3.3-12.9-5.9-19c-1.7-4-3.7-8.6-8-10.3c1.2,0.1,2.5,0.3,3.7,0.6c3.4,2.9,5.3,7.1,6.9,11.2
		c2.3,6,4.1,12.3,5.7,18.5c0.1,1.4,1.8,1.5,2.5,2.4c-4.9-1-9.5-3.2-14.5-3.6c-5-0.5-10.1,1.1-14.9-0.5c-3-1-6.4-0.3-9,1.5
		c-7,4.6-11.4,12-15.5,19.1c-6.7,12.8-15.7,24.2-23.8,36.1c-0.5,0.7-0.9,1.3-1.4,2H87.4z"/>
	<path class="st2" d="M140.5,313.9c0.9-0.5,1.8-0.8,2.7-1.1c4.6-0.3,8.6,3.2,10.4,7.1c2.6,5.4,4.1,11.3,5.6,17.1
		c-1.5-0.6-1.6-2.2-2-3.5c-1.8-5.3-3.3-10.8-6.4-15.6C148.7,314.7,144.4,312.9,140.5,313.9z"/>
	<path d="M156.9,314.2c1.2,0.3,2.3,0.8,3.3,1.5c6.7,8.8,10.7,19.3,13.7,29.9c-1.4,0.3-4,1-3.9-1.2
		C166.8,333.9,164,322.7,156.9,314.2z"/>
	<path class="st2" d="M135.4,318.2c2.2-1.6,4.6-3.6,7.5-3.6c3.6,0.2,6.1,3.2,7.8,6.1c2.1,3.6,3.6,7.4,5.1,11.2
		c-3-4.6-5.5-9.8-9.6-13.6c-1.6-1.4-3.6-2.5-5.8-1.9c-3.3,1-5.5,3.7-7.8,6c-8,9.1-14.7,19.3-21.4,29.3
		C118,339.7,126.4,328.7,135.4,318.2z"/>
	<path d="M140.5,316.4c2.2-0.5,4.3,0.5,5.8,1.9c4.1,3.9,6.5,9,9.6,13.6c-0.1,0.1-0.2,0.3-0.2,0.4c-2.8-3.9-6-7.6-9.6-10.8
		c-2-1.6-4.3-3.3-7-2.6c-2.9,1-4.9,3.4-6.9,5.7c-14.4,16.9-25.3,36.2-36.4,55.3c4.9-9.5,10.1-19,15.6-28.2
		c6.7-10,13.4-20.2,21.4-29.3C135,320.1,137.2,317.4,140.5,316.4z"/>
	<path class="st2" d="M83,400c4.4-5.3,7.7-11.6,11.1-17.4c0.7-0.8,1.1-1.7,1.5-2.6c11.1-19.1,22.1-38.4,36.4-55.3
		c1.9-2.2,4-4.6,6.9-5.7c2.7-0.7,5,1,7,2.6c3.7,3.1,6.8,6.8,9.6,10.8c0.1-0.1,0.2-0.3,0.2-0.4c0.3,1.1,0.9,2,1.5,3
		c-5.6-4.2-10.2-10.6-17.3-12.2c-5.6-0.2-8.8,5.4-12,9.2c-11.1,15.4-21.6,31.3-31.1,47.8c-4.1,6.8-8,13.8-12.7,20.3H83z"/>
	<path class="st2" d="M169.4,322.9c2.2,1.7,4.3,3.4,6.4,5.2c4.2,4.7,7.9,9.8,11.4,15c2.1,1.6,4.3,3.2,5.8,5.4
		c-3.1-2.8-6.3-6.8-11.1-5.4C178.4,336,174.7,328.9,169.4,322.9z"/>
	<path d="M191,337.7c3.8,1.5,7.5,3.4,11.4,4.4c4.8,2.3,10.1-1.5,15,0c3.8,1.1,6.4,4.6,8.6,7.7c-1.5,1.2-2.8,2.5-4.5,3.5
		c-2-1.8-3.5-4.2-6-5.4c-4.1-2.1-9-0.7-13.1-2.6C198.2,343.3,194.9,340.1,191,337.7z"/>
	<path d="M217.9,339.5c5-1.2,9.1,2.5,11.9,6.1c-0.4,0.5-0.8,1-1.2,1.5C225.8,343.7,222.8,339.2,217.9,339.5z"/>
	<path d="M280.8,400c5.3-4.3,9.7-9.8,16.2-12.2c2.8-1.2,5.9-0.8,8.7,0.2c-1.1-1-2.9-1-4.3-1.4c7.3-0.6,11.8,6.2,17.4,9.6
		c-2.8-0.9-4.9-3.2-7.4-4.6c3.6,3.9,8.6,7.2,14.2,6.9c9.8-0.4,19.8,0.7,29.4-1.3c-3.5,2-8.1,1.9-12.1,2.3c-8.6,0-17.8,1.7-25.9-2.1
		c-6.3-3.2-12.3-8.7-20-7.5c-6.5,1.1-10.8,5.9-15.3,10.2H280.8z"/>
	<path d="M278.1,400c1.5-0.8,2.8-1.8,4.2-2.7c-0.8,1-1.8,1.9-2.8,2.7H278.1z"/>
	<path d="M134.7,400c5.2-2.9,10.5-5.7,15.9-8.2c6.2-2.9,9.8-9,14.6-13.5c3.4-3.2,8.3-5.5,13-3.9c5.7,2,8.6,8.9,15,9.6
		c7.6,0.7,15.1,1.8,22.7,2.4c7,0.1,11.6-6.3,18.2-7.4c2.4-0.5,4.8,0.2,6.9,1.4c6.6,4.1,9.5,12.4,16.6,15.8c3.3,1.6,6.7,2.7,10.2,3.7
		h-15.8c-5-5.1-8.2-12.4-15.2-15.2c-5.7-2-10.7,1.8-15.2,4.6c-5.4,3.6-12,1.5-18,1.1c-5.8-0.8-12.2,0.1-17.5-2.9
		c-4.1-2.3-7.3-6.6-12.3-7.2c-4.2-0.6-7.8,2.2-10.5,5c-5,4.7-8.6,11-14.8,14.2c-0.3,0.2-0.6,0.3-1,0.5H134.7z"/>
	<path class="st2" d="M898.5,374.3c2.3,3,4.3,6.5,7.1,9.1c3.3,5.1,9.1,8.2,13,12.8c-2.6-1.9-4.9-4-7.5-5.8
		C905.8,386.2,901.9,380.2,898.5,374.3z"/>
	<path d="M81.8,400c0.7-0.9,1.3-1.8,2-2.7c3-3.4,6-7.3,7.9-11.4c0.7-1.2,1.6-2.3,2.5-3.4c-3.5,5.9-6.7,12.2-11.1,17.4H81.8z"/>
	<path d="M153.9,400c5.1-5.3,9.4-12.2,17-13.5c6.9-0.1,10.6,7.6,17.2,8.2c8,0.5,16,0.3,24,1.2c8.5,0.8,13.9-9.5,22.6-7.4
		c5.9,1.7,9,6.9,12.5,11.6h-2.9c-2.2-2.8-4.3-5.6-7.4-7.4c-2.5-1.7-5.7-2.2-8.6-1.3c-4.8,1.5-8.3,5.3-12.8,7.1
		c-4.4,1.5-9.2,0.6-13.8,0.8c-5.5-0.3-11,0.6-16.5,0.4c-6.1-0.9-9.7-8-16.3-7.2c-5,0.8-8.7,4.1-12.2,7.5H153.9z"/>
	<path d="M219.5,400c3.2-2.2,6.7-3.8,10.6-3.2c2.5,0.5,4.6,1.8,6.6,3.2h-2.6c-1.4-0.7-2.9-1.3-4.6-1.5c-2.9-0.5-5.6,0.3-8.1,1.5
		H219.5z"/>
	<path class="st2" d="M356.4,400c0.3-0.2,0.7-0.4,1-0.5c4.8-2.7,8.9-6.8,14.3-8.5c3.8-1.3,8.2-1.2,11.8,0.8
		c-2.4-0.5-4.9-1.3-7.3-0.4c-5.6,1.5-9.8,5.3-14.4,8.7H356.4z"/>
	<path class="st2" d="M286.2,400c3.6-2.5,7.3-4.6,11.9-4.9c5.4-0.5,9.7,2.3,14.2,4.9h-6.9c-2.9-1.7-5.9-3-9.5-2.8
		c-2.6,0.5-4.9,1.5-7.1,2.8H286.2z"/>
	<path d="M713.8,400c1.3-0.4,2.7-0.7,4.1-0.8c2-0.3,4.4,0,6.4,0.8H713.8z"/>
	<path d="M620.5,400c5.1-3.2,9.9-7.1,16.1-7.5c6.7-0.3,11.8,3.8,17.1,7.5h-0.8c-4.7-3.7-9.7-7.2-16-6.7c-5.1,0.8-9.2,3.7-13.3,6.7
		H620.5z"/>
	<path d="M539.4,400c3.4-2.4,7-4.4,11.3-4.9c5.4-0.6,10,2.1,14.3,4.9h-1.4c-3.8-2.4-7.9-4.3-12.6-3.9c-3.8,0.4-7,2-10.1,3.9H539.4z"
		/>
	<path d="M216.5,400c0.2-0.1,0.3-0.2,0.5-0.3c4.8-3.2,9.7-8.1,16-6.9c4,1.2,6.9,4.1,9.5,7.2h-1.1c-2.5-2.8-5.3-5.4-9.1-6.1
		c-3-0.6-6.4,0.4-8.8,2.2c0.8-0.3,1.5-0.7,2.4-0.9c-0.7,0.9-3,1.1-2.5,2c-0.9-0.4-1.9,1.5-1.9,0.1c-1.2,0.9-2.3,1.8-3.5,2.7H216.5z"
		/>
	<path d="M238.5,400c-2-1.5-4.1-2.8-6.6-3.6c-2.6-1-5.4-0.5-8,0.3c4.4-2.9,10.3-1.5,14.2,1.7c1.4,1.2,1.4,1.2,0,0
		c-2.5-2.8-6.3-4.3-10.1-3.9c5-1.2,9,2.1,12.6,5.5H238.5z"/>
	<path d="M161.2,400c2.3-1.4,4.9-2.4,7.6-2.2c2.1,0.2,4,1.1,5.8,2.2H161.2z"/>
	<path class="st2" d="M393.9,400c-1.7-1.6-3.3-3.3-4.9-4.8c2.2,1.4,4.2,3.2,6.4,4.8H393.9z"/>
	<path d="M367.8,400c2.8-1.8,5.7-3.4,9-4.1c4.7-0.7,8.6,1.4,12.1,4.1H367.8z"/>
	<path class="st2" d="M238,398.4"/>
</g>
<g>
	<g>
		<path class="st3" d="M847.5,220.7c-0.3-0.3-0.8-0.3-1.1,0c-0.3,0.3-0.3,0.8,0,1.1c0.3,0.3,0.8,0.3,1.1,0
			C847.8,221.5,847.8,221,847.5,220.7z M846.6,221.6c-0.2-0.2-0.2-0.5,0-0.7c0.2-0.2,0.5-0.2,0.7,0c0.2,0.2,0.2,0.5,0,0.7
			C847.1,221.7,846.8,221.7,846.6,221.6z"/>
		<path class="st3" d="M851,217.1c-0.3-0.3-0.8-0.3-1.1,0c-0.3,0.3-0.3,0.8,0,1.1c0.3,0.3,0.8,0.3,1.1,0
			C851.3,217.9,851.3,217.4,851,217.1z M850.1,218c-0.2-0.2-0.2-0.5,0-0.7c0.2-0.2,0.5-0.2,0.7,0c0.2,0.2,0.2,0.5,0,0.7
			C850.6,218.2,850.3,218.2,850.1,218z"/>
		<path class="st3" d="M854.6,213.5c-0.3-0.3-0.8-0.3-1.1,0c-0.3,0.3-0.3,0.8,0,1.1c0.3,0.3,0.8,0.3,1.1,0
			C854.9,214.3,854.9,213.8,854.6,213.5z M853.7,214.4c-0.2-0.2-0.2-0.5,0-0.7c0.2-0.2,0.5-0.2,0.7,0c0.2,0.2,0.2,0.5,0,0.7
			C854.2,214.6,853.9,214.6,853.7,214.4z"/>
		<path class="st3" d="M858.1,210c-0.3-0.3-0.8-0.3-1.1,0c-0.3,0.3-0.3,0.8,0,1.1c0.3,0.3,0.8,0.3,1.1,0
			C858.5,210.8,858.5,210.3,858.1,210z M857.3,210.9c-0.2-0.2-0.2-0.5,0-0.7c0.2-0.2,0.5-0.2,0.7,0c0.2,0.2,0.2,0.5,0,0.7
			C857.7,211.1,857.4,211.1,857.3,210.9z"/>
		<path class="st3" d="M861.7,206.4c-0.3-0.3-0.8-0.3-1.1,0c-0.3,0.3-0.3,0.8,0,1.1c0.3,0.3,0.8,0.3,1.1,0
			C862,207.2,862,206.7,861.7,206.4z M860.8,207.3c-0.2-0.2-0.2-0.5,0-0.7c0.2-0.2,0.5-0.2,0.7,0c0.2,0.2,0.2,0.5,0,0.7
			C861.3,207.5,861,207.5,860.8,207.3z"/>
		<path class="st3" d="M865.3,202.9c-0.3-0.3-0.8-0.3-1.1,0c-0.3,0.3-0.3,0.8,0,1.1c0.3,0.3,0.8,0.3,1.1,0
			C865.6,203.7,865.6,203.2,865.3,202.9z M864.4,203.8c-0.2-0.2-0.2-0.5,0-0.7c0.2-0.2,0.5-0.2,0.7,0c0.2,0.2,0.2,0.5,0,0.7
			C864.9,203.9,864.6,203.9,864.4,203.8z"/>
		<path class="st3" d="M868.8,199.3c-0.3-0.3-0.8-0.3-1.1,0c-0.3,0.3-0.3,0.8,0,1.1c0.3,0.3,0.8,0.3,1.1,0
			C869.1,200.1,869.1,199.6,868.8,199.3z M867.9,200.2c-0.2-0.2-0.2-0.5,0-0.7c0.2-0.2,0.5-0.2,0.7,0c0.2,0.2,0.2,0.5,0,0.7
			C868.4,200.4,868.1,200.4,867.9,200.2z"/>
		<path class="st3" d="M872.4,195.8c-0.3-0.3-0.8-0.3-1.1,0c-0.3,0.3-0.3,0.8,0,1.1c0.3,0.3,0.8,0.3,1.1,0
			C872.7,196.6,872.7,196.1,872.4,195.8z M871.5,196.6c-0.2-0.2-0.2-0.5,0-0.7c0.2-0.2,0.5-0.2,0.7,0c0.2,0.2,0.2,0.5,0,0.7
			C872,196.8,871.7,196.8,871.5,196.6z"/>
		<path class="st3" d="M875.9,192.2c-0.3-0.3-0.8-0.3-1.1,0c-0.3,0.3-0.3,0.8,0,1.1c0.3,0.3,0.8,0.3,1.1,0
			C876.2,193,876.2,192.5,875.9,192.2z M875,193.1c-0.2-0.2-0.2-0.5,0-0.7c0.2-0.2,0.5-0.2,0.7,0c0.2,0.2,0.2,0.5,0,0.7
			C875.5,193.3,875.2,193.3,875,193.1z"/>
		<path class="st3" d="M879.5,188.6c-0.3-0.3-0.8-0.3-1.1,0c-0.3,0.3-0.3,0.8,0,1.1c0.3,0.3,0.8,0.3,1.1,0
			C879.8,189.4,879.8,188.9,879.5,188.6z M878.6,189.5c-0.2-0.2-0.2-0.5,0-0.7c0.2-0.2,0.5-0.2,0.7,0c0.2,0.2,0.2,0.5,0,0.7
			C879.1,189.7,878.8,189.7,878.6,189.5z"/>
		<path class="st3" d="M883.1,185.1c-0.3-0.3-0.8-0.3-1.1,0c-0.3,0.3-0.3,0.8,0,1.1c0.3,0.3,0.8,0.3,1.1,0
			C883.4,185.9,883.4,185.4,883.1,185.1z M882.2,186c-0.2-0.2-0.2-0.5,0-0.7c0.2-0.2,0.5-0.2,0.7,0c0.2,0.2,0.2,0.5,0,0.7
			C882.7,186.2,882.3,186.2,882.2,186z"/>
		<path class="st3" d="M886.6,181.5c-0.3-0.3-0.8-0.3-1.1,0c-0.3,0.3-0.3,0.8,0,1.1c0.3,0.3,0.8,0.3,1.1,0
			C886.9,182.3,886.9,181.8,886.6,181.5z M885.7,182.4c-0.2-0.2-0.2-0.5,0-0.7c0.2-0.2,0.5-0.2,0.7,0c0.2,0.2,0.2,0.5,0,0.7
			C886.2,182.6,885.9,182.6,885.7,182.4z"/>
		<path class="st3" d="M854.3,227.5c-0.3-0.3-0.8-0.3-1.1,0c-0.3,0.3-0.3,0.8,0,1.1c0.3,0.3,0.8,0.3,1.1,0
			C854.6,228.3,854.6,227.8,854.3,227.5z M853.5,228.4c-0.2-0.2-0.2-0.5,0-0.7c0.2-0.2,0.5-0.2,0.7,0c0.2,0.2,0.2,0.5,0,0.7
			C853.9,228.6,853.6,228.6,853.5,228.4z"/>
		<path class="st3" d="M857.9,224c-0.3-0.3-0.8-0.3-1.1,0c-0.3,0.3-0.3,0.8,0,1.1c0.3,0.3,0.8,0.3,1.1,0
			C858.2,224.8,858.2,224.3,857.9,224z M857,224.9c-0.2-0.2-0.2-0.5,0-0.7c0.2-0.2,0.5-0.2,0.7,0c0.2,0.2,0.2,0.5,0,0.7
			C857.5,225.1,857.2,225.1,857,224.9z"/>
		<path class="st3" d="M861.5,220.4c-0.3-0.3-0.8-0.3-1.1,0c-0.3,0.3-0.3,0.8,0,1.1c0.3,0.3,0.8,0.3,1.1,0
			C861.8,221.2,861.8,220.7,861.5,220.4z M860.6,221.3c-0.2-0.2-0.2-0.5,0-0.7c0.2-0.2,0.5-0.2,0.7,0c0.2,0.2,0.2,0.5,0,0.7
			C861.1,221.5,860.7,221.5,860.6,221.3z"/>
		<path class="st3" d="M865,216.9c-0.3-0.3-0.8-0.3-1.1,0c-0.3,0.3-0.3,0.8,0,1.1c0.3,0.3,0.8,0.3,1.1,0
			C865.3,217.7,865.3,217.2,865,216.9z M864.1,217.8c-0.2-0.2-0.2-0.5,0-0.7c0.2-0.2,0.5-0.2,0.7,0c0.2,0.2,0.2,0.5,0,0.7
			C864.6,217.9,864.3,217.9,864.1,217.8z"/>
		<path class="st3" d="M868.6,213.3c-0.3-0.3-0.8-0.3-1.1,0c-0.3,0.3-0.3,0.8,0,1.1c0.3,0.3,0.8,0.3,1.1,0
			C868.9,214.1,868.9,213.6,868.6,213.3z M867.7,214.2c-0.2-0.2-0.2-0.5,0-0.7c0.2-0.2,0.5-0.2,0.7,0c0.2,0.2,0.2,0.5,0,0.7
			C868.2,214.4,867.9,214.4,867.7,214.2z"/>
		<path class="st3" d="M872.1,209.7c-0.3-0.3-0.8-0.3-1.1,0c-0.3,0.3-0.3,0.8,0,1.1c0.3,0.3,0.8,0.3,1.1,0
			C872.4,210.5,872.4,210,872.1,209.7z M871.2,210.6c-0.2-0.2-0.2-0.5,0-0.7c0.2-0.2,0.5-0.2,0.7,0c0.2,0.2,0.2,0.5,0,0.7
			C871.7,210.8,871.4,210.8,871.2,210.6z"/>
		<path class="st3" d="M875.7,206.2c-0.3-0.3-0.8-0.3-1.1,0c-0.3,0.3-0.3,0.8,0,1.1c0.3,0.3,0.8,0.3,1.1,0
			C876,207,876,206.5,875.7,206.2z M874.8,207.1c-0.2-0.2-0.2-0.5,0-0.7c0.2-0.2,0.5-0.2,0.7,0c0.2,0.2,0.2,0.5,0,0.7
			C875.3,207.3,875,207.3,874.8,207.1z"/>
		<path class="st3" d="M879.3,202.6c-0.3-0.3-0.8-0.3-1.1,0c-0.3,0.3-0.3,0.8,0,1.1c0.3,0.3,0.8,0.3,1.1,0
			C879.6,203.4,879.6,202.9,879.3,202.6z M878.4,203.5c-0.2-0.2-0.2-0.5,0-0.7c0.2-0.2,0.5-0.2,0.7,0c0.2,0.2,0.2,0.5,0,0.7
			C878.8,203.7,878.5,203.7,878.4,203.5z"/>
		<path class="st3" d="M882.8,199.1c-0.3-0.3-0.8-0.3-1.1,0c-0.3,0.3-0.3,0.8,0,1.1c0.3,0.3,0.8,0.3,1.1,0
			C883.1,199.9,883.1,199.4,882.8,199.1z M881.9,200c-0.2-0.2-0.2-0.5,0-0.7c0.2-0.2,0.5-0.2,0.7,0c0.2,0.2,0.2,0.5,0,0.7
			C882.4,200.1,882.1,200.1,881.9,200z"/>
		<path class="st3" d="M886.4,195.5c-0.3-0.3-0.8-0.3-1.1,0c-0.3,0.3-0.3,0.8,0,1.1c0.3,0.3,0.8,0.3,1.1,0
			C886.7,196.3,886.7,195.8,886.4,195.5z M885.5,196.4c-0.2-0.2-0.2-0.5,0-0.7c0.2-0.2,0.5-0.2,0.7,0c0.2,0.2,0.2,0.5,0,0.7
			C886,196.6,885.7,196.6,885.5,196.4z"/>
		<path class="st3" d="M861.2,234.4c-0.3-0.3-0.8-0.3-1.1,0c-0.3,0.3-0.3,0.8,0,1.1c0.3,0.3,0.8,0.3,1.1,0
			C861.5,235.2,861.5,234.7,861.2,234.4z M860.3,235.3c-0.2-0.2-0.2-0.5,0-0.7c0.2-0.2,0.5-0.2,0.7,0c0.2,0.2,0.2,0.5,0,0.7
			C860.8,235.5,860.5,235.5,860.3,235.3z"/>
		<path class="st3" d="M864.8,230.8c-0.3-0.3-0.8-0.3-1.1,0c-0.3,0.3-0.3,0.8,0,1.1c0.3,0.3,0.8,0.3,1.1,0
			C865.1,231.7,865.1,231.2,864.8,230.8z M863.9,231.7c-0.2-0.2-0.2-0.5,0-0.7c0.2-0.2,0.5-0.2,0.7,0c0.2,0.2,0.2,0.5,0,0.7
			C864.4,231.9,864.1,231.9,863.9,231.7z"/>
		<path class="st3" d="M868.3,227.3c-0.3-0.3-0.8-0.3-1.1,0c-0.3,0.3-0.3,0.8,0,1.1c0.3,0.3,0.8,0.3,1.1,0
			C868.6,228.1,868.6,227.6,868.3,227.3z M867.4,228.2c-0.2-0.2-0.2-0.5,0-0.7c0.2-0.2,0.5-0.2,0.7,0c0.2,0.2,0.2,0.5,0,0.7
			C867.9,228.4,867.6,228.4,867.4,228.2z"/>
		<path class="st3" d="M871.9,223.7c-0.3-0.3-0.8-0.3-1.1,0c-0.3,0.3-0.3,0.8,0,1.1c0.3,0.3,0.8,0.3,1.1,0
			C872.2,224.5,872.2,224,871.9,223.7z M871,224.6c-0.2-0.2-0.2-0.5,0-0.7c0.2-0.2,0.5-0.2,0.7,0c0.2,0.2,0.2,0.5,0,0.7
			C871.5,224.8,871.2,224.8,871,224.6z"/>
		<path class="st3" d="M875.5,220.2c-0.3-0.3-0.8-0.3-1.1,0c-0.3,0.3-0.3,0.8,0,1.1c0.3,0.3,0.8,0.3,1.1,0
			C875.8,221,875.8,220.5,875.5,220.2z M874.6,221.1c-0.2-0.2-0.2-0.5,0-0.7c0.2-0.2,0.5-0.2,0.7,0c0.2,0.2,0.2,0.5,0,0.7
			C875,221.3,874.7,221.3,874.6,221.1z"/>
		<path class="st3" d="M879,216.6c-0.3-0.3-0.8-0.3-1.1,0c-0.3,0.3-0.3,0.8,0,1.1c0.3,0.3,0.8,0.3,1.1,0
			C879.3,217.4,879.3,216.9,879,216.6z M878.1,217.5c-0.2-0.2-0.2-0.5,0-0.7c0.2-0.2,0.5-0.2,0.7,0c0.2,0.2,0.2,0.5,0,0.7
			C878.6,217.7,878.3,217.7,878.1,217.5z"/>
		<path class="st3" d="M882.6,213.1c-0.3-0.3-0.8-0.3-1.1,0c-0.3,0.3-0.3,0.8,0,1.1c0.3,0.3,0.8,0.3,1.1,0
			C882.9,213.9,882.9,213.4,882.6,213.1z M881.7,213.9c-0.2-0.2-0.2-0.5,0-0.7c0.2-0.2,0.5-0.2,0.7,0c0.2,0.2,0.2,0.5,0,0.7
			C882.2,214.1,881.9,214.1,881.7,213.9z"/>
		<path class="st3" d="M886.1,209.5c-0.3-0.3-0.8-0.3-1.1,0c-0.3,0.3-0.3,0.8,0,1.1c0.3,0.3,0.8,0.3,1.1,0
			C886.4,210.3,886.4,209.8,886.1,209.5z M885.2,210.4c-0.2-0.2-0.2-0.5,0-0.7c0.2-0.2,0.5-0.2,0.7,0c0.2,0.2,0.2,0.5,0,0.7
			C885.7,210.6,885.4,210.6,885.2,210.4z"/>
		<path class="st3" d="M889.7,205.9c-0.3-0.3-0.8-0.3-1.1,0c-0.3,0.3-0.3,0.8,0,1.1c0.3,0.3,0.8,0.3,1.1,0
			C890,206.7,890,206.2,889.7,205.9z M888.8,206.8c-0.2-0.2-0.2-0.5,0-0.7c0.2-0.2,0.5-0.2,0.7,0c0.2,0.2,0.2,0.5,0,0.7
			C889.3,207,889,207,888.8,206.8z"/>
	</g>
	<g>
		<polygon class="st3" points="768.7,169.8 769.6,170.7 770.4,169.8 771,170.4 770.1,171.2 771,172.1 770.5,172.7 769.6,171.8 
			768.7,172.7 768.1,172.1 769,171.2 768.1,170.3 		"/>
		<polygon class="st3" points="712.9,169.8 713.8,170.7 714.7,169.8 715.2,170.3 714.3,171.2 715.2,172.1 714.7,172.6 713.8,171.7 
			712.9,172.6 712.3,172.1 713.2,171.2 712.3,170.3 		"/>
		<polygon class="st3" points="722.2,160.5 723.1,161.4 724,160.5 724.5,161 723.6,161.9 724.5,162.8 724,163.3 723.1,162.4 
			722.2,163.3 721.6,162.8 722.5,161.9 721.6,161 		"/>
		<polygon class="st3" points="731.5,151.2 732.4,152.1 733.2,151.2 733.8,151.7 732.9,152.6 733.8,153.5 733.2,154 732.3,153.2 
			731.5,154 730.9,153.5 731.8,152.6 730.9,151.7 		"/>
		<polygon class="st3" points="740.7,141.9 741.6,142.8 742.5,141.9 743.1,142.4 742.2,143.3 743.1,144.2 742.5,144.8 741.6,143.9 
			740.7,144.8 740.2,144.2 741.1,143.3 740.2,142.4 		"/>
		<polygon class="st3" points="722.2,179.1 723.1,180 724,179.1 724.5,179.6 723.6,180.5 724.5,181.4 724,181.9 723.1,181 
			722.2,181.9 721.6,181.4 722.5,180.5 721.6,179.6 		"/>
		<polygon class="st3" points="731.5,169.8 732.4,170.7 733.3,169.8 733.8,170.3 732.9,171.2 733.8,172.1 733.3,172.6 732.4,171.7 
			731.5,172.6 730.9,172.1 731.8,171.2 730.9,170.3 		"/>
		<polygon class="st3" points="740.8,160.5 741.7,161.4 742.5,160.5 743.1,161 742.2,161.9 743.1,162.8 742.6,163.4 741.7,162.5 
			740.8,163.4 740.2,162.8 741.1,161.9 740.2,161 		"/>
		<polygon class="st3" points="750,151.2 750.9,152.1 751.8,151.2 752.4,151.7 751.5,152.6 752.4,153.5 751.8,154.1 750.9,153.2 
			750,154.1 749.5,153.5 750.4,152.6 749.5,151.7 		"/>
		<polygon class="st3" points="731.5,188.4 732.4,189.3 733.3,188.4 733.8,188.9 732.9,189.8 733.8,190.7 733.3,191.2 732.4,190.3 
			731.5,191.2 731,190.7 731.8,189.8 730.9,188.9 		"/>
		<polygon class="st3" points="740.8,179.1 741.7,180 742.6,179.1 743.1,179.6 742.2,180.5 743.1,181.4 742.6,182 741.7,181.1 
			740.8,181.9 740.2,181.4 741.1,180.5 740.2,179.6 		"/>
		<polygon class="st3" points="750.1,169.8 751,170.7 751.9,169.8 752.4,170.3 751.5,171.2 752.4,172.1 751.9,172.7 751,171.8 
			750.1,172.7 749.5,172.1 750.4,171.2 749.5,170.3 		"/>
		<polygon class="st3" points="740.8,197.7 741.7,198.6 742.6,197.7 743.1,198.2 742.2,199.1 743.1,200 742.6,200.5 741.7,199.6 
			740.8,200.5 740.3,200 741.1,199.1 740.3,198.2 		"/>
		<polygon class="st3" points="750.1,188.4 751,189.3 751.9,188.4 752.4,188.9 751.5,189.8 752.4,190.7 751.9,191.3 751,190.4 
			750.1,191.3 749.5,190.7 750.4,189.8 749.5,188.9 		"/>
		<polygon class="st3" points="759.4,179.1 760.3,180 761.2,179.1 761.7,179.6 760.8,180.5 761.7,181.4 761.2,182 760.3,181.1 
			759.4,182 758.8,181.4 759.7,180.5 758.8,179.6 		"/>
		<polygon class="st3" points="759.4,160.5 760.3,161.4 761.1,160.5 761.7,161 760.8,161.9 761.7,162.8 761.1,163.4 760.2,162.5 
			759.4,163.4 758.8,162.8 759.7,161.9 758.8,161 		"/>
	</g>
	<g>
		<polygon class="st3" points="290.5,191.1 291,191.6 291.6,191.1 291.9,191.4 291.4,192 291.9,192.5 291.6,192.9 291,192.3 
			290.5,192.9 290.1,192.5 290.7,192 290.1,191.4 		"/>
		<polygon class="st3" points="256.2,191.1 256.7,191.6 257.3,191.1 257.6,191.4 257,191.9 257.6,192.5 257.3,192.8 256.7,192.3 
			256.2,192.8 255.8,192.5 256.4,191.9 255.8,191.4 		"/>
		<polygon class="st3" points="261.9,185.4 262.4,185.9 263,185.4 263.3,185.7 262.7,186.2 263.3,186.8 263,187.1 262.4,186.6 
			261.9,187.1 261.5,186.8 262.1,186.2 261.5,185.7 		"/>
		<polygon class="st3" points="267.6,179.6 268.1,180.2 268.7,179.6 269,180 268.5,180.5 269,181.1 268.7,181.4 268.1,180.9 
			267.6,181.4 267.2,181.1 267.8,180.5 267.2,180 		"/>
		<polygon class="st3" points="273.3,173.9 273.8,174.5 274.4,173.9 274.7,174.3 274.2,174.8 274.7,175.4 274.4,175.7 273.8,175.1 
			273.3,175.7 273,175.4 273.5,174.8 273,174.3 		"/>
		<polygon class="st3" points="261.9,196.8 262.4,197.3 263,196.8 263.3,197.1 262.8,197.7 263.3,198.2 263,198.6 262.4,198 
			261.9,198.6 261.5,198.2 262.1,197.7 261.5,197.1 		"/>
		<polygon class="st3" points="267.6,191.1 268.1,191.6 268.7,191.1 269,191.4 268.5,192 269,192.5 268.7,192.8 268.1,192.3 
			267.6,192.8 267.3,192.5 267.8,192 267.3,191.4 		"/>
		<polygon class="st3" points="273.3,185.4 273.9,185.9 274.4,185.4 274.7,185.7 274.2,186.2 274.7,186.8 274.4,187.1 273.9,186.6 
			273.3,187.1 273,186.8 273.5,186.2 273,185.7 		"/>
		<polygon class="st3" points="279,179.6 279.6,180.2 280.1,179.6 280.5,180 279.9,180.5 280.5,181.1 280.1,181.4 279.6,180.9 
			279,181.4 278.7,181.1 279.2,180.5 278.7,180 		"/>
		<polygon class="st3" points="267.6,202.5 268.2,203.1 268.7,202.5 269,202.8 268.5,203.4 269,204 268.7,204.3 268.2,203.7 
			267.6,204.3 267.3,203.9 267.8,203.4 267.3,202.8 		"/>
		<polygon class="st3" points="273.3,196.8 273.9,197.4 274.4,196.8 274.8,197.1 274.2,197.7 274.8,198.2 274.4,198.6 273.9,198 
			273.3,198.6 273,198.2 273.5,197.7 273,197.1 		"/>
		<polygon class="st3" points="279,191.1 279.6,191.6 280.1,191.1 280.5,191.4 279.9,192 280.5,192.5 280.1,192.9 279.6,192.3 
			279,192.9 278.7,192.5 279.3,192 278.7,191.4 		"/>
		<polygon class="st3" points="273.3,208.2 273.9,208.8 274.4,208.2 274.8,208.6 274.2,209.1 274.8,209.7 274.4,210 273.9,209.5 
			273.3,210 273,209.7 273.5,209.1 273,208.6 		"/>
		<polygon class="st3" points="279,202.5 279.6,203.1 280.1,202.5 280.5,202.9 279.9,203.4 280.5,204 280.1,204.3 279.6,203.7 
			279,204.3 278.7,204 279.3,203.4 278.7,202.9 		"/>
		<polygon class="st3" points="284.8,196.8 285.3,197.4 285.9,196.8 286.2,197.1 285.6,197.7 286.2,198.2 285.9,198.6 285.3,198 
			284.8,198.6 284.4,198.2 285,197.7 284.4,197.1 		"/>
		<polygon class="st3" points="284.7,185.4 285.3,185.9 285.9,185.4 286.2,185.7 285.6,186.3 286.2,186.8 285.9,187.1 285.3,186.6 
			284.7,187.1 284.4,186.8 285,186.3 284.4,185.7 		"/>
	</g>
	<g>
		<g>
			<path class="st3" d="M914.8,342.9c0,0-0.1-0.1-0.1-0.1l-7.9,0c-0.1,0-0.2,0.1-0.2,0.2l0,7.9c0,0.1,0.1,0.2,0.2,0.2l7.9,0
				c0.1,0,0.2-0.1,0.2-0.2l0-7.9C914.9,343,914.9,343,914.8,342.9z M906.9,343.3l7.5,0v7.5h-7.5V343.3z"/>
			<g>
				<path class="st3" d="M911.6,346.1c0,0-0.1-0.1-0.1-0.1l-1.6,0c-0.1,0-0.1,0-0.1,0.1c0,0-0.1,0.1-0.1,0.1l0,1.6
					c0,0.1,0.1,0.2,0.2,0.2h1.6c0.1,0,0.1,0,0.1-0.1c0,0,0.1-0.1,0.1-0.1v-1.6C911.7,346.2,911.7,346.1,911.6,346.1z M910.1,346.4
					l1.2,0l0,1.2l-1.2,0V346.4z"/>
				<path class="st3" d="M913.2,344.5c0,0-0.1-0.1-0.1-0.1l-4.8,0c-0.1,0-0.1,0-0.1,0.1c0,0-0.1,0.1-0.1,0.1l0,4.8
					c0,0.1,0.1,0.2,0.2,0.2l4.8,0c0.1,0,0.1,0,0.1-0.1c0,0,0.1-0.1,0.1-0.1v-4.7C913.3,344.6,913.3,344.6,913.2,344.5z M908.5,344.9
					h4.4l0,4.4h-4.4L908.5,344.9z"/>
			</g>
		</g>
		<path class="st3" d="M918.1,339.6c-0.4-0.4-1-0.4-1.4,0c-0.4,0.4-0.4,1,0,1.4c0.4,0.4,1,0.4,1.4,0
			C918.5,340.6,918.5,340,918.1,339.6z M917,340.7c-0.2-0.2-0.2-0.6,0-0.9c0.2-0.2,0.6-0.2,0.9,0c0.2,0.2,0.2,0.6,0,0.9
			C917.6,341,917.2,341,917,340.7z"/>
		<path class="st3" d="M920.3,337.5c-0.4-0.4-1-0.4-1.4,0c-0.4,0.4-0.4,1,0,1.4c0.4,0.4,1,0.4,1.4,0
			C920.6,338.5,920.6,337.9,920.3,337.5z M919.1,338.6c-0.2-0.2-0.2-0.6,0-0.9c0.2-0.2,0.6-0.2,0.9,0c0.2,0.2,0.2,0.6,0,0.9
			C919.7,338.9,919.4,338.9,919.1,338.6z"/>
		<path class="st3" d="M922.4,335.4c-0.4-0.4-1-0.4-1.4,0c-0.4,0.4-0.4,1,0,1.4c0.4,0.4,1,0.4,1.4,0
			C922.8,336.4,922.8,335.8,922.4,335.4z M921.2,336.5c-0.2-0.2-0.2-0.6,0-0.9c0.2-0.2,0.6-0.2,0.9,0c0.2,0.2,0.2,0.6,0,0.9
			C921.9,336.8,921.5,336.8,921.2,336.5z"/>
	</g>
	<g>
		<g>
			<path class="st3" d="M90.1,331.2c0,0-0.1-0.1-0.1-0.1l-7.9,0c-0.1,0-0.2,0.1-0.2,0.2l0,7.9c0,0.1,0.1,0.2,0.2,0.2l7.9,0
				c0.1,0,0.2-0.1,0.2-0.2l0-7.9C90.2,331.3,90.2,331.2,90.1,331.2z M82.3,331.5l7.5,0v7.5h-7.5V331.5z"/>
			<g>
				<path class="st3" d="M87,334.4c0,0-0.1-0.1-0.1-0.1l-1.6,0c-0.1,0-0.1,0-0.1,0.1c0,0-0.1,0.1-0.1,0.1l0,1.6
					c0,0.1,0.1,0.2,0.2,0.2h1.6c0.1,0,0.1,0,0.1-0.1c0,0,0.1-0.1,0.1-0.1v-1.6C87,334.5,87,334.4,87,334.4z M85.4,334.7l1.2,0l0,1.2
					l-1.2,0V334.7z"/>
				<path class="st3" d="M88.5,332.8c0,0-0.1-0.1-0.1-0.1l-4.8,0c-0.1,0-0.1,0-0.1,0.1c0,0-0.1,0.1-0.1,0.1l0,4.8
					c0,0.1,0.1,0.2,0.2,0.2l4.8,0c0.1,0,0.1,0,0.1-0.1c0,0,0.1-0.1,0.1-0.1v-4.7C88.6,332.9,88.6,332.8,88.5,332.8z M83.9,333.1h4.4
					l0,4.4h-4.4L83.9,333.1z"/>
			</g>
		</g>
		<path class="st3" d="M93.5,327.9c-0.4-0.4-1-0.4-1.4,0c-0.4,0.4-0.4,1,0,1.4c0.4,0.4,1,0.4,1.4,0
			C93.9,328.9,93.9,328.3,93.5,327.9z M92.3,329c-0.2-0.2-0.2-0.6,0-0.9c0.2-0.2,0.6-0.2,0.9,0c0.2,0.2,0.2,0.6,0,0.9
			C93,329.2,92.6,329.2,92.3,329z"/>
		<path class="st3" d="M95.6,325.8c-0.4-0.4-1-0.4-1.4,0c-0.4,0.4-0.4,1,0,1.4c0.4,0.4,1,0.4,1.4,0C96,326.8,96,326.1,95.6,325.8z
			 M94.4,326.9c-0.2-0.2-0.2-0.6,0-0.9c0.2-0.2,0.6-0.2,0.9,0c0.2,0.2,0.2,0.6,0,0.9C95.1,327.1,94.7,327.1,94.4,326.9z"/>
		<path class="st3" d="M97.7,323.7c-0.4-0.4-1-0.4-1.4,0c-0.4,0.4-0.4,1,0,1.4c0.4,0.4,1,0.4,1.4,0C98.1,324.7,98.1,324,97.7,323.7z
			 M96.6,324.8c-0.2-0.2-0.2-0.6,0-0.9c0.2-0.2,0.6-0.2,0.9,0c0.2,0.2,0.2,0.6,0,0.9C97.2,325,96.8,325,96.6,324.8z"/>
	</g>
	<g>
		<g>
			<path class="st3" d="M887.4,269.2c-0.1-0.1-0.2-0.1-0.3-0.1l-15.5,0c-0.2,0-0.4,0.2-0.4,0.4l0,15.5c0,0.2,0.2,0.4,0.4,0.4l15.5,0
				c0.2,0,0.4-0.2,0.4-0.4l0-15.5C887.6,269.3,887.5,269.2,887.4,269.2z M872,269.8l14.8,0v14.8l-14.8,0V269.8z"/>
			<g>
				<path class="st3" d="M881.2,275.4c-0.1-0.1-0.2-0.1-0.3-0.1l-3.1,0c-0.1,0-0.2,0-0.3,0.1c-0.1,0.1-0.1,0.2-0.1,0.3l0,3.1
					c0,0.2,0.2,0.4,0.4,0.4l3.1,0c0.1,0,0.2,0,0.3-0.1c0.1-0.1,0.1-0.2,0.1-0.3v-3.1C881.3,275.5,881.3,275.4,881.2,275.4z
					 M878.2,276l2.3,0l0,2.4l-2.3,0V276z"/>
				<path class="st3" d="M884.3,272.3c-0.1-0.1-0.2-0.1-0.3-0.1l-9.3,0c-0.1,0-0.2,0-0.3,0.1c-0.1,0.1-0.1,0.2-0.1,0.3l0,9.3
					c0,0.2,0.2,0.4,0.4,0.4l9.3,0c0.1,0,0.2,0,0.3-0.1c0.1-0.1,0.1-0.2,0.1-0.3v-9.3C884.5,272.4,884.4,272.3,884.3,272.3z
					 M875.1,272.9l8.6,0l0,8.6h-8.6L875.1,272.9z"/>
			</g>
		</g>
		<path class="st3" d="M894,262.6c-0.8-0.8-2-0.8-2.8,0c-0.8,0.8-0.8,2,0,2.8c0.8,0.8,2,0.8,2.8,0
			C894.7,264.6,894.7,263.4,894,262.6z M891.8,264.8c-0.5-0.5-0.5-1.2,0-1.7c0.5-0.5,1.2-0.5,1.7,0c0.5,0.5,0.5,1.2,0,1.7
			C893,265.3,892.2,265.3,891.8,264.8z"/>
		<path class="st3" d="M898.1,258.5c-0.8-0.8-2-0.8-2.8,0c-0.8,0.8-0.8,2,0,2.8c0.8,0.8,2,0.8,2.8,0
			C898.9,260.5,898.9,259.2,898.1,258.5z M895.9,260.7c-0.5-0.5-0.5-1.2,0-1.7c0.5-0.5,1.2-0.5,1.7,0c0.5,0.5,0.5,1.2,0,1.7
			C897.1,261.2,896.4,261.2,895.9,260.7z"/>
		<path class="st3" d="M902.3,254.3c-0.8-0.8-2-0.8-2.8,0c-0.8,0.8-0.8,2,0,2.8c0.8,0.8,2,0.7,2.8,0
			C903,256.3,903,255.1,902.3,254.3z M900,256.6c-0.5-0.5-0.5-1.2,0-1.7c0.5-0.5,1.2-0.5,1.7,0c0.5,0.5,0.5,1.2,0,1.7
			C901.3,257,900.5,257,900,256.6z"/>
	</g>
	<g>
		<g>
			<path class="st3" d="M170.3,231.7c-0.1-0.1-0.2-0.1-0.3-0.1l-15.9,0c-0.2,0-0.4,0.2-0.4,0.4l0,15.9c0,0.2,0.2,0.4,0.4,0.4l15.9,0
				c0.2,0,0.4-0.2,0.4-0.4l0-15.9C170.4,231.9,170.4,231.8,170.3,231.7z M154.5,232.4l15.1,0v15.1l-15.1,0V232.4z"/>
			<g>
				<path class="st3" d="M163.9,238.1c-0.1-0.1-0.2-0.1-0.3-0.1l-3.2,0c-0.1,0-0.2,0-0.3,0.1c-0.1,0.1-0.1,0.2-0.1,0.3l0,3.2
					c0,0.2,0.2,0.4,0.4,0.4l3.2,0c0.1,0,0.2,0,0.3-0.1c0.1-0.1,0.1-0.2,0.1-0.3v-3.2C164,238.3,164,238.2,163.9,238.1z M160.9,238.8
					l2.4,0l0,2.4l-2.4,0V238.8z"/>
				<path class="st3" d="M167.1,234.9c-0.1-0.1-0.2-0.1-0.3-0.1l-9.5,0c-0.1,0-0.2,0-0.3,0.1c-0.1,0.1-0.1,0.2-0.1,0.3l0,9.5
					c0,0.2,0.2,0.4,0.4,0.4l9.5,0c0.1,0,0.2,0,0.3-0.1c0.1-0.1,0.1-0.2,0.1-0.3v-9.5C167.2,235.1,167.2,235,167.1,234.9z
					 M157.7,235.6l8.8,0l0,8.8h-8.8L157.7,235.6z"/>
			</g>
		</g>
		<path class="st3" d="M177,225.1c-0.8-0.8-2.1-0.8-2.8,0c-0.8,0.8-0.8,2,0,2.8c0.8,0.8,2,0.8,2.8,0
			C177.8,227.1,177.8,225.8,177,225.1z M174.7,227.3c-0.5-0.5-0.5-1.3,0-1.7c0.5-0.5,1.2-0.5,1.7,0c0.5,0.5,0.5,1.2,0,1.7
			C176,227.8,175.2,227.8,174.7,227.3z"/>
		<path class="st3" d="M181.2,220.8c-0.8-0.8-2-0.8-2.8,0c-0.8,0.8-0.8,2,0,2.8c0.8,0.8,2,0.8,2.8,0
			C182,222.9,182,221.6,181.2,220.8z M178.9,223.1c-0.5-0.5-0.5-1.2,0-1.7c0.5-0.5,1.2-0.5,1.7,0c0.5,0.5,0.5,1.2,0,1.7
			C180.2,223.6,179.4,223.6,178.9,223.1z"/>
		<path class="st3" d="M185.4,216.6c-0.8-0.8-2.1-0.8-2.8,0c-0.8,0.8-0.8,2,0,2.8c0.8,0.8,2,0.8,2.8,0
			C186.2,218.6,186.2,217.4,185.4,216.6z M183.2,218.9c-0.5-0.5-0.5-1.3,0-1.7c0.5-0.5,1.2-0.5,1.7,0c0.5,0.5,0.5,1.2,0,1.7
			C184.4,219.3,183.6,219.3,183.2,218.9z"/>
	</g>
	<g>
		<polygon class="st3" points="241.5,230.7 244,233.3 244.3,233 241.7,230.5 		"/>
		<polygon class="st3" points="238.4,233.8 241,236.4 241.2,236.1 238.7,233.5 		"/>
		
			<rect x="236.6" y="236.2" transform="matrix(0.7074 -0.7068 0.7068 0.7074 -98.938 237.0055)" class="st3" width="0.4" height="3.6"/>
		<polygon class="st3" points="232.3,239.9 234.9,242.5 235.1,242.2 232.6,239.6 		"/>
		<polygon class="st3" points="229.3,242.9 231.8,245.5 232.1,245.2 229.5,242.7 		"/>
	</g>
	<g>
		<polygon class="st3" points="370.6,175.4 377,181.8 377.7,181.1 371.3,174.7 		"/>
		<polygon class="st3" points="363,183 369.4,189.4 370.1,188.8 363.6,182.4 		"/>
		
			<rect x="358.4" y="189" transform="matrix(0.7074 -0.7068 0.7068 0.7074 -31.786 310.2772)" class="st3" width="0.9" height="9.1"/>
		<polygon class="st3" points="347.7,198.3 354.1,204.7 354.8,204.1 348.4,197.6 		"/>
		<polygon class="st3" points="340.1,205.9 346.5,212.3 347.1,211.7 340.7,205.3 		"/>
	</g>
	<g>
		<polygon class="st3" points="793.6,240.3 796.9,243.7 797.3,243.3 794,240 		"/>
		
			<rect x="791.2" y="243.4" transform="matrix(0.7077 -0.7065 0.7065 0.7077 57.682 631.0043)" class="st3" width="0.5" height="4.7"/>
		
			<rect x="787.3" y="247.4" transform="matrix(0.7071 -0.7071 0.7071 0.7071 54.0723 630.0276)" class="st3" width="0.5" height="4.7"/>
		<polygon class="st3" points="781.7,252.2 785.1,255.5 785.4,255.2 782.1,251.9 		"/>
		
			<rect x="779.4" y="255.3" transform="matrix(0.7069 -0.7073 0.7073 0.7069 46.2651 626.9603)" class="st3" width="0.5" height="4.7"/>
	</g>
	<g>
		<polygon class="st3" points="321.8,170.3 325.8,174.3 326.1,174 322.1,170 		"/>
		<polygon class="st3" points="325.8,170 321.8,174 322.1,174.3 326.1,170.3 		"/>
	</g>
	<g>
		<polygon class="st3" points="637.3,151.9 643.9,158.4 644.4,158 637.8,151.4 		"/>
		<polygon class="st3" points="643.9,151.4 637.4,158 637.8,158.4 644.4,151.9 		"/>
	</g>
</g>
<g class="st4">
	<path class="st5" d="M523.4,265.6c0,8,6.5,14.6,14.6,14.6c8,0,14.6-6.5,14.6-14.6c0-8-6.5-14.6-14.6-14.6
		C529.9,251,523.4,257.5,523.4,265.6z"/>
	<polygon class="st5" points="379.2,323.3 385,301.6 363.3,307.4 	"/>
	<polygon class="st5" points="746,341.7 754,311.8 724.2,319.8 	"/>
	<polygon class="st5" points="808.4,213.2 812.1,199.2 798.2,203 	"/>
	<path class="st5" d="M660.2,220.3c0,17.9,14.5,32.4,32.4,32.4c17.9,0,32.4-14.5,32.4-32.4c0-17.9-14.5-32.4-32.4-32.4
		C674.7,188,660.2,202.5,660.2,220.3z"/>
	<path class="st5" d="M270.9,251c0,10.6,8.6,19.2,19.2,19.2c10.6,0,19.2-8.6,19.2-19.2c0-10.6-8.6-19.2-19.2-19.2
		C279.5,231.8,270.9,240.4,270.9,251z"/>
</g>
<g>
	<path class="st6" d="M475.8,126.2c-0.6,0-1.3,0.8-1.5,1.1H474v-4.8h0.4c1,2.9,3.4,4.5,5.2,4.5c2.2,0,2.9-1.4,2.9-2.8
		c0-1.4-0.5-2.5-3.9-3.3c-3.4-0.8-4.5-1.9-4.5-4.4c0-2.2,1.7-4.2,4.5-4.2c2,0,2.6,1.1,3.3,1.1c0.4,0,0.8-0.3,1.2-0.9h0.3v4.3H483
		c-0.8-2.2-2.3-4-4.3-4c-2.2,0-2.8,1.5-2.8,2.6c0,1.7,1.1,2.4,3.9,3c3.7,0.8,4.5,2.5,4.5,4.7c0,2.3-1.7,4.4-4.7,4.4
		C477.4,127.6,476.4,126.2,475.8,126.2z"/>
	<path class="st6" d="M485.9,126.8h0.2c0.8,0,1.2-0.2,1.2-0.9v-12.1c0-0.6-0.1-0.9-1.5-0.9v-0.5l3.5-0.2v7.8c0.6-1,1.5-2,3.1-2
		c1.6,0,2.9,0.9,2.9,2.6c0,0.2,0,5.3,0,5.3c0,0.5,0.1,0.7,1,0.7h0.6v0.5h-5v-0.5h0.2c0.9,0,1.3-0.2,1.3-0.9c0,0,0-4.9,0-5.4
		c0-1.2-0.5-1.7-1.4-1.7c-1.5,0-2.6,1.7-2.6,2.3c0,0.6,0,4.9,0,4.9c0,0.5,0.1,0.7,1.1,0.7h0.4v0.5h-4.8V126.8z"/>
	<path class="st6" d="M498.1,125.2c0-2.2,2.1-2.7,5.6-3.2c0-0.8,0-1.6,0-1.7c0-1.2-0.4-1.7-1.9-1.7c-0.8,0-1.4,0.3-1.4,0.6
		c0.1,0.6,0.9,1,0.9,1.7c0,0.5-0.4,0.9-1,0.9c-0.7,0-1.3-0.8-1.3-1.6c0-1.2,1.3-2.1,3.3-2.1c2.2,0,3.5,0.9,3.5,2.6
		c0,0.2,0,4.6,0,4.6c0,0.7,0.1,1,0.8,1c0.5,0,0.9-0.8,0.9-2.1h0.4c0,2.3-1,3.2-2.3,3.2s-1.8-0.7-1.9-1.9c-0.5,0.9-1.6,2-3.2,2
		C499.4,127.6,498.1,126.7,498.1,125.2z M503.7,124c0-0.2,0-0.9,0-1.6c-2.9,0.5-3.6,0.9-3.6,2.3c0,1.3,0.5,1.9,1.4,1.9
		C503,126.6,503.7,125.4,503.7,124z"/>
	<path class="st6" d="M508.5,126.8h0.2c0.9,0,1.3-0.2,1.3-0.9v-6.4c0-0.3-0.1-0.4-1.4-0.6v-0.5l3.4-0.1v2.3c0.6-1.4,1.4-2.4,2.3-2.4
		c0.7,0,1.4,0.4,1.4,1.3c0,0.5-0.4,1.1-1,1.1c-0.5,0-1.3-0.9-1.4-0.9c-0.6,0-1.3,1.2-1.3,1.9c0,0.3,0,4.5,0,4.5c0,0.5,0,0.7,1.3,0.7
		h0.4v0.5h-5.2V126.8z"/>
	<path class="st6" d="M518.9,122.8c0.1,3.3,1.6,3.9,2.9,3.9c1.3,0,2.3-0.6,3.1-1.7l0.4,0.2c-1,1.4-2.1,2.3-3.9,2.3
		c-2.5,0-4.8-1.8-4.8-4.7c0-2.5,2.2-4.7,4.6-4.7c2.6,0,3.9,1.9,4.1,4.1h-6.4C518.9,122.4,518.9,122.6,518.9,122.8z M523.2,121.6
		c-0.2-1.9-0.9-3-2.1-3c-0.9,0-2,0.6-2.1,3H523.2z"/>
	<path class="st6" d="M527.3,126c0-0.9,0.7-1.6,1.5-1.6s1.5,0.7,1.5,1.6c0,0.9-0.7,1.6-1.5,1.6S527.3,126.9,527.3,126z"/>
	<path class="st6" d="M472.2,150.8h0.3c1.8,0,2-0.2,2-1.2v-11.4c0-0.8-0.3-1-2-1h-0.3v-0.6h6.9v0.6h-0.6c-1.5,0-1.7,0.2-1.7,0.8
		v11.6c0,0.8,0.2,1.3,2.1,1.2l1.6-0.1c0.6,0,2.8-1.8,4-4.5l0.4,0l-0.9,5.1h-11.9V150.8z"/>
	<path class="st6" d="M488.3,146.8c0.1,3.3,1.6,3.9,2.9,3.9c1.3,0,2.3-0.6,3.1-1.7l0.4,0.2c-1,1.4-2.1,2.3-3.9,2.3
		c-2.5,0-4.8-1.8-4.8-4.7c0-2.5,2.1-4.7,4.6-4.7c2.6,0,3.9,1.9,4.1,4.1h-6.4C488.3,146.4,488.3,146.6,488.3,146.8z M492.6,145.6
		c-0.2-1.9-0.9-3-2.1-3c-0.9,0-2,0.6-2.1,3H492.6z"/>
	<path class="st6" d="M496.3,149.2c0-2.2,2.1-2.7,5.6-3.2c0-0.8,0-1.6,0-1.7c0-1.2-0.4-1.7-1.9-1.7c-0.8,0-1.4,0.3-1.4,0.6
		c0.1,0.6,0.9,1,0.9,1.7c0,0.5-0.4,0.9-1,0.9c-0.7,0-1.3-0.8-1.3-1.6c0-1.2,1.3-2.1,3.3-2.1c2.2,0,3.5,0.9,3.5,2.6
		c0,0.2,0,4.6,0,4.6c0,0.7,0.1,1,0.8,1c0.5,0,0.9-0.8,0.9-2.1h0.4c0,2.3-1,3.2-2.3,3.2s-1.8-0.7-1.9-1.9c-0.5,0.9-1.6,2-3.2,2
		C497.6,151.6,496.3,150.7,496.3,149.2z M501.9,148c0-0.2,0-0.9,0-1.6c-2.9,0.5-3.6,0.9-3.6,2.3c0,1.3,0.5,1.9,1.4,1.9
		C501.2,150.6,501.9,149.4,501.9,148z"/>
	<path class="st6" d="M506.8,150.8h0.2c0.9,0,1.3-0.2,1.3-0.9v-6.4c0-0.3-0.1-0.4-1.4-0.6v-0.5l3.4-0.1v2.3c0.6-1.4,1.4-2.4,2.3-2.4
		c0.7,0,1.4,0.4,1.4,1.3c0,0.5-0.4,1.1-1,1.1c-0.5,0-1.3-0.9-1.4-0.9c-0.6,0-1.3,1.2-1.3,1.9c0,0.3,0,4.5,0,4.5c0,0.5,0,0.7,1.3,0.7
		h0.4v0.5h-5.2V150.8z"/>
	<path class="st6" d="M515.2,150.8h0.2c0.9,0,1.3-0.2,1.3-0.9v-6.4c0-0.3-0.2-0.5-1.5-0.6v-0.5l3.5-0.1v1.9c0.6-1,1.5-2,3.1-2
		c1.6,0,2.9,0.9,2.9,2.6c0,0.2,0,5.3,0,5.3c0,0.5,0.1,0.7,1,0.7h0.6v0.5h-5v-0.5h0.2c0.9,0,1.3-0.2,1.3-0.9c0,0,0-4.9,0-5.5
		c0-1.2-0.5-1.6-1.4-1.6c-1.5,0-2.6,1.7-2.6,2.3c0,0.6,0,4.9,0,4.9c0,0.5,0.1,0.7,1.1,0.7h0.4v0.5h-4.9V150.8z"/>
	<path class="st6" d="M527.9,150c0-0.9,0.7-1.6,1.5-1.6s1.5,0.7,1.5,1.6c0,0.9-0.7,1.6-1.5,1.6S527.9,150.9,527.9,150z"/>
	<path class="st6" d="M476.4,168c0-4.8,3.7-7.6,7-7.6c2,0,3.2,1,3.6,1s0.8-0.3,1.2-0.8h0.3v5.1h-0.4c-0.7-2.6-2.3-4.7-4.8-4.7
		c-2.2,0-4.4,1.8-4.2,7c0.1,3.3,0.6,7.1,4.3,7.1c1.6,0,2.9-1.2,2.9-1.9v-3c0-0.8-0.3-1-2-1H484v-0.6h6.9v0.6h-0.4
		c-1.1,0-1.9,0.2-1.8,1v5.2h-0.3c-0.2-0.5-0.7-1.1-1.2-1.1c-0.6,0-1.3,1.4-4,1.4C480.1,175.6,476.4,172.6,476.4,168z"/>
	<path class="st6" d="M491.3,174.8h0.2c0.9,0,1.3-0.2,1.3-0.9v-6.4c0-0.3-0.1-0.4-1.4-0.6v-0.5l3.4-0.1v2.3c0.6-1.4,1.4-2.4,2.3-2.4
		c0.7,0,1.4,0.4,1.4,1.3c0,0.5-0.4,1.1-1,1.1c-0.5,0-1.3-0.9-1.4-0.9c-0.6,0-1.3,1.2-1.3,1.9c0,0.3,0,4.5,0,4.5c0,0.5,0,0.7,1.3,0.7
		h0.4v0.5h-5.2V174.8z"/>
	<path class="st6" d="M499.4,170.8c0-2.5,2.4-4.7,4.8-4.7s5,2.1,5,4.7c0,2.5-2.6,4.7-5,4.7S499.4,173.3,499.4,170.8z M506.9,170.8
		c0-3.4-1.1-4.2-2.6-4.2s-2.6,0.8-2.6,4.2c0,3.4,1.1,4.2,2.6,4.2S506.9,174.3,506.9,170.8z"/>
	<path class="st6" d="M516.1,167.6c-0.2-0.6-0.3-0.7-0.9-0.7v-0.5h4v0.5c-1.3,0.1-1.3,0.2-0.9,1.2l1.6,4.6l1.7-4.6
		c0.4-1,0.4-1.2-0.9-1.3v-0.5h3.3v0.5c-1.2,0.1-1.4,0.2-1.8,1.3l-2.9,7.4H519l-2.3-6.2l-2.4,6.2H514l-2.9-8
		c-0.2-0.5-0.3-0.6-1.5-0.7v-0.5h4.4v0.5c-1,0.1-1,0.3-0.7,1.2l1.6,4.5l1.5-4.1L516.1,167.6z"/>
	<path class="st6" d="M523.8,174c0-0.9,0.7-1.6,1.5-1.6s1.5,0.7,1.5,1.6c0,0.9-0.7,1.6-1.5,1.6S523.8,174.9,523.8,174z"/>
</g>
</svg>
